%TF.GenerationSoftware,KiCad,Pcbnew,10.0.5-10.0.5~ubuntu24.04.1*%
%TF.CreationDate,2026-09-03T02:53:35-06:00*%
%TF.ProjectId,quad_fan_controller,71756164-5f66-4616-9e5f-636f6e74726f,rev?*%
%TF.SameCoordinates,Original*%
%TF.FileFunction,Legend,Top*%
%TF.FilePolarity,Positive*%
%FSLAX46Y46*%
G04 Gerber Fmt 4.6, Leading zero omitted, Abs format (unit mm)*
G04 Created by KiCad (PCBNEW 10.0.5-10.0.5~ubuntu24.04.1) date 2026-09-03 02:53:35*
%MOMM*%
%LPD*%
G01*
G04 APERTURE LIST*
G04 Aperture macros list*
%AMRoundRect*
0 Rectangle with rounded corners*
0 $1 Rounding radius*
0 $2 $3 $4 $5 $6 $7 $8 $9 X,Y pos of 4 corners*
0 Add a 4 corners polygon primitive as box body*
4,1,4,$2,$3,$4,$5,$6,$7,$8,$9,$2,$3,0*
0 Add four circle primitives for the rounded corners*
1,1,$1+$1,$2,$3*
1,1,$1+$1,$4,$5*
1,1,$1+$1,$6,$7*
1,1,$1+$1,$8,$9*
0 Add four rect primitives between the rounded corners*
20,1,$1+$1,$2,$3,$4,$5,0*
20,1,$1+$1,$4,$5,$6,$7,0*
20,1,$1+$1,$6,$7,$8,$9,0*
20,1,$1+$1,$8,$9,$2,$3,0*%
%AMFreePoly0*
4,1,9,3.862500,-0.866500,0.737500,-0.866500,0.737500,-0.450000,-0.737500,-0.450000,-0.737500,0.450000,0.737500,0.450000,0.737500,0.866500,3.862500,0.866500,3.862500,-0.866500,3.862500,-0.866500,$1*%
G04 Aperture macros list end*
%ADD10C,0.200000*%
%ADD11C,0.120000*%
%ADD12RoundRect,0.200000X-0.200000X-0.275000X0.200000X-0.275000X0.200000X0.275000X-0.200000X0.275000X0*%
%ADD13RoundRect,0.225000X0.375000X-0.225000X0.375000X0.225000X-0.375000X0.225000X-0.375000X-0.225000X0*%
%ADD14RoundRect,0.250000X-1.500000X-0.550000X1.500000X-0.550000X1.500000X0.550000X-1.500000X0.550000X0*%
%ADD15C,1.000000*%
%ADD16RoundRect,0.225000X-0.250000X0.225000X-0.250000X-0.225000X0.250000X-0.225000X0.250000X0.225000X0*%
%ADD17RoundRect,0.445000X-1.155000X0.445000X-1.155000X-0.445000X1.155000X-0.445000X1.155000X0.445000X0*%
%ADD18RoundRect,0.225000X-0.225000X-0.250000X0.225000X-0.250000X0.225000X0.250000X-0.225000X0.250000X0*%
%ADD19RoundRect,0.225000X0.250000X-0.225000X0.250000X0.225000X-0.250000X0.225000X-0.250000X-0.225000X0*%
%ADD20RoundRect,0.250000X-1.000000X-0.650000X1.000000X-0.650000X1.000000X0.650000X-1.000000X0.650000X0*%
%ADD21RoundRect,0.150000X-0.587500X-0.150000X0.587500X-0.150000X0.587500X0.150000X-0.587500X0.150000X0*%
%ADD22R,1.700000X1.700000*%
%ADD23C,1.700000*%
%ADD24RoundRect,0.200000X0.200000X0.275000X-0.200000X0.275000X-0.200000X-0.275000X0.200000X-0.275000X0*%
%ADD25RoundRect,0.225000X-0.225000X-0.375000X0.225000X-0.375000X0.225000X0.375000X-0.225000X0.375000X0*%
%ADD26C,3.200000*%
%ADD27RoundRect,0.300000X-0.300000X-0.300000X0.300000X-0.300000X0.300000X0.300000X-0.300000X0.300000X0*%
%ADD28RoundRect,0.050010X-0.099990X-0.199990X0.099990X-0.199990X0.099990X0.199990X-0.099990X0.199990X0*%
%ADD29R,2.600000X2.600000*%
%ADD30C,2.600000*%
%ADD31RoundRect,0.218750X-0.218750X-0.256250X0.218750X-0.256250X0.218750X0.256250X-0.218750X0.256250X0*%
%ADD32RoundRect,0.150000X-0.825000X-0.150000X0.825000X-0.150000X0.825000X0.150000X-0.825000X0.150000X0*%
%ADD33R,1.800000X1.800000*%
%ADD34C,1.800000*%
%ADD35RoundRect,0.250000X-0.250000X-0.475000X0.250000X-0.475000X0.250000X0.475000X-0.250000X0.475000X0*%
%ADD36RoundRect,0.200000X-0.275000X0.200000X-0.275000X-0.200000X0.275000X-0.200000X0.275000X0.200000X0*%
%ADD37RoundRect,0.125000X-0.625000X-0.125000X0.625000X-0.125000X0.625000X0.125000X-0.625000X0.125000X0*%
%ADD38RoundRect,0.125000X-0.125000X-0.625000X0.125000X-0.625000X0.125000X0.625000X-0.125000X0.625000X0*%
%ADD39RoundRect,0.225000X-0.375000X0.225000X-0.375000X-0.225000X0.375000X-0.225000X0.375000X0.225000X0*%
%ADD40RoundRect,0.200000X0.275000X-0.200000X0.275000X0.200000X-0.275000X0.200000X-0.275000X-0.200000X0*%
%ADD41RoundRect,0.225000X-0.425000X-0.225000X0.425000X-0.225000X0.425000X0.225000X-0.425000X0.225000X0*%
%ADD42FreePoly0,0.000000*%
G04 APERTURE END LIST*
D10*
X33571428Y-67159695D02*
X33838095Y-67959695D01*
X33838095Y-67959695D02*
X34104761Y-67159695D01*
X34790475Y-67959695D02*
X34333332Y-67959695D01*
X34561904Y-67959695D02*
X34561904Y-67159695D01*
X34561904Y-67159695D02*
X34485713Y-67273980D01*
X34485713Y-67273980D02*
X34409523Y-67350171D01*
X34409523Y-67350171D02*
X34333332Y-67388266D01*
X35095237Y-67235885D02*
X35133333Y-67197790D01*
X35133333Y-67197790D02*
X35209523Y-67159695D01*
X35209523Y-67159695D02*
X35399999Y-67159695D01*
X35399999Y-67159695D02*
X35476190Y-67197790D01*
X35476190Y-67197790D02*
X35514285Y-67235885D01*
X35514285Y-67235885D02*
X35552380Y-67312076D01*
X35552380Y-67312076D02*
X35552380Y-67388266D01*
X35552380Y-67388266D02*
X35514285Y-67502552D01*
X35514285Y-67502552D02*
X35057142Y-67959695D01*
X35057142Y-67959695D02*
X35552380Y-67959695D01*
X35895238Y-67959695D02*
X35895238Y-67159695D01*
X35895238Y-67159695D02*
X36200000Y-67159695D01*
X36200000Y-67159695D02*
X36276190Y-67197790D01*
X36276190Y-67197790D02*
X36314285Y-67235885D01*
X36314285Y-67235885D02*
X36352381Y-67312076D01*
X36352381Y-67312076D02*
X36352381Y-67426361D01*
X36352381Y-67426361D02*
X36314285Y-67502552D01*
X36314285Y-67502552D02*
X36276190Y-67540647D01*
X36276190Y-67540647D02*
X36200000Y-67578742D01*
X36200000Y-67578742D02*
X35895238Y-67578742D01*
X52590476Y-58654933D02*
X53200000Y-58654933D01*
X52895238Y-58959695D02*
X52895238Y-58350171D01*
X53504761Y-58159695D02*
X53999999Y-58159695D01*
X53999999Y-58159695D02*
X53733333Y-58464457D01*
X53733333Y-58464457D02*
X53847618Y-58464457D01*
X53847618Y-58464457D02*
X53923809Y-58502552D01*
X53923809Y-58502552D02*
X53961904Y-58540647D01*
X53961904Y-58540647D02*
X53999999Y-58616838D01*
X53999999Y-58616838D02*
X53999999Y-58807314D01*
X53999999Y-58807314D02*
X53961904Y-58883504D01*
X53961904Y-58883504D02*
X53923809Y-58921600D01*
X53923809Y-58921600D02*
X53847618Y-58959695D01*
X53847618Y-58959695D02*
X53619047Y-58959695D01*
X53619047Y-58959695D02*
X53542856Y-58921600D01*
X53542856Y-58921600D02*
X53504761Y-58883504D01*
X54228571Y-58159695D02*
X54495238Y-58959695D01*
X54495238Y-58959695D02*
X54761904Y-58159695D01*
X54952380Y-58159695D02*
X55447618Y-58159695D01*
X55447618Y-58159695D02*
X55180952Y-58464457D01*
X55180952Y-58464457D02*
X55295237Y-58464457D01*
X55295237Y-58464457D02*
X55371428Y-58502552D01*
X55371428Y-58502552D02*
X55409523Y-58540647D01*
X55409523Y-58540647D02*
X55447618Y-58616838D01*
X55447618Y-58616838D02*
X55447618Y-58807314D01*
X55447618Y-58807314D02*
X55409523Y-58883504D01*
X55409523Y-58883504D02*
X55371428Y-58921600D01*
X55371428Y-58921600D02*
X55295237Y-58959695D01*
X55295237Y-58959695D02*
X55066666Y-58959695D01*
X55066666Y-58959695D02*
X54990475Y-58921600D01*
X54990475Y-58921600D02*
X54952380Y-58883504D01*
X57390476Y-58197790D02*
X57314286Y-58159695D01*
X57314286Y-58159695D02*
X57200000Y-58159695D01*
X57200000Y-58159695D02*
X57085714Y-58197790D01*
X57085714Y-58197790D02*
X57009524Y-58273980D01*
X57009524Y-58273980D02*
X56971429Y-58350171D01*
X56971429Y-58350171D02*
X56933333Y-58502552D01*
X56933333Y-58502552D02*
X56933333Y-58616838D01*
X56933333Y-58616838D02*
X56971429Y-58769219D01*
X56971429Y-58769219D02*
X57009524Y-58845409D01*
X57009524Y-58845409D02*
X57085714Y-58921600D01*
X57085714Y-58921600D02*
X57200000Y-58959695D01*
X57200000Y-58959695D02*
X57276191Y-58959695D01*
X57276191Y-58959695D02*
X57390476Y-58921600D01*
X57390476Y-58921600D02*
X57428572Y-58883504D01*
X57428572Y-58883504D02*
X57428572Y-58616838D01*
X57428572Y-58616838D02*
X57276191Y-58616838D01*
X57771429Y-58959695D02*
X57771429Y-58159695D01*
X57771429Y-58159695D02*
X58228572Y-58959695D01*
X58228572Y-58959695D02*
X58228572Y-58159695D01*
X58609524Y-58959695D02*
X58609524Y-58159695D01*
X58609524Y-58159695D02*
X58800000Y-58159695D01*
X58800000Y-58159695D02*
X58914286Y-58197790D01*
X58914286Y-58197790D02*
X58990476Y-58273980D01*
X58990476Y-58273980D02*
X59028571Y-58350171D01*
X59028571Y-58350171D02*
X59066667Y-58502552D01*
X59066667Y-58502552D02*
X59066667Y-58616838D01*
X59066667Y-58616838D02*
X59028571Y-58769219D01*
X59028571Y-58769219D02*
X58990476Y-58845409D01*
X58990476Y-58845409D02*
X58914286Y-58921600D01*
X58914286Y-58921600D02*
X58800000Y-58959695D01*
X58800000Y-58959695D02*
X58609524Y-58959695D01*
X56352380Y-91340647D02*
X56085714Y-91340647D01*
X56085714Y-91759695D02*
X56085714Y-90959695D01*
X56085714Y-90959695D02*
X56466666Y-90959695D01*
X56733332Y-91531123D02*
X57114285Y-91531123D01*
X56657142Y-91759695D02*
X56923809Y-90959695D01*
X56923809Y-90959695D02*
X57190475Y-91759695D01*
X57457142Y-91759695D02*
X57457142Y-90959695D01*
X57457142Y-90959695D02*
X57914285Y-91759695D01*
X57914285Y-91759695D02*
X57914285Y-90959695D01*
X58714284Y-91759695D02*
X58257141Y-91759695D01*
X58485713Y-91759695D02*
X58485713Y-90959695D01*
X58485713Y-90959695D02*
X58409522Y-91073980D01*
X58409522Y-91073980D02*
X58333332Y-91150171D01*
X58333332Y-91150171D02*
X58257141Y-91188266D01*
X58866666Y-91835885D02*
X59476189Y-91835885D01*
X59666666Y-91759695D02*
X59666666Y-90959695D01*
X59666666Y-90959695D02*
X59971428Y-90959695D01*
X59971428Y-90959695D02*
X60047618Y-90997790D01*
X60047618Y-90997790D02*
X60085713Y-91035885D01*
X60085713Y-91035885D02*
X60123809Y-91112076D01*
X60123809Y-91112076D02*
X60123809Y-91226361D01*
X60123809Y-91226361D02*
X60085713Y-91302552D01*
X60085713Y-91302552D02*
X60047618Y-91340647D01*
X60047618Y-91340647D02*
X59971428Y-91378742D01*
X59971428Y-91378742D02*
X59666666Y-91378742D01*
X60390475Y-90959695D02*
X60580951Y-91759695D01*
X60580951Y-91759695D02*
X60733332Y-91188266D01*
X60733332Y-91188266D02*
X60885713Y-91759695D01*
X60885713Y-91759695D02*
X61076190Y-90959695D01*
X61380952Y-91759695D02*
X61380952Y-90959695D01*
X61380952Y-90959695D02*
X61647618Y-91531123D01*
X61647618Y-91531123D02*
X61914285Y-90959695D01*
X61914285Y-90959695D02*
X61914285Y-91759695D01*
X66200000Y-91340647D02*
X65933334Y-91340647D01*
X65933334Y-91759695D02*
X65933334Y-90959695D01*
X65933334Y-90959695D02*
X66314286Y-90959695D01*
X66580952Y-91531123D02*
X66961905Y-91531123D01*
X66504762Y-91759695D02*
X66771429Y-90959695D01*
X66771429Y-90959695D02*
X67038095Y-91759695D01*
X67304762Y-91759695D02*
X67304762Y-90959695D01*
X67304762Y-90959695D02*
X67761905Y-91759695D01*
X67761905Y-91759695D02*
X67761905Y-90959695D01*
X68561904Y-91759695D02*
X68104761Y-91759695D01*
X68333333Y-91759695D02*
X68333333Y-90959695D01*
X68333333Y-90959695D02*
X68257142Y-91073980D01*
X68257142Y-91073980D02*
X68180952Y-91150171D01*
X68180952Y-91150171D02*
X68104761Y-91188266D01*
X68714286Y-91835885D02*
X69323809Y-91835885D01*
X69400000Y-90959695D02*
X69857143Y-90959695D01*
X69628571Y-91759695D02*
X69628571Y-90959695D01*
X70085714Y-91531123D02*
X70466667Y-91531123D01*
X70009524Y-91759695D02*
X70276191Y-90959695D01*
X70276191Y-90959695D02*
X70542857Y-91759695D01*
X71266667Y-91683504D02*
X71228571Y-91721600D01*
X71228571Y-91721600D02*
X71114286Y-91759695D01*
X71114286Y-91759695D02*
X71038095Y-91759695D01*
X71038095Y-91759695D02*
X70923809Y-91721600D01*
X70923809Y-91721600D02*
X70847619Y-91645409D01*
X70847619Y-91645409D02*
X70809524Y-91569219D01*
X70809524Y-91569219D02*
X70771428Y-91416838D01*
X70771428Y-91416838D02*
X70771428Y-91302552D01*
X70771428Y-91302552D02*
X70809524Y-91150171D01*
X70809524Y-91150171D02*
X70847619Y-91073980D01*
X70847619Y-91073980D02*
X70923809Y-90997790D01*
X70923809Y-90997790D02*
X71038095Y-90959695D01*
X71038095Y-90959695D02*
X71114286Y-90959695D01*
X71114286Y-90959695D02*
X71228571Y-90997790D01*
X71228571Y-90997790D02*
X71266667Y-91035885D01*
X71609524Y-91759695D02*
X71609524Y-90959695D01*
X71609524Y-91340647D02*
X72066667Y-91340647D01*
X72066667Y-91759695D02*
X72066667Y-90959695D01*
X71571429Y-93959695D02*
X71571429Y-93159695D01*
X71571429Y-93159695D02*
X71876191Y-93159695D01*
X71876191Y-93159695D02*
X71952381Y-93197790D01*
X71952381Y-93197790D02*
X71990476Y-93235885D01*
X71990476Y-93235885D02*
X72028572Y-93312076D01*
X72028572Y-93312076D02*
X72028572Y-93426361D01*
X72028572Y-93426361D02*
X71990476Y-93502552D01*
X71990476Y-93502552D02*
X71952381Y-93540647D01*
X71952381Y-93540647D02*
X71876191Y-93578742D01*
X71876191Y-93578742D02*
X71571429Y-93578742D01*
X72790476Y-93197790D02*
X72714286Y-93159695D01*
X72714286Y-93159695D02*
X72600000Y-93159695D01*
X72600000Y-93159695D02*
X72485714Y-93197790D01*
X72485714Y-93197790D02*
X72409524Y-93273980D01*
X72409524Y-93273980D02*
X72371429Y-93350171D01*
X72371429Y-93350171D02*
X72333333Y-93502552D01*
X72333333Y-93502552D02*
X72333333Y-93616838D01*
X72333333Y-93616838D02*
X72371429Y-93769219D01*
X72371429Y-93769219D02*
X72409524Y-93845409D01*
X72409524Y-93845409D02*
X72485714Y-93921600D01*
X72485714Y-93921600D02*
X72600000Y-93959695D01*
X72600000Y-93959695D02*
X72676191Y-93959695D01*
X72676191Y-93959695D02*
X72790476Y-93921600D01*
X72790476Y-93921600D02*
X72828572Y-93883504D01*
X72828572Y-93883504D02*
X72828572Y-93616838D01*
X72828572Y-93616838D02*
X72676191Y-93616838D01*
X73171429Y-93959695D02*
X73171429Y-93159695D01*
X73171429Y-93159695D02*
X73628572Y-93959695D01*
X73628572Y-93959695D02*
X73628572Y-93159695D01*
X74009524Y-93959695D02*
X74009524Y-93159695D01*
X74009524Y-93159695D02*
X74200000Y-93159695D01*
X74200000Y-93159695D02*
X74314286Y-93197790D01*
X74314286Y-93197790D02*
X74390476Y-93273980D01*
X74390476Y-93273980D02*
X74428571Y-93350171D01*
X74428571Y-93350171D02*
X74466667Y-93502552D01*
X74466667Y-93502552D02*
X74466667Y-93616838D01*
X74466667Y-93616838D02*
X74428571Y-93769219D01*
X74428571Y-93769219D02*
X74390476Y-93845409D01*
X74390476Y-93845409D02*
X74314286Y-93921600D01*
X74314286Y-93921600D02*
X74200000Y-93959695D01*
X74200000Y-93959695D02*
X74009524Y-93959695D01*
X74352380Y-91340647D02*
X74085714Y-91340647D01*
X74085714Y-91759695D02*
X74085714Y-90959695D01*
X74085714Y-90959695D02*
X74466666Y-90959695D01*
X74733332Y-91531123D02*
X75114285Y-91531123D01*
X74657142Y-91759695D02*
X74923809Y-90959695D01*
X74923809Y-90959695D02*
X75190475Y-91759695D01*
X75457142Y-91759695D02*
X75457142Y-90959695D01*
X75457142Y-90959695D02*
X75914285Y-91759695D01*
X75914285Y-91759695D02*
X75914285Y-90959695D01*
X76257141Y-91035885D02*
X76295237Y-90997790D01*
X76295237Y-90997790D02*
X76371427Y-90959695D01*
X76371427Y-90959695D02*
X76561903Y-90959695D01*
X76561903Y-90959695D02*
X76638094Y-90997790D01*
X76638094Y-90997790D02*
X76676189Y-91035885D01*
X76676189Y-91035885D02*
X76714284Y-91112076D01*
X76714284Y-91112076D02*
X76714284Y-91188266D01*
X76714284Y-91188266D02*
X76676189Y-91302552D01*
X76676189Y-91302552D02*
X76219046Y-91759695D01*
X76219046Y-91759695D02*
X76714284Y-91759695D01*
X76866666Y-91835885D02*
X77476189Y-91835885D01*
X77666666Y-91759695D02*
X77666666Y-90959695D01*
X77666666Y-90959695D02*
X77971428Y-90959695D01*
X77971428Y-90959695D02*
X78047618Y-90997790D01*
X78047618Y-90997790D02*
X78085713Y-91035885D01*
X78085713Y-91035885D02*
X78123809Y-91112076D01*
X78123809Y-91112076D02*
X78123809Y-91226361D01*
X78123809Y-91226361D02*
X78085713Y-91302552D01*
X78085713Y-91302552D02*
X78047618Y-91340647D01*
X78047618Y-91340647D02*
X77971428Y-91378742D01*
X77971428Y-91378742D02*
X77666666Y-91378742D01*
X78390475Y-90959695D02*
X78580951Y-91759695D01*
X78580951Y-91759695D02*
X78733332Y-91188266D01*
X78733332Y-91188266D02*
X78885713Y-91759695D01*
X78885713Y-91759695D02*
X79076190Y-90959695D01*
X79380952Y-91759695D02*
X79380952Y-90959695D01*
X79380952Y-90959695D02*
X79647618Y-91531123D01*
X79647618Y-91531123D02*
X79914285Y-90959695D01*
X79914285Y-90959695D02*
X79914285Y-91759695D01*
X84200000Y-91340647D02*
X83933334Y-91340647D01*
X83933334Y-91759695D02*
X83933334Y-90959695D01*
X83933334Y-90959695D02*
X84314286Y-90959695D01*
X84580952Y-91531123D02*
X84961905Y-91531123D01*
X84504762Y-91759695D02*
X84771429Y-90959695D01*
X84771429Y-90959695D02*
X85038095Y-91759695D01*
X85304762Y-91759695D02*
X85304762Y-90959695D01*
X85304762Y-90959695D02*
X85761905Y-91759695D01*
X85761905Y-91759695D02*
X85761905Y-90959695D01*
X86104761Y-91035885D02*
X86142857Y-90997790D01*
X86142857Y-90997790D02*
X86219047Y-90959695D01*
X86219047Y-90959695D02*
X86409523Y-90959695D01*
X86409523Y-90959695D02*
X86485714Y-90997790D01*
X86485714Y-90997790D02*
X86523809Y-91035885D01*
X86523809Y-91035885D02*
X86561904Y-91112076D01*
X86561904Y-91112076D02*
X86561904Y-91188266D01*
X86561904Y-91188266D02*
X86523809Y-91302552D01*
X86523809Y-91302552D02*
X86066666Y-91759695D01*
X86066666Y-91759695D02*
X86561904Y-91759695D01*
X86714286Y-91835885D02*
X87323809Y-91835885D01*
X87400000Y-90959695D02*
X87857143Y-90959695D01*
X87628571Y-91759695D02*
X87628571Y-90959695D01*
X88085714Y-91531123D02*
X88466667Y-91531123D01*
X88009524Y-91759695D02*
X88276191Y-90959695D01*
X88276191Y-90959695D02*
X88542857Y-91759695D01*
X89266667Y-91683504D02*
X89228571Y-91721600D01*
X89228571Y-91721600D02*
X89114286Y-91759695D01*
X89114286Y-91759695D02*
X89038095Y-91759695D01*
X89038095Y-91759695D02*
X88923809Y-91721600D01*
X88923809Y-91721600D02*
X88847619Y-91645409D01*
X88847619Y-91645409D02*
X88809524Y-91569219D01*
X88809524Y-91569219D02*
X88771428Y-91416838D01*
X88771428Y-91416838D02*
X88771428Y-91302552D01*
X88771428Y-91302552D02*
X88809524Y-91150171D01*
X88809524Y-91150171D02*
X88847619Y-91073980D01*
X88847619Y-91073980D02*
X88923809Y-90997790D01*
X88923809Y-90997790D02*
X89038095Y-90959695D01*
X89038095Y-90959695D02*
X89114286Y-90959695D01*
X89114286Y-90959695D02*
X89228571Y-90997790D01*
X89228571Y-90997790D02*
X89266667Y-91035885D01*
X89609524Y-91759695D02*
X89609524Y-90959695D01*
X89609524Y-91340647D02*
X90066667Y-91340647D01*
X90066667Y-91759695D02*
X90066667Y-90959695D01*
X92352380Y-91340647D02*
X92085714Y-91340647D01*
X92085714Y-91759695D02*
X92085714Y-90959695D01*
X92085714Y-90959695D02*
X92466666Y-90959695D01*
X92733332Y-91531123D02*
X93114285Y-91531123D01*
X92657142Y-91759695D02*
X92923809Y-90959695D01*
X92923809Y-90959695D02*
X93190475Y-91759695D01*
X93457142Y-91759695D02*
X93457142Y-90959695D01*
X93457142Y-90959695D02*
X93914285Y-91759695D01*
X93914285Y-91759695D02*
X93914285Y-90959695D01*
X94219046Y-90959695D02*
X94714284Y-90959695D01*
X94714284Y-90959695D02*
X94447618Y-91264457D01*
X94447618Y-91264457D02*
X94561903Y-91264457D01*
X94561903Y-91264457D02*
X94638094Y-91302552D01*
X94638094Y-91302552D02*
X94676189Y-91340647D01*
X94676189Y-91340647D02*
X94714284Y-91416838D01*
X94714284Y-91416838D02*
X94714284Y-91607314D01*
X94714284Y-91607314D02*
X94676189Y-91683504D01*
X94676189Y-91683504D02*
X94638094Y-91721600D01*
X94638094Y-91721600D02*
X94561903Y-91759695D01*
X94561903Y-91759695D02*
X94333332Y-91759695D01*
X94333332Y-91759695D02*
X94257141Y-91721600D01*
X94257141Y-91721600D02*
X94219046Y-91683504D01*
X94866666Y-91835885D02*
X95476189Y-91835885D01*
X95666666Y-91759695D02*
X95666666Y-90959695D01*
X95666666Y-90959695D02*
X95971428Y-90959695D01*
X95971428Y-90959695D02*
X96047618Y-90997790D01*
X96047618Y-90997790D02*
X96085713Y-91035885D01*
X96085713Y-91035885D02*
X96123809Y-91112076D01*
X96123809Y-91112076D02*
X96123809Y-91226361D01*
X96123809Y-91226361D02*
X96085713Y-91302552D01*
X96085713Y-91302552D02*
X96047618Y-91340647D01*
X96047618Y-91340647D02*
X95971428Y-91378742D01*
X95971428Y-91378742D02*
X95666666Y-91378742D01*
X96390475Y-90959695D02*
X96580951Y-91759695D01*
X96580951Y-91759695D02*
X96733332Y-91188266D01*
X96733332Y-91188266D02*
X96885713Y-91759695D01*
X96885713Y-91759695D02*
X97076190Y-90959695D01*
X97380952Y-91759695D02*
X97380952Y-90959695D01*
X97380952Y-90959695D02*
X97647618Y-91531123D01*
X97647618Y-91531123D02*
X97914285Y-90959695D01*
X97914285Y-90959695D02*
X97914285Y-91759695D01*
X102200000Y-91340647D02*
X101933334Y-91340647D01*
X101933334Y-91759695D02*
X101933334Y-90959695D01*
X101933334Y-90959695D02*
X102314286Y-90959695D01*
X102580952Y-91531123D02*
X102961905Y-91531123D01*
X102504762Y-91759695D02*
X102771429Y-90959695D01*
X102771429Y-90959695D02*
X103038095Y-91759695D01*
X103304762Y-91759695D02*
X103304762Y-90959695D01*
X103304762Y-90959695D02*
X103761905Y-91759695D01*
X103761905Y-91759695D02*
X103761905Y-90959695D01*
X104066666Y-90959695D02*
X104561904Y-90959695D01*
X104561904Y-90959695D02*
X104295238Y-91264457D01*
X104295238Y-91264457D02*
X104409523Y-91264457D01*
X104409523Y-91264457D02*
X104485714Y-91302552D01*
X104485714Y-91302552D02*
X104523809Y-91340647D01*
X104523809Y-91340647D02*
X104561904Y-91416838D01*
X104561904Y-91416838D02*
X104561904Y-91607314D01*
X104561904Y-91607314D02*
X104523809Y-91683504D01*
X104523809Y-91683504D02*
X104485714Y-91721600D01*
X104485714Y-91721600D02*
X104409523Y-91759695D01*
X104409523Y-91759695D02*
X104180952Y-91759695D01*
X104180952Y-91759695D02*
X104104761Y-91721600D01*
X104104761Y-91721600D02*
X104066666Y-91683504D01*
X104714286Y-91835885D02*
X105323809Y-91835885D01*
X105400000Y-90959695D02*
X105857143Y-90959695D01*
X105628571Y-91759695D02*
X105628571Y-90959695D01*
X106085714Y-91531123D02*
X106466667Y-91531123D01*
X106009524Y-91759695D02*
X106276191Y-90959695D01*
X106276191Y-90959695D02*
X106542857Y-91759695D01*
X107266667Y-91683504D02*
X107228571Y-91721600D01*
X107228571Y-91721600D02*
X107114286Y-91759695D01*
X107114286Y-91759695D02*
X107038095Y-91759695D01*
X107038095Y-91759695D02*
X106923809Y-91721600D01*
X106923809Y-91721600D02*
X106847619Y-91645409D01*
X106847619Y-91645409D02*
X106809524Y-91569219D01*
X106809524Y-91569219D02*
X106771428Y-91416838D01*
X106771428Y-91416838D02*
X106771428Y-91302552D01*
X106771428Y-91302552D02*
X106809524Y-91150171D01*
X106809524Y-91150171D02*
X106847619Y-91073980D01*
X106847619Y-91073980D02*
X106923809Y-90997790D01*
X106923809Y-90997790D02*
X107038095Y-90959695D01*
X107038095Y-90959695D02*
X107114286Y-90959695D01*
X107114286Y-90959695D02*
X107228571Y-90997790D01*
X107228571Y-90997790D02*
X107266667Y-91035885D01*
X107609524Y-91759695D02*
X107609524Y-90959695D01*
X107609524Y-91340647D02*
X108066667Y-91340647D01*
X108066667Y-91759695D02*
X108066667Y-90959695D01*
X110352380Y-91340647D02*
X110085714Y-91340647D01*
X110085714Y-91759695D02*
X110085714Y-90959695D01*
X110085714Y-90959695D02*
X110466666Y-90959695D01*
X110733332Y-91531123D02*
X111114285Y-91531123D01*
X110657142Y-91759695D02*
X110923809Y-90959695D01*
X110923809Y-90959695D02*
X111190475Y-91759695D01*
X111457142Y-91759695D02*
X111457142Y-90959695D01*
X111457142Y-90959695D02*
X111914285Y-91759695D01*
X111914285Y-91759695D02*
X111914285Y-90959695D01*
X112638094Y-91226361D02*
X112638094Y-91759695D01*
X112447618Y-90921600D02*
X112257141Y-91493028D01*
X112257141Y-91493028D02*
X112752380Y-91493028D01*
X112866666Y-91835885D02*
X113476189Y-91835885D01*
X113666666Y-91759695D02*
X113666666Y-90959695D01*
X113666666Y-90959695D02*
X113971428Y-90959695D01*
X113971428Y-90959695D02*
X114047618Y-90997790D01*
X114047618Y-90997790D02*
X114085713Y-91035885D01*
X114085713Y-91035885D02*
X114123809Y-91112076D01*
X114123809Y-91112076D02*
X114123809Y-91226361D01*
X114123809Y-91226361D02*
X114085713Y-91302552D01*
X114085713Y-91302552D02*
X114047618Y-91340647D01*
X114047618Y-91340647D02*
X113971428Y-91378742D01*
X113971428Y-91378742D02*
X113666666Y-91378742D01*
X114390475Y-90959695D02*
X114580951Y-91759695D01*
X114580951Y-91759695D02*
X114733332Y-91188266D01*
X114733332Y-91188266D02*
X114885713Y-91759695D01*
X114885713Y-91759695D02*
X115076190Y-90959695D01*
X115380952Y-91759695D02*
X115380952Y-90959695D01*
X115380952Y-90959695D02*
X115647618Y-91531123D01*
X115647618Y-91531123D02*
X115914285Y-90959695D01*
X115914285Y-90959695D02*
X115914285Y-91759695D01*
X120200000Y-91340647D02*
X119933334Y-91340647D01*
X119933334Y-91759695D02*
X119933334Y-90959695D01*
X119933334Y-90959695D02*
X120314286Y-90959695D01*
X120580952Y-91531123D02*
X120961905Y-91531123D01*
X120504762Y-91759695D02*
X120771429Y-90959695D01*
X120771429Y-90959695D02*
X121038095Y-91759695D01*
X121304762Y-91759695D02*
X121304762Y-90959695D01*
X121304762Y-90959695D02*
X121761905Y-91759695D01*
X121761905Y-91759695D02*
X121761905Y-90959695D01*
X122485714Y-91226361D02*
X122485714Y-91759695D01*
X122295238Y-90921600D02*
X122104761Y-91493028D01*
X122104761Y-91493028D02*
X122600000Y-91493028D01*
X122714286Y-91835885D02*
X123323809Y-91835885D01*
X123400000Y-90959695D02*
X123857143Y-90959695D01*
X123628571Y-91759695D02*
X123628571Y-90959695D01*
X124085714Y-91531123D02*
X124466667Y-91531123D01*
X124009524Y-91759695D02*
X124276191Y-90959695D01*
X124276191Y-90959695D02*
X124542857Y-91759695D01*
X125266667Y-91683504D02*
X125228571Y-91721600D01*
X125228571Y-91721600D02*
X125114286Y-91759695D01*
X125114286Y-91759695D02*
X125038095Y-91759695D01*
X125038095Y-91759695D02*
X124923809Y-91721600D01*
X124923809Y-91721600D02*
X124847619Y-91645409D01*
X124847619Y-91645409D02*
X124809524Y-91569219D01*
X124809524Y-91569219D02*
X124771428Y-91416838D01*
X124771428Y-91416838D02*
X124771428Y-91302552D01*
X124771428Y-91302552D02*
X124809524Y-91150171D01*
X124809524Y-91150171D02*
X124847619Y-91073980D01*
X124847619Y-91073980D02*
X124923809Y-90997790D01*
X124923809Y-90997790D02*
X125038095Y-90959695D01*
X125038095Y-90959695D02*
X125114286Y-90959695D01*
X125114286Y-90959695D02*
X125228571Y-90997790D01*
X125228571Y-90997790D02*
X125266667Y-91035885D01*
X125609524Y-91759695D02*
X125609524Y-90959695D01*
X125609524Y-91340647D02*
X126066667Y-91340647D01*
X126066667Y-91759695D02*
X126066667Y-90959695D01*
X58042856Y-92934528D02*
X57742856Y-92934528D01*
X57742856Y-93405957D02*
X57742856Y-92505957D01*
X57742856Y-92505957D02*
X58171428Y-92505957D01*
X58471428Y-93148814D02*
X58900000Y-93148814D01*
X58385714Y-93405957D02*
X58685714Y-92505957D01*
X58685714Y-92505957D02*
X58985714Y-93405957D01*
X59285714Y-93405957D02*
X59285714Y-92505957D01*
X59285714Y-92505957D02*
X59800000Y-93405957D01*
X59800000Y-93405957D02*
X59800000Y-92505957D01*
X60700000Y-93405957D02*
X60185714Y-93405957D01*
X60442857Y-93405957D02*
X60442857Y-92505957D01*
X60442857Y-92505957D02*
X60357143Y-92634528D01*
X60357143Y-92634528D02*
X60271428Y-92720242D01*
X60271428Y-92720242D02*
X60185714Y-92763100D01*
X62242857Y-93405957D02*
X61728571Y-93405957D01*
X61985714Y-93405957D02*
X61985714Y-92505957D01*
X61985714Y-92505957D02*
X61900000Y-92634528D01*
X61900000Y-92634528D02*
X61814285Y-92720242D01*
X61814285Y-92720242D02*
X61728571Y-92763100D01*
X63100000Y-92548814D02*
X63014286Y-92505957D01*
X63014286Y-92505957D02*
X62885714Y-92505957D01*
X62885714Y-92505957D02*
X62757143Y-92548814D01*
X62757143Y-92548814D02*
X62671428Y-92634528D01*
X62671428Y-92634528D02*
X62628571Y-92720242D01*
X62628571Y-92720242D02*
X62585714Y-92891671D01*
X62585714Y-92891671D02*
X62585714Y-93020242D01*
X62585714Y-93020242D02*
X62628571Y-93191671D01*
X62628571Y-93191671D02*
X62671428Y-93277385D01*
X62671428Y-93277385D02*
X62757143Y-93363100D01*
X62757143Y-93363100D02*
X62885714Y-93405957D01*
X62885714Y-93405957D02*
X62971428Y-93405957D01*
X62971428Y-93405957D02*
X63100000Y-93363100D01*
X63100000Y-93363100D02*
X63142857Y-93320242D01*
X63142857Y-93320242D02*
X63142857Y-93020242D01*
X63142857Y-93020242D02*
X62971428Y-93020242D01*
X64171428Y-92591671D02*
X64214285Y-92548814D01*
X64214285Y-92548814D02*
X64300000Y-92505957D01*
X64300000Y-92505957D02*
X64514285Y-92505957D01*
X64514285Y-92505957D02*
X64600000Y-92548814D01*
X64600000Y-92548814D02*
X64642857Y-92591671D01*
X64642857Y-92591671D02*
X64685714Y-92677385D01*
X64685714Y-92677385D02*
X64685714Y-92763100D01*
X64685714Y-92763100D02*
X64642857Y-92891671D01*
X64642857Y-92891671D02*
X64128571Y-93405957D01*
X64128571Y-93405957D02*
X64685714Y-93405957D01*
X64942857Y-92505957D02*
X65242857Y-93405957D01*
X65242857Y-93405957D02*
X65542857Y-92505957D01*
X66442857Y-92505957D02*
X67000000Y-92505957D01*
X67000000Y-92505957D02*
X66700000Y-92848814D01*
X66700000Y-92848814D02*
X66828571Y-92848814D01*
X66828571Y-92848814D02*
X66914286Y-92891671D01*
X66914286Y-92891671D02*
X66957143Y-92934528D01*
X66957143Y-92934528D02*
X67000000Y-93020242D01*
X67000000Y-93020242D02*
X67000000Y-93234528D01*
X67000000Y-93234528D02*
X66957143Y-93320242D01*
X66957143Y-93320242D02*
X66914286Y-93363100D01*
X66914286Y-93363100D02*
X66828571Y-93405957D01*
X66828571Y-93405957D02*
X66571428Y-93405957D01*
X66571428Y-93405957D02*
X66485714Y-93363100D01*
X66485714Y-93363100D02*
X66442857Y-93320242D01*
X67342857Y-93363100D02*
X67471429Y-93405957D01*
X67471429Y-93405957D02*
X67685714Y-93405957D01*
X67685714Y-93405957D02*
X67771429Y-93363100D01*
X67771429Y-93363100D02*
X67814286Y-93320242D01*
X67814286Y-93320242D02*
X67857143Y-93234528D01*
X67857143Y-93234528D02*
X67857143Y-93148814D01*
X67857143Y-93148814D02*
X67814286Y-93063100D01*
X67814286Y-93063100D02*
X67771429Y-93020242D01*
X67771429Y-93020242D02*
X67685714Y-92977385D01*
X67685714Y-92977385D02*
X67514286Y-92934528D01*
X67514286Y-92934528D02*
X67428571Y-92891671D01*
X67428571Y-92891671D02*
X67385714Y-92848814D01*
X67385714Y-92848814D02*
X67342857Y-92763100D01*
X67342857Y-92763100D02*
X67342857Y-92677385D01*
X67342857Y-92677385D02*
X67385714Y-92591671D01*
X67385714Y-92591671D02*
X67428571Y-92548814D01*
X67428571Y-92548814D02*
X67514286Y-92505957D01*
X67514286Y-92505957D02*
X67728571Y-92505957D01*
X67728571Y-92505957D02*
X67857143Y-92548814D01*
X69314286Y-92805957D02*
X69314286Y-93405957D01*
X69100000Y-92463100D02*
X68885714Y-93105957D01*
X68885714Y-93105957D02*
X69442857Y-93105957D01*
X70300000Y-93320242D02*
X70257143Y-93363100D01*
X70257143Y-93363100D02*
X70128571Y-93405957D01*
X70128571Y-93405957D02*
X70042857Y-93405957D01*
X70042857Y-93405957D02*
X69914286Y-93363100D01*
X69914286Y-93363100D02*
X69828571Y-93277385D01*
X69828571Y-93277385D02*
X69785714Y-93191671D01*
X69785714Y-93191671D02*
X69742857Y-93020242D01*
X69742857Y-93020242D02*
X69742857Y-92891671D01*
X69742857Y-92891671D02*
X69785714Y-92720242D01*
X69785714Y-92720242D02*
X69828571Y-92634528D01*
X69828571Y-92634528D02*
X69914286Y-92548814D01*
X69914286Y-92548814D02*
X70042857Y-92505957D01*
X70042857Y-92505957D02*
X70128571Y-92505957D01*
X70128571Y-92505957D02*
X70257143Y-92548814D01*
X70257143Y-92548814D02*
X70300000Y-92591671D01*
X76042856Y-92934528D02*
X75742856Y-92934528D01*
X75742856Y-93405957D02*
X75742856Y-92505957D01*
X75742856Y-92505957D02*
X76171428Y-92505957D01*
X76471428Y-93148814D02*
X76900000Y-93148814D01*
X76385714Y-93405957D02*
X76685714Y-92505957D01*
X76685714Y-92505957D02*
X76985714Y-93405957D01*
X77285714Y-93405957D02*
X77285714Y-92505957D01*
X77285714Y-92505957D02*
X77800000Y-93405957D01*
X77800000Y-93405957D02*
X77800000Y-92505957D01*
X78185714Y-92591671D02*
X78228571Y-92548814D01*
X78228571Y-92548814D02*
X78314286Y-92505957D01*
X78314286Y-92505957D02*
X78528571Y-92505957D01*
X78528571Y-92505957D02*
X78614286Y-92548814D01*
X78614286Y-92548814D02*
X78657143Y-92591671D01*
X78657143Y-92591671D02*
X78700000Y-92677385D01*
X78700000Y-92677385D02*
X78700000Y-92763100D01*
X78700000Y-92763100D02*
X78657143Y-92891671D01*
X78657143Y-92891671D02*
X78142857Y-93405957D01*
X78142857Y-93405957D02*
X78700000Y-93405957D01*
X80242857Y-93405957D02*
X79728571Y-93405957D01*
X79985714Y-93405957D02*
X79985714Y-92505957D01*
X79985714Y-92505957D02*
X79900000Y-92634528D01*
X79900000Y-92634528D02*
X79814285Y-92720242D01*
X79814285Y-92720242D02*
X79728571Y-92763100D01*
X81100000Y-92548814D02*
X81014286Y-92505957D01*
X81014286Y-92505957D02*
X80885714Y-92505957D01*
X80885714Y-92505957D02*
X80757143Y-92548814D01*
X80757143Y-92548814D02*
X80671428Y-92634528D01*
X80671428Y-92634528D02*
X80628571Y-92720242D01*
X80628571Y-92720242D02*
X80585714Y-92891671D01*
X80585714Y-92891671D02*
X80585714Y-93020242D01*
X80585714Y-93020242D02*
X80628571Y-93191671D01*
X80628571Y-93191671D02*
X80671428Y-93277385D01*
X80671428Y-93277385D02*
X80757143Y-93363100D01*
X80757143Y-93363100D02*
X80885714Y-93405957D01*
X80885714Y-93405957D02*
X80971428Y-93405957D01*
X80971428Y-93405957D02*
X81100000Y-93363100D01*
X81100000Y-93363100D02*
X81142857Y-93320242D01*
X81142857Y-93320242D02*
X81142857Y-93020242D01*
X81142857Y-93020242D02*
X80971428Y-93020242D01*
X82171428Y-92591671D02*
X82214285Y-92548814D01*
X82214285Y-92548814D02*
X82300000Y-92505957D01*
X82300000Y-92505957D02*
X82514285Y-92505957D01*
X82514285Y-92505957D02*
X82600000Y-92548814D01*
X82600000Y-92548814D02*
X82642857Y-92591671D01*
X82642857Y-92591671D02*
X82685714Y-92677385D01*
X82685714Y-92677385D02*
X82685714Y-92763100D01*
X82685714Y-92763100D02*
X82642857Y-92891671D01*
X82642857Y-92891671D02*
X82128571Y-93405957D01*
X82128571Y-93405957D02*
X82685714Y-93405957D01*
X82942857Y-92505957D02*
X83242857Y-93405957D01*
X83242857Y-93405957D02*
X83542857Y-92505957D01*
X84442857Y-92505957D02*
X85000000Y-92505957D01*
X85000000Y-92505957D02*
X84700000Y-92848814D01*
X84700000Y-92848814D02*
X84828571Y-92848814D01*
X84828571Y-92848814D02*
X84914286Y-92891671D01*
X84914286Y-92891671D02*
X84957143Y-92934528D01*
X84957143Y-92934528D02*
X85000000Y-93020242D01*
X85000000Y-93020242D02*
X85000000Y-93234528D01*
X85000000Y-93234528D02*
X84957143Y-93320242D01*
X84957143Y-93320242D02*
X84914286Y-93363100D01*
X84914286Y-93363100D02*
X84828571Y-93405957D01*
X84828571Y-93405957D02*
X84571428Y-93405957D01*
X84571428Y-93405957D02*
X84485714Y-93363100D01*
X84485714Y-93363100D02*
X84442857Y-93320242D01*
X85342857Y-93363100D02*
X85471429Y-93405957D01*
X85471429Y-93405957D02*
X85685714Y-93405957D01*
X85685714Y-93405957D02*
X85771429Y-93363100D01*
X85771429Y-93363100D02*
X85814286Y-93320242D01*
X85814286Y-93320242D02*
X85857143Y-93234528D01*
X85857143Y-93234528D02*
X85857143Y-93148814D01*
X85857143Y-93148814D02*
X85814286Y-93063100D01*
X85814286Y-93063100D02*
X85771429Y-93020242D01*
X85771429Y-93020242D02*
X85685714Y-92977385D01*
X85685714Y-92977385D02*
X85514286Y-92934528D01*
X85514286Y-92934528D02*
X85428571Y-92891671D01*
X85428571Y-92891671D02*
X85385714Y-92848814D01*
X85385714Y-92848814D02*
X85342857Y-92763100D01*
X85342857Y-92763100D02*
X85342857Y-92677385D01*
X85342857Y-92677385D02*
X85385714Y-92591671D01*
X85385714Y-92591671D02*
X85428571Y-92548814D01*
X85428571Y-92548814D02*
X85514286Y-92505957D01*
X85514286Y-92505957D02*
X85728571Y-92505957D01*
X85728571Y-92505957D02*
X85857143Y-92548814D01*
X87314286Y-92805957D02*
X87314286Y-93405957D01*
X87100000Y-92463100D02*
X86885714Y-93105957D01*
X86885714Y-93105957D02*
X87442857Y-93105957D01*
X88300000Y-93320242D02*
X88257143Y-93363100D01*
X88257143Y-93363100D02*
X88128571Y-93405957D01*
X88128571Y-93405957D02*
X88042857Y-93405957D01*
X88042857Y-93405957D02*
X87914286Y-93363100D01*
X87914286Y-93363100D02*
X87828571Y-93277385D01*
X87828571Y-93277385D02*
X87785714Y-93191671D01*
X87785714Y-93191671D02*
X87742857Y-93020242D01*
X87742857Y-93020242D02*
X87742857Y-92891671D01*
X87742857Y-92891671D02*
X87785714Y-92720242D01*
X87785714Y-92720242D02*
X87828571Y-92634528D01*
X87828571Y-92634528D02*
X87914286Y-92548814D01*
X87914286Y-92548814D02*
X88042857Y-92505957D01*
X88042857Y-92505957D02*
X88128571Y-92505957D01*
X88128571Y-92505957D02*
X88257143Y-92548814D01*
X88257143Y-92548814D02*
X88300000Y-92591671D01*
X94042856Y-92934528D02*
X93742856Y-92934528D01*
X93742856Y-93405957D02*
X93742856Y-92505957D01*
X93742856Y-92505957D02*
X94171428Y-92505957D01*
X94471428Y-93148814D02*
X94900000Y-93148814D01*
X94385714Y-93405957D02*
X94685714Y-92505957D01*
X94685714Y-92505957D02*
X94985714Y-93405957D01*
X95285714Y-93405957D02*
X95285714Y-92505957D01*
X95285714Y-92505957D02*
X95800000Y-93405957D01*
X95800000Y-93405957D02*
X95800000Y-92505957D01*
X96142857Y-92505957D02*
X96700000Y-92505957D01*
X96700000Y-92505957D02*
X96400000Y-92848814D01*
X96400000Y-92848814D02*
X96528571Y-92848814D01*
X96528571Y-92848814D02*
X96614286Y-92891671D01*
X96614286Y-92891671D02*
X96657143Y-92934528D01*
X96657143Y-92934528D02*
X96700000Y-93020242D01*
X96700000Y-93020242D02*
X96700000Y-93234528D01*
X96700000Y-93234528D02*
X96657143Y-93320242D01*
X96657143Y-93320242D02*
X96614286Y-93363100D01*
X96614286Y-93363100D02*
X96528571Y-93405957D01*
X96528571Y-93405957D02*
X96271428Y-93405957D01*
X96271428Y-93405957D02*
X96185714Y-93363100D01*
X96185714Y-93363100D02*
X96142857Y-93320242D01*
X98242857Y-93405957D02*
X97728571Y-93405957D01*
X97985714Y-93405957D02*
X97985714Y-92505957D01*
X97985714Y-92505957D02*
X97900000Y-92634528D01*
X97900000Y-92634528D02*
X97814285Y-92720242D01*
X97814285Y-92720242D02*
X97728571Y-92763100D01*
X99100000Y-92548814D02*
X99014286Y-92505957D01*
X99014286Y-92505957D02*
X98885714Y-92505957D01*
X98885714Y-92505957D02*
X98757143Y-92548814D01*
X98757143Y-92548814D02*
X98671428Y-92634528D01*
X98671428Y-92634528D02*
X98628571Y-92720242D01*
X98628571Y-92720242D02*
X98585714Y-92891671D01*
X98585714Y-92891671D02*
X98585714Y-93020242D01*
X98585714Y-93020242D02*
X98628571Y-93191671D01*
X98628571Y-93191671D02*
X98671428Y-93277385D01*
X98671428Y-93277385D02*
X98757143Y-93363100D01*
X98757143Y-93363100D02*
X98885714Y-93405957D01*
X98885714Y-93405957D02*
X98971428Y-93405957D01*
X98971428Y-93405957D02*
X99100000Y-93363100D01*
X99100000Y-93363100D02*
X99142857Y-93320242D01*
X99142857Y-93320242D02*
X99142857Y-93020242D01*
X99142857Y-93020242D02*
X98971428Y-93020242D01*
X100171428Y-92591671D02*
X100214285Y-92548814D01*
X100214285Y-92548814D02*
X100300000Y-92505957D01*
X100300000Y-92505957D02*
X100514285Y-92505957D01*
X100514285Y-92505957D02*
X100600000Y-92548814D01*
X100600000Y-92548814D02*
X100642857Y-92591671D01*
X100642857Y-92591671D02*
X100685714Y-92677385D01*
X100685714Y-92677385D02*
X100685714Y-92763100D01*
X100685714Y-92763100D02*
X100642857Y-92891671D01*
X100642857Y-92891671D02*
X100128571Y-93405957D01*
X100128571Y-93405957D02*
X100685714Y-93405957D01*
X100942857Y-92505957D02*
X101242857Y-93405957D01*
X101242857Y-93405957D02*
X101542857Y-92505957D01*
X102442857Y-92505957D02*
X103000000Y-92505957D01*
X103000000Y-92505957D02*
X102700000Y-92848814D01*
X102700000Y-92848814D02*
X102828571Y-92848814D01*
X102828571Y-92848814D02*
X102914286Y-92891671D01*
X102914286Y-92891671D02*
X102957143Y-92934528D01*
X102957143Y-92934528D02*
X103000000Y-93020242D01*
X103000000Y-93020242D02*
X103000000Y-93234528D01*
X103000000Y-93234528D02*
X102957143Y-93320242D01*
X102957143Y-93320242D02*
X102914286Y-93363100D01*
X102914286Y-93363100D02*
X102828571Y-93405957D01*
X102828571Y-93405957D02*
X102571428Y-93405957D01*
X102571428Y-93405957D02*
X102485714Y-93363100D01*
X102485714Y-93363100D02*
X102442857Y-93320242D01*
X103342857Y-93363100D02*
X103471429Y-93405957D01*
X103471429Y-93405957D02*
X103685714Y-93405957D01*
X103685714Y-93405957D02*
X103771429Y-93363100D01*
X103771429Y-93363100D02*
X103814286Y-93320242D01*
X103814286Y-93320242D02*
X103857143Y-93234528D01*
X103857143Y-93234528D02*
X103857143Y-93148814D01*
X103857143Y-93148814D02*
X103814286Y-93063100D01*
X103814286Y-93063100D02*
X103771429Y-93020242D01*
X103771429Y-93020242D02*
X103685714Y-92977385D01*
X103685714Y-92977385D02*
X103514286Y-92934528D01*
X103514286Y-92934528D02*
X103428571Y-92891671D01*
X103428571Y-92891671D02*
X103385714Y-92848814D01*
X103385714Y-92848814D02*
X103342857Y-92763100D01*
X103342857Y-92763100D02*
X103342857Y-92677385D01*
X103342857Y-92677385D02*
X103385714Y-92591671D01*
X103385714Y-92591671D02*
X103428571Y-92548814D01*
X103428571Y-92548814D02*
X103514286Y-92505957D01*
X103514286Y-92505957D02*
X103728571Y-92505957D01*
X103728571Y-92505957D02*
X103857143Y-92548814D01*
X105314286Y-92805957D02*
X105314286Y-93405957D01*
X105100000Y-92463100D02*
X104885714Y-93105957D01*
X104885714Y-93105957D02*
X105442857Y-93105957D01*
X106300000Y-93320242D02*
X106257143Y-93363100D01*
X106257143Y-93363100D02*
X106128571Y-93405957D01*
X106128571Y-93405957D02*
X106042857Y-93405957D01*
X106042857Y-93405957D02*
X105914286Y-93363100D01*
X105914286Y-93363100D02*
X105828571Y-93277385D01*
X105828571Y-93277385D02*
X105785714Y-93191671D01*
X105785714Y-93191671D02*
X105742857Y-93020242D01*
X105742857Y-93020242D02*
X105742857Y-92891671D01*
X105742857Y-92891671D02*
X105785714Y-92720242D01*
X105785714Y-92720242D02*
X105828571Y-92634528D01*
X105828571Y-92634528D02*
X105914286Y-92548814D01*
X105914286Y-92548814D02*
X106042857Y-92505957D01*
X106042857Y-92505957D02*
X106128571Y-92505957D01*
X106128571Y-92505957D02*
X106257143Y-92548814D01*
X106257143Y-92548814D02*
X106300000Y-92591671D01*
X112042856Y-92934528D02*
X111742856Y-92934528D01*
X111742856Y-93405957D02*
X111742856Y-92505957D01*
X111742856Y-92505957D02*
X112171428Y-92505957D01*
X112471428Y-93148814D02*
X112900000Y-93148814D01*
X112385714Y-93405957D02*
X112685714Y-92505957D01*
X112685714Y-92505957D02*
X112985714Y-93405957D01*
X113285714Y-93405957D02*
X113285714Y-92505957D01*
X113285714Y-92505957D02*
X113800000Y-93405957D01*
X113800000Y-93405957D02*
X113800000Y-92505957D01*
X114614286Y-92805957D02*
X114614286Y-93405957D01*
X114400000Y-92463100D02*
X114185714Y-93105957D01*
X114185714Y-93105957D02*
X114742857Y-93105957D01*
X116242857Y-93405957D02*
X115728571Y-93405957D01*
X115985714Y-93405957D02*
X115985714Y-92505957D01*
X115985714Y-92505957D02*
X115900000Y-92634528D01*
X115900000Y-92634528D02*
X115814285Y-92720242D01*
X115814285Y-92720242D02*
X115728571Y-92763100D01*
X117100000Y-92548814D02*
X117014286Y-92505957D01*
X117014286Y-92505957D02*
X116885714Y-92505957D01*
X116885714Y-92505957D02*
X116757143Y-92548814D01*
X116757143Y-92548814D02*
X116671428Y-92634528D01*
X116671428Y-92634528D02*
X116628571Y-92720242D01*
X116628571Y-92720242D02*
X116585714Y-92891671D01*
X116585714Y-92891671D02*
X116585714Y-93020242D01*
X116585714Y-93020242D02*
X116628571Y-93191671D01*
X116628571Y-93191671D02*
X116671428Y-93277385D01*
X116671428Y-93277385D02*
X116757143Y-93363100D01*
X116757143Y-93363100D02*
X116885714Y-93405957D01*
X116885714Y-93405957D02*
X116971428Y-93405957D01*
X116971428Y-93405957D02*
X117100000Y-93363100D01*
X117100000Y-93363100D02*
X117142857Y-93320242D01*
X117142857Y-93320242D02*
X117142857Y-93020242D01*
X117142857Y-93020242D02*
X116971428Y-93020242D01*
X118171428Y-92591671D02*
X118214285Y-92548814D01*
X118214285Y-92548814D02*
X118300000Y-92505957D01*
X118300000Y-92505957D02*
X118514285Y-92505957D01*
X118514285Y-92505957D02*
X118600000Y-92548814D01*
X118600000Y-92548814D02*
X118642857Y-92591671D01*
X118642857Y-92591671D02*
X118685714Y-92677385D01*
X118685714Y-92677385D02*
X118685714Y-92763100D01*
X118685714Y-92763100D02*
X118642857Y-92891671D01*
X118642857Y-92891671D02*
X118128571Y-93405957D01*
X118128571Y-93405957D02*
X118685714Y-93405957D01*
X118942857Y-92505957D02*
X119242857Y-93405957D01*
X119242857Y-93405957D02*
X119542857Y-92505957D01*
X120442857Y-92505957D02*
X121000000Y-92505957D01*
X121000000Y-92505957D02*
X120700000Y-92848814D01*
X120700000Y-92848814D02*
X120828571Y-92848814D01*
X120828571Y-92848814D02*
X120914286Y-92891671D01*
X120914286Y-92891671D02*
X120957143Y-92934528D01*
X120957143Y-92934528D02*
X121000000Y-93020242D01*
X121000000Y-93020242D02*
X121000000Y-93234528D01*
X121000000Y-93234528D02*
X120957143Y-93320242D01*
X120957143Y-93320242D02*
X120914286Y-93363100D01*
X120914286Y-93363100D02*
X120828571Y-93405957D01*
X120828571Y-93405957D02*
X120571428Y-93405957D01*
X120571428Y-93405957D02*
X120485714Y-93363100D01*
X120485714Y-93363100D02*
X120442857Y-93320242D01*
X121342857Y-93363100D02*
X121471429Y-93405957D01*
X121471429Y-93405957D02*
X121685714Y-93405957D01*
X121685714Y-93405957D02*
X121771429Y-93363100D01*
X121771429Y-93363100D02*
X121814286Y-93320242D01*
X121814286Y-93320242D02*
X121857143Y-93234528D01*
X121857143Y-93234528D02*
X121857143Y-93148814D01*
X121857143Y-93148814D02*
X121814286Y-93063100D01*
X121814286Y-93063100D02*
X121771429Y-93020242D01*
X121771429Y-93020242D02*
X121685714Y-92977385D01*
X121685714Y-92977385D02*
X121514286Y-92934528D01*
X121514286Y-92934528D02*
X121428571Y-92891671D01*
X121428571Y-92891671D02*
X121385714Y-92848814D01*
X121385714Y-92848814D02*
X121342857Y-92763100D01*
X121342857Y-92763100D02*
X121342857Y-92677385D01*
X121342857Y-92677385D02*
X121385714Y-92591671D01*
X121385714Y-92591671D02*
X121428571Y-92548814D01*
X121428571Y-92548814D02*
X121514286Y-92505957D01*
X121514286Y-92505957D02*
X121728571Y-92505957D01*
X121728571Y-92505957D02*
X121857143Y-92548814D01*
X123314286Y-92805957D02*
X123314286Y-93405957D01*
X123100000Y-92463100D02*
X122885714Y-93105957D01*
X122885714Y-93105957D02*
X123442857Y-93105957D01*
X124300000Y-93320242D02*
X124257143Y-93363100D01*
X124257143Y-93363100D02*
X124128571Y-93405957D01*
X124128571Y-93405957D02*
X124042857Y-93405957D01*
X124042857Y-93405957D02*
X123914286Y-93363100D01*
X123914286Y-93363100D02*
X123828571Y-93277385D01*
X123828571Y-93277385D02*
X123785714Y-93191671D01*
X123785714Y-93191671D02*
X123742857Y-93020242D01*
X123742857Y-93020242D02*
X123742857Y-92891671D01*
X123742857Y-92891671D02*
X123785714Y-92720242D01*
X123785714Y-92720242D02*
X123828571Y-92634528D01*
X123828571Y-92634528D02*
X123914286Y-92548814D01*
X123914286Y-92548814D02*
X124042857Y-92505957D01*
X124042857Y-92505957D02*
X124128571Y-92505957D01*
X124128571Y-92505957D02*
X124257143Y-92548814D01*
X124257143Y-92548814D02*
X124300000Y-92591671D01*
X42238095Y-95052219D02*
X41666667Y-95052219D01*
X41952381Y-95052219D02*
X41952381Y-94052219D01*
X41952381Y-94052219D02*
X41857143Y-94195076D01*
X41857143Y-94195076D02*
X41761905Y-94290314D01*
X41761905Y-94290314D02*
X41666667Y-94337933D01*
X42619048Y-94147457D02*
X42666667Y-94099838D01*
X42666667Y-94099838D02*
X42761905Y-94052219D01*
X42761905Y-94052219D02*
X43000000Y-94052219D01*
X43000000Y-94052219D02*
X43095238Y-94099838D01*
X43095238Y-94099838D02*
X43142857Y-94147457D01*
X43142857Y-94147457D02*
X43190476Y-94242695D01*
X43190476Y-94242695D02*
X43190476Y-94337933D01*
X43190476Y-94337933D02*
X43142857Y-94480790D01*
X43142857Y-94480790D02*
X42571429Y-95052219D01*
X42571429Y-95052219D02*
X43190476Y-95052219D01*
X43476191Y-94052219D02*
X43809524Y-95052219D01*
X43809524Y-95052219D02*
X44142857Y-94052219D01*
X45238096Y-95052219D02*
X45238096Y-94052219D01*
X45714286Y-95052219D02*
X45714286Y-94052219D01*
X45714286Y-94052219D02*
X46285714Y-95052219D01*
X46285714Y-95052219D02*
X46285714Y-94052219D01*
X97142857Y-38604600D02*
X97285714Y-38652219D01*
X97285714Y-38652219D02*
X97523809Y-38652219D01*
X97523809Y-38652219D02*
X97619047Y-38604600D01*
X97619047Y-38604600D02*
X97666666Y-38556980D01*
X97666666Y-38556980D02*
X97714285Y-38461742D01*
X97714285Y-38461742D02*
X97714285Y-38366504D01*
X97714285Y-38366504D02*
X97666666Y-38271266D01*
X97666666Y-38271266D02*
X97619047Y-38223647D01*
X97619047Y-38223647D02*
X97523809Y-38176028D01*
X97523809Y-38176028D02*
X97333333Y-38128409D01*
X97333333Y-38128409D02*
X97238095Y-38080790D01*
X97238095Y-38080790D02*
X97190476Y-38033171D01*
X97190476Y-38033171D02*
X97142857Y-37937933D01*
X97142857Y-37937933D02*
X97142857Y-37842695D01*
X97142857Y-37842695D02*
X97190476Y-37747457D01*
X97190476Y-37747457D02*
X97238095Y-37699838D01*
X97238095Y-37699838D02*
X97333333Y-37652219D01*
X97333333Y-37652219D02*
X97571428Y-37652219D01*
X97571428Y-37652219D02*
X97714285Y-37699838D01*
X98047619Y-37652219D02*
X98285714Y-38652219D01*
X98285714Y-38652219D02*
X98476190Y-37937933D01*
X98476190Y-37937933D02*
X98666666Y-38652219D01*
X98666666Y-38652219D02*
X98904762Y-37652219D01*
X99285714Y-38652219D02*
X99285714Y-37652219D01*
X99285714Y-37652219D02*
X99523809Y-37652219D01*
X99523809Y-37652219D02*
X99666666Y-37699838D01*
X99666666Y-37699838D02*
X99761904Y-37795076D01*
X99761904Y-37795076D02*
X99809523Y-37890314D01*
X99809523Y-37890314D02*
X99857142Y-38080790D01*
X99857142Y-38080790D02*
X99857142Y-38223647D01*
X99857142Y-38223647D02*
X99809523Y-38414123D01*
X99809523Y-38414123D02*
X99761904Y-38509361D01*
X99761904Y-38509361D02*
X99666666Y-38604600D01*
X99666666Y-38604600D02*
X99523809Y-38652219D01*
X99523809Y-38652219D02*
X99285714Y-38652219D01*
X111333333Y-38652219D02*
X111333333Y-37652219D01*
X111333333Y-38128409D02*
X111904761Y-38128409D01*
X111904761Y-38652219D02*
X111904761Y-37652219D01*
X112571428Y-37652219D02*
X112761904Y-37652219D01*
X112761904Y-37652219D02*
X112857142Y-37699838D01*
X112857142Y-37699838D02*
X112952380Y-37795076D01*
X112952380Y-37795076D02*
X112999999Y-37985552D01*
X112999999Y-37985552D02*
X112999999Y-38318885D01*
X112999999Y-38318885D02*
X112952380Y-38509361D01*
X112952380Y-38509361D02*
X112857142Y-38604600D01*
X112857142Y-38604600D02*
X112761904Y-38652219D01*
X112761904Y-38652219D02*
X112571428Y-38652219D01*
X112571428Y-38652219D02*
X112476190Y-38604600D01*
X112476190Y-38604600D02*
X112380952Y-38509361D01*
X112380952Y-38509361D02*
X112333333Y-38318885D01*
X112333333Y-38318885D02*
X112333333Y-37985552D01*
X112333333Y-37985552D02*
X112380952Y-37795076D01*
X112380952Y-37795076D02*
X112476190Y-37699838D01*
X112476190Y-37699838D02*
X112571428Y-37652219D01*
X113380952Y-38604600D02*
X113523809Y-38652219D01*
X113523809Y-38652219D02*
X113761904Y-38652219D01*
X113761904Y-38652219D02*
X113857142Y-38604600D01*
X113857142Y-38604600D02*
X113904761Y-38556980D01*
X113904761Y-38556980D02*
X113952380Y-38461742D01*
X113952380Y-38461742D02*
X113952380Y-38366504D01*
X113952380Y-38366504D02*
X113904761Y-38271266D01*
X113904761Y-38271266D02*
X113857142Y-38223647D01*
X113857142Y-38223647D02*
X113761904Y-38176028D01*
X113761904Y-38176028D02*
X113571428Y-38128409D01*
X113571428Y-38128409D02*
X113476190Y-38080790D01*
X113476190Y-38080790D02*
X113428571Y-38033171D01*
X113428571Y-38033171D02*
X113380952Y-37937933D01*
X113380952Y-37937933D02*
X113380952Y-37842695D01*
X113380952Y-37842695D02*
X113428571Y-37747457D01*
X113428571Y-37747457D02*
X113476190Y-37699838D01*
X113476190Y-37699838D02*
X113571428Y-37652219D01*
X113571428Y-37652219D02*
X113809523Y-37652219D01*
X113809523Y-37652219D02*
X113952380Y-37699838D01*
X114238095Y-37652219D02*
X114809523Y-37652219D01*
X114523809Y-38652219D02*
X114523809Y-37652219D01*
X66742856Y-37044742D02*
X66057142Y-37044742D01*
X66399999Y-37044742D02*
X66399999Y-35844742D01*
X66399999Y-35844742D02*
X66285713Y-36016171D01*
X66285713Y-36016171D02*
X66171428Y-36130457D01*
X66171428Y-36130457D02*
X66057142Y-36187600D01*
X67199999Y-35959028D02*
X67257142Y-35901885D01*
X67257142Y-35901885D02*
X67371428Y-35844742D01*
X67371428Y-35844742D02*
X67657142Y-35844742D01*
X67657142Y-35844742D02*
X67771428Y-35901885D01*
X67771428Y-35901885D02*
X67828570Y-35959028D01*
X67828570Y-35959028D02*
X67885713Y-36073314D01*
X67885713Y-36073314D02*
X67885713Y-36187600D01*
X67885713Y-36187600D02*
X67828570Y-36359028D01*
X67828570Y-36359028D02*
X67142856Y-37044742D01*
X67142856Y-37044742D02*
X67885713Y-37044742D01*
X68228570Y-35844742D02*
X68628570Y-37044742D01*
X68628570Y-37044742D02*
X69028570Y-35844742D01*
X70342856Y-37044742D02*
X70342856Y-35844742D01*
X70914285Y-37044742D02*
X70914285Y-35844742D01*
X70914285Y-35844742D02*
X71599999Y-37044742D01*
X71599999Y-37044742D02*
X71599999Y-35844742D01*
X73714285Y-37044742D02*
X73028571Y-37044742D01*
X73371428Y-37044742D02*
X73371428Y-35844742D01*
X73371428Y-35844742D02*
X73257142Y-36016171D01*
X73257142Y-36016171D02*
X73142857Y-36130457D01*
X73142857Y-36130457D02*
X73028571Y-36187600D01*
X74857142Y-37044742D02*
X74171428Y-37044742D01*
X74514285Y-37044742D02*
X74514285Y-35844742D01*
X74514285Y-35844742D02*
X74399999Y-36016171D01*
X74399999Y-36016171D02*
X74285714Y-36130457D01*
X74285714Y-36130457D02*
X74171428Y-36187600D01*
X75371428Y-36930457D02*
X75428571Y-36987600D01*
X75428571Y-36987600D02*
X75371428Y-37044742D01*
X75371428Y-37044742D02*
X75314285Y-36987600D01*
X75314285Y-36987600D02*
X75371428Y-36930457D01*
X75371428Y-36930457D02*
X75371428Y-37044742D01*
X76000000Y-37044742D02*
X76228571Y-37044742D01*
X76228571Y-37044742D02*
X76342857Y-36987600D01*
X76342857Y-36987600D02*
X76400000Y-36930457D01*
X76400000Y-36930457D02*
X76514285Y-36759028D01*
X76514285Y-36759028D02*
X76571428Y-36530457D01*
X76571428Y-36530457D02*
X76571428Y-36073314D01*
X76571428Y-36073314D02*
X76514285Y-35959028D01*
X76514285Y-35959028D02*
X76457143Y-35901885D01*
X76457143Y-35901885D02*
X76342857Y-35844742D01*
X76342857Y-35844742D02*
X76114285Y-35844742D01*
X76114285Y-35844742D02*
X76000000Y-35901885D01*
X76000000Y-35901885D02*
X75942857Y-35959028D01*
X75942857Y-35959028D02*
X75885714Y-36073314D01*
X75885714Y-36073314D02*
X75885714Y-36359028D01*
X75885714Y-36359028D02*
X75942857Y-36473314D01*
X75942857Y-36473314D02*
X76000000Y-36530457D01*
X76000000Y-36530457D02*
X76114285Y-36587600D01*
X76114285Y-36587600D02*
X76342857Y-36587600D01*
X76342857Y-36587600D02*
X76457143Y-36530457D01*
X76457143Y-36530457D02*
X76514285Y-36473314D01*
X76514285Y-36473314D02*
X76571428Y-36359028D01*
X77085714Y-36587600D02*
X78000000Y-36587600D01*
X79199999Y-37044742D02*
X78514285Y-37044742D01*
X78857142Y-37044742D02*
X78857142Y-35844742D01*
X78857142Y-35844742D02*
X78742856Y-36016171D01*
X78742856Y-36016171D02*
X78628571Y-36130457D01*
X78628571Y-36130457D02*
X78514285Y-36187600D01*
X79657142Y-35959028D02*
X79714285Y-35901885D01*
X79714285Y-35901885D02*
X79828571Y-35844742D01*
X79828571Y-35844742D02*
X80114285Y-35844742D01*
X80114285Y-35844742D02*
X80228571Y-35901885D01*
X80228571Y-35901885D02*
X80285713Y-35959028D01*
X80285713Y-35959028D02*
X80342856Y-36073314D01*
X80342856Y-36073314D02*
X80342856Y-36187600D01*
X80342856Y-36187600D02*
X80285713Y-36359028D01*
X80285713Y-36359028D02*
X79599999Y-37044742D01*
X79599999Y-37044742D02*
X80342856Y-37044742D01*
X80857142Y-36930457D02*
X80914285Y-36987600D01*
X80914285Y-36987600D02*
X80857142Y-37044742D01*
X80857142Y-37044742D02*
X80799999Y-36987600D01*
X80799999Y-36987600D02*
X80857142Y-36930457D01*
X80857142Y-36930457D02*
X80857142Y-37044742D01*
X81942857Y-35844742D02*
X81714285Y-35844742D01*
X81714285Y-35844742D02*
X81599999Y-35901885D01*
X81599999Y-35901885D02*
X81542857Y-35959028D01*
X81542857Y-35959028D02*
X81428571Y-36130457D01*
X81428571Y-36130457D02*
X81371428Y-36359028D01*
X81371428Y-36359028D02*
X81371428Y-36816171D01*
X81371428Y-36816171D02*
X81428571Y-36930457D01*
X81428571Y-36930457D02*
X81485714Y-36987600D01*
X81485714Y-36987600D02*
X81599999Y-37044742D01*
X81599999Y-37044742D02*
X81828571Y-37044742D01*
X81828571Y-37044742D02*
X81942857Y-36987600D01*
X81942857Y-36987600D02*
X81999999Y-36930457D01*
X81999999Y-36930457D02*
X82057142Y-36816171D01*
X82057142Y-36816171D02*
X82057142Y-36530457D01*
X82057142Y-36530457D02*
X81999999Y-36416171D01*
X81999999Y-36416171D02*
X81942857Y-36359028D01*
X81942857Y-36359028D02*
X81828571Y-36301885D01*
X81828571Y-36301885D02*
X81599999Y-36301885D01*
X81599999Y-36301885D02*
X81485714Y-36359028D01*
X81485714Y-36359028D02*
X81428571Y-36416171D01*
X81428571Y-36416171D02*
X81371428Y-36530457D01*
X82399999Y-35844742D02*
X82799999Y-37044742D01*
X82799999Y-37044742D02*
X83199999Y-35844742D01*
X86057142Y-37044742D02*
X85371428Y-37044742D01*
X85714285Y-37044742D02*
X85714285Y-35844742D01*
X85714285Y-35844742D02*
X85599999Y-36016171D01*
X85599999Y-36016171D02*
X85485714Y-36130457D01*
X85485714Y-36130457D02*
X85371428Y-36187600D01*
X86571428Y-36930457D02*
X86628571Y-36987600D01*
X86628571Y-36987600D02*
X86571428Y-37044742D01*
X86571428Y-37044742D02*
X86514285Y-36987600D01*
X86514285Y-36987600D02*
X86571428Y-36930457D01*
X86571428Y-36930457D02*
X86571428Y-37044742D01*
X87371428Y-35844742D02*
X87485714Y-35844742D01*
X87485714Y-35844742D02*
X87600000Y-35901885D01*
X87600000Y-35901885D02*
X87657143Y-35959028D01*
X87657143Y-35959028D02*
X87714285Y-36073314D01*
X87714285Y-36073314D02*
X87771428Y-36301885D01*
X87771428Y-36301885D02*
X87771428Y-36587600D01*
X87771428Y-36587600D02*
X87714285Y-36816171D01*
X87714285Y-36816171D02*
X87657143Y-36930457D01*
X87657143Y-36930457D02*
X87600000Y-36987600D01*
X87600000Y-36987600D02*
X87485714Y-37044742D01*
X87485714Y-37044742D02*
X87371428Y-37044742D01*
X87371428Y-37044742D02*
X87257143Y-36987600D01*
X87257143Y-36987600D02*
X87200000Y-36930457D01*
X87200000Y-36930457D02*
X87142857Y-36816171D01*
X87142857Y-36816171D02*
X87085714Y-36587600D01*
X87085714Y-36587600D02*
X87085714Y-36301885D01*
X87085714Y-36301885D02*
X87142857Y-36073314D01*
X87142857Y-36073314D02*
X87200000Y-35959028D01*
X87200000Y-35959028D02*
X87257143Y-35901885D01*
X87257143Y-35901885D02*
X87371428Y-35844742D01*
X88228571Y-36701885D02*
X88800000Y-36701885D01*
X88114285Y-37044742D02*
X88514285Y-35844742D01*
X88514285Y-35844742D02*
X88914285Y-37044742D01*
X90171428Y-35787600D02*
X89142856Y-37330457D01*
X91257142Y-36930457D02*
X91199999Y-36987600D01*
X91199999Y-36987600D02*
X91028571Y-37044742D01*
X91028571Y-37044742D02*
X90914285Y-37044742D01*
X90914285Y-37044742D02*
X90742856Y-36987600D01*
X90742856Y-36987600D02*
X90628571Y-36873314D01*
X90628571Y-36873314D02*
X90571428Y-36759028D01*
X90571428Y-36759028D02*
X90514285Y-36530457D01*
X90514285Y-36530457D02*
X90514285Y-36359028D01*
X90514285Y-36359028D02*
X90571428Y-36130457D01*
X90571428Y-36130457D02*
X90628571Y-36016171D01*
X90628571Y-36016171D02*
X90742856Y-35901885D01*
X90742856Y-35901885D02*
X90914285Y-35844742D01*
X90914285Y-35844742D02*
X91028571Y-35844742D01*
X91028571Y-35844742D02*
X91199999Y-35901885D01*
X91199999Y-35901885D02*
X91257142Y-35959028D01*
X91771428Y-37044742D02*
X91771428Y-35844742D01*
X91771428Y-36416171D02*
X92457142Y-36416171D01*
X92457142Y-37044742D02*
X92457142Y-35844742D01*
X95371429Y-36244742D02*
X95371429Y-37044742D01*
X95085714Y-35787600D02*
X94800000Y-36644742D01*
X94800000Y-36644742D02*
X95542857Y-36644742D01*
X96685714Y-36930457D02*
X96628571Y-36987600D01*
X96628571Y-36987600D02*
X96457143Y-37044742D01*
X96457143Y-37044742D02*
X96342857Y-37044742D01*
X96342857Y-37044742D02*
X96171428Y-36987600D01*
X96171428Y-36987600D02*
X96057143Y-36873314D01*
X96057143Y-36873314D02*
X96000000Y-36759028D01*
X96000000Y-36759028D02*
X95942857Y-36530457D01*
X95942857Y-36530457D02*
X95942857Y-36359028D01*
X95942857Y-36359028D02*
X96000000Y-36130457D01*
X96000000Y-36130457D02*
X96057143Y-36016171D01*
X96057143Y-36016171D02*
X96171428Y-35901885D01*
X96171428Y-35901885D02*
X96342857Y-35844742D01*
X96342857Y-35844742D02*
X96457143Y-35844742D01*
X96457143Y-35844742D02*
X96628571Y-35901885D01*
X96628571Y-35901885D02*
X96685714Y-35959028D01*
X97200000Y-37044742D02*
X97200000Y-35844742D01*
X97200000Y-36416171D02*
X97885714Y-36416171D01*
X97885714Y-37044742D02*
X97885714Y-35844742D01*
%TO.C,R7*%
D11*
X78462742Y-74977500D02*
X78937258Y-74977500D01*
X78462742Y-76022500D02*
X78937258Y-76022500D01*
%TO.C,D2*%
X66000000Y-72360000D02*
X66000000Y-68350000D01*
X66000000Y-72360000D02*
X68000000Y-72360000D01*
X68000000Y-72360000D02*
X68000000Y-68350000D01*
%TO.C,C3*%
X33562500Y-50152500D02*
X34350000Y-50152500D01*
X33956250Y-49758750D02*
X33956250Y-50546250D01*
X34590000Y-49654437D02*
X34590000Y-50940000D01*
X34590000Y-49654437D02*
X35654437Y-48590000D01*
X34590000Y-54345563D02*
X34590000Y-53060000D01*
X34590000Y-54345563D02*
X35654437Y-55410000D01*
X35654437Y-48590000D02*
X41410000Y-48590000D01*
X35654437Y-55410000D02*
X41410000Y-55410000D01*
X41410000Y-48590000D02*
X41410000Y-50940000D01*
X41410000Y-55410000D02*
X41410000Y-53060000D01*
%TO.C,TP10*%
X87700000Y-89800000D02*
G75*
G02*
X86300000Y-89800000I-700000J0D01*
G01*
X86300000Y-89800000D02*
G75*
G02*
X87700000Y-89800000I700000J0D01*
G01*
%TO.C,C2*%
X52490000Y-69859420D02*
X52490000Y-70140580D01*
X53510000Y-69859420D02*
X53510000Y-70140580D01*
%TO.C,C12*%
X85859420Y-45490000D02*
X86140580Y-45490000D01*
X85859420Y-46510000D02*
X86140580Y-46510000D01*
%TO.C,C7*%
X80490000Y-52140580D02*
X80490000Y-51859420D01*
X81510000Y-52140580D02*
X81510000Y-51859420D01*
%TO.C,R23*%
X75762742Y-86477500D02*
X76237258Y-86477500D01*
X75762742Y-87522500D02*
X76237258Y-87522500D01*
%TO.C,R9*%
X114462742Y-74977500D02*
X114937258Y-74977500D01*
X114462742Y-76022500D02*
X114937258Y-76022500D01*
%TO.C,R31*%
X81762742Y-86477500D02*
X82237258Y-86477500D01*
X81762742Y-87522500D02*
X82237258Y-87522500D01*
%TO.C,D1*%
X42490000Y-74350000D02*
X42490000Y-77650000D01*
X42490000Y-74350000D02*
X48000000Y-74350000D01*
X42490000Y-77650000D02*
X48000000Y-77650000D01*
%TO.C,Q12*%
X99740000Y-78440000D02*
X101260000Y-78440000D01*
X99740000Y-78490000D02*
X99740000Y-78440000D01*
X99740000Y-80390000D02*
X99740000Y-79610000D01*
X99740000Y-81560000D02*
X99740000Y-81510000D01*
X101260000Y-78440000D02*
X101260000Y-79440000D01*
X101260000Y-80560000D02*
X101260000Y-81560000D01*
X101260000Y-81560000D02*
X99740000Y-81560000D01*
X99200000Y-79620000D02*
X99440000Y-79950000D01*
X98960000Y-79950000D01*
X99200000Y-79620000D01*
G36*
X99440000Y-79950000D02*
G01*
X98960000Y-79950000D01*
X99200000Y-79620000D01*
X99440000Y-79950000D01*
G37*
%TO.C,R8*%
X96462742Y-74977500D02*
X96937258Y-74977500D01*
X96462742Y-76022500D02*
X96937258Y-76022500D01*
%TO.C,TP1*%
X35700000Y-66000000D02*
G75*
G02*
X34300000Y-66000000I-700000J0D01*
G01*
X34300000Y-66000000D02*
G75*
G02*
X35700000Y-66000000I700000J0D01*
G01*
%TO.C,TP3*%
X58700000Y-57000000D02*
G75*
G02*
X57300000Y-57000000I-700000J0D01*
G01*
X57300000Y-57000000D02*
G75*
G02*
X58700000Y-57000000I700000J0D01*
G01*
%TO.C,J6*%
X108620000Y-38620000D02*
X110000000Y-38620000D01*
X108620000Y-40000000D02*
X108620000Y-38620000D01*
X108620000Y-41270000D02*
X108620000Y-46460000D01*
X108620000Y-41270000D02*
X111380000Y-41270000D01*
X108620000Y-46460000D02*
X111380000Y-46460000D01*
X111380000Y-41270000D02*
X111380000Y-46460000D01*
%TO.C,R36*%
X103237258Y-86477500D02*
X102762742Y-86477500D01*
X103237258Y-87522500D02*
X102762742Y-87522500D01*
%TO.C,R26*%
X60762742Y-86477500D02*
X61237258Y-86477500D01*
X60762742Y-87522500D02*
X61237258Y-87522500D01*
%TO.C,D8*%
X76140000Y-41500000D02*
X76140000Y-43500000D01*
X76140000Y-41500000D02*
X80150000Y-41500000D01*
X76140000Y-43500000D02*
X80150000Y-43500000D01*
%TO.C,R28*%
X96762742Y-86477500D02*
X97237258Y-86477500D01*
X96762742Y-87522500D02*
X97237258Y-87522500D01*
%TO.C,C10*%
X77859420Y-45490000D02*
X78140580Y-45490000D01*
X77859420Y-46510000D02*
X78140580Y-46510000D01*
%TO.C,Q13*%
X117740000Y-78440000D02*
X119260000Y-78440000D01*
X117740000Y-78490000D02*
X117740000Y-78440000D01*
X117740000Y-80390000D02*
X117740000Y-79610000D01*
X117740000Y-81560000D02*
X117740000Y-81510000D01*
X119260000Y-78440000D02*
X119260000Y-79440000D01*
X119260000Y-80560000D02*
X119260000Y-81560000D01*
X119260000Y-81560000D02*
X117740000Y-81560000D01*
X117200000Y-79620000D02*
X117440000Y-79950000D01*
X116960000Y-79950000D01*
X117200000Y-79620000D01*
G36*
X117440000Y-79950000D02*
G01*
X116960000Y-79950000D01*
X117200000Y-79620000D01*
X117440000Y-79950000D01*
G37*
%TO.C,TP2*%
X54700000Y-57000000D02*
G75*
G02*
X53300000Y-57000000I-700000J0D01*
G01*
X53300000Y-57000000D02*
G75*
G02*
X54700000Y-57000000I700000J0D01*
G01*
%TO.C,R25*%
X111762742Y-86477500D02*
X112237258Y-86477500D01*
X111762742Y-87522500D02*
X112237258Y-87522500D01*
%TO.C,R12*%
X103762742Y-74977500D02*
X104237258Y-74977500D01*
X103762742Y-76022500D02*
X104237258Y-76022500D01*
%TO.C,Q4*%
X98240000Y-68440000D02*
X99760000Y-68440000D01*
X98240000Y-68490000D02*
X98240000Y-68440000D01*
X98240000Y-70390000D02*
X98240000Y-69610000D01*
X98240000Y-71560000D02*
X98240000Y-71510000D01*
X99760000Y-68440000D02*
X99760000Y-69440000D01*
X99760000Y-70560000D02*
X99760000Y-71560000D01*
X99760000Y-71560000D02*
X98240000Y-71560000D01*
X97700000Y-69620000D02*
X97940000Y-69950000D01*
X97460000Y-69950000D01*
X97700000Y-69620000D01*
G36*
X97940000Y-69950000D02*
G01*
X97460000Y-69950000D01*
X97700000Y-69620000D01*
X97940000Y-69950000D01*
G37*
%TO.C,Q11*%
X81740000Y-78440000D02*
X83260000Y-78440000D01*
X81740000Y-78490000D02*
X81740000Y-78440000D01*
X81740000Y-80390000D02*
X81740000Y-79610000D01*
X81740000Y-81560000D02*
X81740000Y-81510000D01*
X83260000Y-78440000D02*
X83260000Y-79440000D01*
X83260000Y-80560000D02*
X83260000Y-81560000D01*
X83260000Y-81560000D02*
X81740000Y-81560000D01*
X81200000Y-79620000D02*
X81440000Y-79950000D01*
X80960000Y-79950000D01*
X81200000Y-79620000D01*
G36*
X81440000Y-79950000D02*
G01*
X80960000Y-79950000D01*
X81200000Y-79620000D01*
X81440000Y-79950000D01*
G37*
%TO.C,R24*%
X93762742Y-86477500D02*
X94237258Y-86477500D01*
X93762742Y-87522500D02*
X94237258Y-87522500D01*
%TO.C,R43*%
X71762742Y-59977500D02*
X72237258Y-59977500D01*
X71762742Y-61022500D02*
X72237258Y-61022500D01*
%TO.C,R39*%
X85762742Y-79477500D02*
X86237258Y-79477500D01*
X85762742Y-80522500D02*
X86237258Y-80522500D01*
%TO.C,Q8*%
X99740000Y-73940000D02*
X101260000Y-73940000D01*
X99740000Y-73990000D02*
X99740000Y-73940000D01*
X99740000Y-75890000D02*
X99740000Y-75110000D01*
X99740000Y-77060000D02*
X99740000Y-77010000D01*
X101260000Y-73940000D02*
X101260000Y-74940000D01*
X101260000Y-76060000D02*
X101260000Y-77060000D01*
X101260000Y-77060000D02*
X99740000Y-77060000D01*
X99200000Y-75120000D02*
X99440000Y-75450000D01*
X98960000Y-75450000D01*
X99200000Y-75120000D01*
G36*
X99440000Y-75450000D02*
G01*
X98960000Y-75450000D01*
X99200000Y-75120000D01*
X99440000Y-75450000D01*
G37*
%TO.C,D13*%
X94550000Y-82300000D02*
X94550000Y-84700000D01*
%TO.C,D7*%
X70640000Y-41500000D02*
X70640000Y-43500000D01*
X70640000Y-41500000D02*
X74650000Y-41500000D01*
X70640000Y-43500000D02*
X74650000Y-43500000D01*
%TO.C,R27*%
X78762742Y-86477500D02*
X79237258Y-86477500D01*
X78762742Y-87522500D02*
X79237258Y-87522500D01*
%TO.C,R19*%
X75162742Y-79477500D02*
X75637258Y-79477500D01*
X75162742Y-80522500D02*
X75637258Y-80522500D01*
%TO.C,TP7*%
X95700000Y-89800000D02*
G75*
G02*
X94300000Y-89800000I-700000J0D01*
G01*
X94300000Y-89800000D02*
G75*
G02*
X95700000Y-89800000I700000J0D01*
G01*
%TO.C,R11*%
X85762742Y-74977500D02*
X86237258Y-74977500D01*
X85762742Y-76022500D02*
X86237258Y-76022500D01*
%TO.C,C11*%
X81859420Y-45490000D02*
X82140580Y-45490000D01*
X81859420Y-46510000D02*
X82140580Y-46510000D01*
%TO.C,R48*%
X97762742Y-44557500D02*
X98237258Y-44557500D01*
X97762742Y-45602500D02*
X98237258Y-45602500D01*
%TO.C,Q5*%
X116240000Y-68440000D02*
X117760000Y-68440000D01*
X116240000Y-68490000D02*
X116240000Y-68440000D01*
X116240000Y-70390000D02*
X116240000Y-69610000D01*
X116240000Y-71560000D02*
X116240000Y-71510000D01*
X117760000Y-68440000D02*
X117760000Y-69440000D01*
X117760000Y-70560000D02*
X117760000Y-71560000D01*
X117760000Y-71560000D02*
X116240000Y-71560000D01*
X115700000Y-69620000D02*
X115940000Y-69950000D01*
X115460000Y-69950000D01*
X115700000Y-69620000D01*
G36*
X115940000Y-69950000D02*
G01*
X115460000Y-69950000D01*
X115700000Y-69620000D01*
X115940000Y-69950000D01*
G37*
%TO.C,TP9*%
X69700000Y-89800000D02*
G75*
G02*
X68300000Y-89800000I-700000J0D01*
G01*
X68300000Y-89800000D02*
G75*
G02*
X69700000Y-89800000I700000J0D01*
G01*
%TO.C,R30*%
X63762742Y-86477500D02*
X64237258Y-86477500D01*
X63762742Y-87522500D02*
X64237258Y-87522500D01*
%TO.C,D18*%
X118550000Y-82300000D02*
X118550000Y-84700000D01*
%TO.C,R37*%
X121237258Y-86477500D02*
X120762742Y-86477500D01*
X121237258Y-87522500D02*
X120762742Y-87522500D01*
%TO.C,TP6*%
X77700000Y-89800000D02*
G75*
G02*
X76300000Y-89800000I-700000J0D01*
G01*
X76300000Y-89800000D02*
G75*
G02*
X77700000Y-89800000I700000J0D01*
G01*
%TO.C,TP5*%
X59700000Y-89800000D02*
G75*
G02*
X58300000Y-89800000I-700000J0D01*
G01*
X58300000Y-89800000D02*
G75*
G02*
X59700000Y-89800000I700000J0D01*
G01*
%TO.C,R49*%
X97762742Y-47097500D02*
X98237258Y-47097500D01*
X97762742Y-48142500D02*
X98237258Y-48142500D01*
%TO.C,R4*%
X93162742Y-74977500D02*
X93637258Y-74977500D01*
X93162742Y-76022500D02*
X93637258Y-76022500D01*
%TO.C,Q3*%
X80240000Y-68440000D02*
X81760000Y-68440000D01*
X80240000Y-68490000D02*
X80240000Y-68440000D01*
X80240000Y-70390000D02*
X80240000Y-69610000D01*
X80240000Y-71560000D02*
X80240000Y-71510000D01*
X81760000Y-68440000D02*
X81760000Y-69440000D01*
X81760000Y-70560000D02*
X81760000Y-71560000D01*
X81760000Y-71560000D02*
X80240000Y-71560000D01*
X79700000Y-69620000D02*
X79940000Y-69950000D01*
X79460000Y-69950000D01*
X79700000Y-69620000D01*
G36*
X79940000Y-69950000D02*
G01*
X79460000Y-69950000D01*
X79700000Y-69620000D01*
X79940000Y-69950000D01*
G37*
%TO.C,R33*%
X117762742Y-86477500D02*
X118237258Y-86477500D01*
X117762742Y-87522500D02*
X118237258Y-87522500D01*
%TO.C,R40*%
X103762742Y-79477500D02*
X104237258Y-79477500D01*
X103762742Y-80522500D02*
X104237258Y-80522500D01*
%TO.C,R22*%
X57762742Y-86477500D02*
X58237258Y-86477500D01*
X57762742Y-87522500D02*
X58237258Y-87522500D01*
%TO.C,R18*%
X57162742Y-79477500D02*
X57637258Y-79477500D01*
X57162742Y-80522500D02*
X57637258Y-80522500D01*
%TO.C,Q2*%
X62240000Y-68440000D02*
X63760000Y-68440000D01*
X62240000Y-68490000D02*
X62240000Y-68440000D01*
X62240000Y-70390000D02*
X62240000Y-69610000D01*
X62240000Y-71560000D02*
X62240000Y-71510000D01*
X63760000Y-68440000D02*
X63760000Y-69440000D01*
X63760000Y-70560000D02*
X63760000Y-71560000D01*
X63760000Y-71560000D02*
X62240000Y-71560000D01*
X61700000Y-69620000D02*
X61940000Y-69950000D01*
X61460000Y-69950000D01*
X61700000Y-69620000D01*
G36*
X61940000Y-69950000D02*
G01*
X61460000Y-69950000D01*
X61700000Y-69620000D01*
X61940000Y-69950000D01*
G37*
%TO.C,D10*%
X87140000Y-41500000D02*
X87140000Y-43500000D01*
X87140000Y-41500000D02*
X91150000Y-41500000D01*
X87140000Y-43500000D02*
X91150000Y-43500000D01*
%TO.C,TP4*%
X73700000Y-92000000D02*
G75*
G02*
X72300000Y-92000000I-700000J0D01*
G01*
X72300000Y-92000000D02*
G75*
G02*
X73700000Y-92000000I700000J0D01*
G01*
%TO.C,D17*%
X100550000Y-82300000D02*
X100550000Y-84700000D01*
%TO.C,D16*%
X82550000Y-82300000D02*
X82550000Y-84700000D01*
%TO.C,R1*%
X37762742Y-70477500D02*
X38237258Y-70477500D01*
X37762742Y-71522500D02*
X38237258Y-71522500D01*
%TO.C,C1*%
X41562500Y-68152500D02*
X42350000Y-68152500D01*
X41956250Y-67758750D02*
X41956250Y-68546250D01*
X42590000Y-67654437D02*
X42590000Y-68940000D01*
X42590000Y-67654437D02*
X43654437Y-66590000D01*
X42590000Y-72345563D02*
X42590000Y-71060000D01*
X42590000Y-72345563D02*
X43654437Y-73410000D01*
X43654437Y-66590000D02*
X49410000Y-66590000D01*
X43654437Y-73410000D02*
X49410000Y-73410000D01*
X49410000Y-66590000D02*
X49410000Y-68940000D01*
X49410000Y-73410000D02*
X49410000Y-71060000D01*
%TO.C,Q10*%
X63740000Y-78440000D02*
X65260000Y-78440000D01*
X63740000Y-78490000D02*
X63740000Y-78440000D01*
X63740000Y-80390000D02*
X63740000Y-79610000D01*
X63740000Y-81560000D02*
X63740000Y-81510000D01*
X65260000Y-78440000D02*
X65260000Y-79440000D01*
X65260000Y-80560000D02*
X65260000Y-81560000D01*
X65260000Y-81560000D02*
X63740000Y-81560000D01*
X63200000Y-79620000D02*
X63440000Y-79950000D01*
X62960000Y-79950000D01*
X63200000Y-79620000D01*
G36*
X63440000Y-79950000D02*
G01*
X62960000Y-79950000D01*
X63200000Y-79620000D01*
X63440000Y-79950000D01*
G37*
%TO.C,R5*%
X111162742Y-74977500D02*
X111637258Y-74977500D01*
X111162742Y-76022500D02*
X111637258Y-76022500D01*
%TO.C,D5*%
X120000000Y-72360000D02*
X120000000Y-68350000D01*
X120000000Y-72360000D02*
X122000000Y-72360000D01*
X122000000Y-72360000D02*
X122000000Y-68350000D01*
%TO.C,R10*%
X67762742Y-74977500D02*
X68237258Y-74977500D01*
X67762742Y-76022500D02*
X68237258Y-76022500D01*
%TO.C,D24*%
X64515000Y-51265000D02*
X64515000Y-52735000D01*
X64515000Y-52735000D02*
X66800000Y-52735000D01*
X66800000Y-51265000D02*
X64515000Y-51265000D01*
%TO.C,R2*%
X57162742Y-74977500D02*
X57637258Y-74977500D01*
X57162742Y-76022500D02*
X57637258Y-76022500D01*
%TO.C,Q1*%
X35940000Y-73440000D02*
X40060000Y-73440000D01*
X35940000Y-73535000D02*
X35940000Y-73440000D01*
X35940000Y-78560000D02*
X35940000Y-78465000D01*
X40060000Y-73440000D02*
X40060000Y-73535000D01*
X40060000Y-78465000D02*
X40060000Y-78560000D01*
X40060000Y-78560000D02*
X35940000Y-78560000D01*
X35400000Y-73530000D02*
X35160000Y-73200000D01*
X35640000Y-73200000D01*
X35400000Y-73530000D01*
G36*
X35400000Y-73530000D02*
G01*
X35160000Y-73200000D01*
X35640000Y-73200000D01*
X35400000Y-73530000D01*
G37*
%TO.C,R16*%
X96462742Y-79477500D02*
X96937258Y-79477500D01*
X96462742Y-80522500D02*
X96937258Y-80522500D01*
%TO.C,C8*%
X80490000Y-56140580D02*
X80490000Y-55859420D01*
X81510000Y-56140580D02*
X81510000Y-55859420D01*
%TO.C,R44*%
X62262742Y-51477500D02*
X62737258Y-51477500D01*
X62262742Y-52522500D02*
X62737258Y-52522500D01*
%TO.C,TP8*%
X113700000Y-89800000D02*
G75*
G02*
X112300000Y-89800000I-700000J0D01*
G01*
X112300000Y-89800000D02*
G75*
G02*
X113700000Y-89800000I700000J0D01*
G01*
%TO.C,R47*%
X113762742Y-44557500D02*
X114237258Y-44557500D01*
X113762742Y-45602500D02*
X114237258Y-45602500D01*
%TO.C,C5*%
X54738748Y-51265000D02*
X55261252Y-51265000D01*
X54738748Y-52735000D02*
X55261252Y-52735000D01*
%TO.C,C4*%
X44859420Y-51490000D02*
X45140580Y-51490000D01*
X44859420Y-52510000D02*
X45140580Y-52510000D01*
%TO.C,D4*%
X102000000Y-72360000D02*
X102000000Y-68350000D01*
X102000000Y-72360000D02*
X104000000Y-72360000D01*
X104000000Y-72360000D02*
X104000000Y-68350000D01*
%TO.C,R15*%
X78462742Y-79477500D02*
X78937258Y-79477500D01*
X78462742Y-80522500D02*
X78937258Y-80522500D01*
%TO.C,TP11*%
X105700000Y-89800000D02*
G75*
G02*
X104300000Y-89800000I-700000J0D01*
G01*
X104300000Y-89800000D02*
G75*
G02*
X105700000Y-89800000I700000J0D01*
G01*
%TO.C,D3*%
X84000000Y-72360000D02*
X84000000Y-68350000D01*
X84000000Y-72360000D02*
X86000000Y-72360000D01*
X86000000Y-72360000D02*
X86000000Y-68350000D01*
%TO.C,R13*%
X121762742Y-74977500D02*
X122237258Y-74977500D01*
X121762742Y-76022500D02*
X122237258Y-76022500D01*
%TO.C,TP12*%
X123700000Y-89800000D02*
G75*
G02*
X122300000Y-89800000I-700000J0D01*
G01*
X122300000Y-89800000D02*
G75*
G02*
X123700000Y-89800000I700000J0D01*
G01*
%TO.C,R41*%
X121762742Y-79477500D02*
X122237258Y-79477500D01*
X121762742Y-80522500D02*
X122237258Y-80522500D01*
%TO.C,R45*%
X78477500Y-63462742D02*
X78477500Y-63937258D01*
X79522500Y-63462742D02*
X79522500Y-63937258D01*
%TO.C,U1*%
X84390000Y-50390000D02*
X84690000Y-50390000D01*
X84390000Y-50690000D02*
X84390000Y-50390000D01*
X84390000Y-57610000D02*
X84390000Y-57310000D01*
X84690000Y-57610000D02*
X84390000Y-57610000D01*
X91310000Y-50390000D02*
X91610000Y-50390000D01*
X91610000Y-50390000D02*
X91610000Y-50690000D01*
X91610000Y-57310000D02*
X91610000Y-57610000D01*
X91610000Y-57610000D02*
X91310000Y-57610000D01*
X83750000Y-50680000D02*
X83410000Y-50210000D01*
X84090000Y-50210000D01*
X83750000Y-50680000D01*
G36*
X83750000Y-50680000D02*
G01*
X83410000Y-50210000D01*
X84090000Y-50210000D01*
X83750000Y-50680000D01*
G37*
%TO.C,D9*%
X81640000Y-41500000D02*
X81640000Y-43500000D01*
X81640000Y-41500000D02*
X85650000Y-41500000D01*
X81640000Y-43500000D02*
X85650000Y-43500000D01*
%TO.C,R38*%
X67762742Y-79477500D02*
X68237258Y-79477500D01*
X67762742Y-80522500D02*
X68237258Y-80522500D01*
%TO.C,D12*%
X76550000Y-82300000D02*
X76550000Y-84700000D01*
%TO.C,R21*%
X111162742Y-79477500D02*
X111637258Y-79477500D01*
X111162742Y-80522500D02*
X111637258Y-80522500D01*
%TO.C,R20*%
X93162742Y-79477500D02*
X93637258Y-79477500D01*
X93162742Y-80522500D02*
X93637258Y-80522500D01*
%TO.C,D11*%
X58550000Y-82300000D02*
X58550000Y-84700000D01*
%TO.C,D6*%
X37000000Y-58140000D02*
X37000000Y-62150000D01*
X39000000Y-58140000D02*
X37000000Y-58140000D01*
X39000000Y-58140000D02*
X39000000Y-62150000D01*
%TO.C,R46*%
X113762742Y-42017500D02*
X114237258Y-42017500D01*
X113762742Y-43062500D02*
X114237258Y-43062500D01*
%TO.C,R42*%
X71477500Y-64637258D02*
X71477500Y-64162742D01*
X72522500Y-64637258D02*
X72522500Y-64162742D01*
%TO.C,Q6*%
X63740000Y-73940000D02*
X65260000Y-73940000D01*
X63740000Y-73990000D02*
X63740000Y-73940000D01*
X63740000Y-75890000D02*
X63740000Y-75110000D01*
X63740000Y-77060000D02*
X63740000Y-77010000D01*
X65260000Y-73940000D02*
X65260000Y-74940000D01*
X65260000Y-76060000D02*
X65260000Y-77060000D01*
X65260000Y-77060000D02*
X63740000Y-77060000D01*
X63200000Y-75120000D02*
X63440000Y-75450000D01*
X62960000Y-75450000D01*
X63200000Y-75120000D01*
G36*
X63440000Y-75450000D02*
G01*
X62960000Y-75450000D01*
X63200000Y-75120000D01*
X63440000Y-75450000D01*
G37*
%TO.C,Q7*%
X81740000Y-73940000D02*
X83260000Y-73940000D01*
X81740000Y-73990000D02*
X81740000Y-73940000D01*
X81740000Y-75890000D02*
X81740000Y-75110000D01*
X81740000Y-77060000D02*
X81740000Y-77010000D01*
X83260000Y-73940000D02*
X83260000Y-74940000D01*
X83260000Y-76060000D02*
X83260000Y-77060000D01*
X83260000Y-77060000D02*
X81740000Y-77060000D01*
X81200000Y-75120000D02*
X81440000Y-75450000D01*
X80960000Y-75450000D01*
X81200000Y-75120000D01*
G36*
X81440000Y-75450000D02*
G01*
X80960000Y-75450000D01*
X81200000Y-75120000D01*
X81440000Y-75450000D01*
G37*
%TO.C,R35*%
X85237258Y-86477500D02*
X84762742Y-86477500D01*
X85237258Y-87522500D02*
X84762742Y-87522500D01*
%TO.C,R32*%
X99762742Y-86477500D02*
X100237258Y-86477500D01*
X99762742Y-87522500D02*
X100237258Y-87522500D01*
%TO.C,D15*%
X64550000Y-82300000D02*
X64550000Y-84700000D01*
%TO.C,J7*%
X100620000Y-38620000D02*
X102000000Y-38620000D01*
X100620000Y-40000000D02*
X100620000Y-38620000D01*
X100620000Y-41270000D02*
X100620000Y-51540000D01*
X100620000Y-41270000D02*
X103380000Y-41270000D01*
X100620000Y-51540000D02*
X103380000Y-51540000D01*
X103380000Y-41270000D02*
X103380000Y-51540000D01*
%TO.C,R29*%
X114762742Y-86477500D02*
X115237258Y-86477500D01*
X114762742Y-87522500D02*
X115237258Y-87522500D01*
%TO.C,D14*%
X112550000Y-82300000D02*
X112550000Y-84700000D01*
%TO.C,C9*%
X73859420Y-45490000D02*
X74140580Y-45490000D01*
X73859420Y-46510000D02*
X74140580Y-46510000D01*
%TO.C,Q9*%
X117740000Y-73940000D02*
X119260000Y-73940000D01*
X117740000Y-73990000D02*
X117740000Y-73940000D01*
X117740000Y-75890000D02*
X117740000Y-75110000D01*
X117740000Y-77060000D02*
X117740000Y-77010000D01*
X119260000Y-73940000D02*
X119260000Y-74940000D01*
X119260000Y-76060000D02*
X119260000Y-77060000D01*
X119260000Y-77060000D02*
X117740000Y-77060000D01*
X117200000Y-75120000D02*
X117440000Y-75450000D01*
X116960000Y-75450000D01*
X117200000Y-75120000D01*
G36*
X117440000Y-75450000D02*
G01*
X116960000Y-75450000D01*
X117200000Y-75120000D01*
X117440000Y-75450000D01*
G37*
%TO.C,C6*%
X58859420Y-51490000D02*
X59140580Y-51490000D01*
X58859420Y-52510000D02*
X59140580Y-52510000D01*
%TO.C,R34*%
X67237258Y-86477500D02*
X66762742Y-86477500D01*
X67237258Y-87522500D02*
X66762742Y-87522500D01*
%TO.C,R17*%
X114462742Y-79477500D02*
X114937258Y-79477500D01*
X114462742Y-80522500D02*
X114937258Y-80522500D01*
%TO.C,U2*%
X48780000Y-49640000D02*
X51360000Y-49640000D01*
X51360000Y-50620000D02*
X51360000Y-49640000D01*
X51360000Y-53380000D02*
X51360000Y-54360000D01*
X51360000Y-54360000D02*
X48640000Y-54360000D01*
X48230000Y-49790000D02*
X47990000Y-49460000D01*
X48470000Y-49460000D01*
X48230000Y-49790000D01*
G36*
X48230000Y-49790000D02*
G01*
X47990000Y-49460000D01*
X48470000Y-49460000D01*
X48230000Y-49790000D01*
G37*
%TO.C,R3*%
X75162742Y-74977500D02*
X75637258Y-74977500D01*
X75162742Y-76022500D02*
X75637258Y-76022500D01*
%TO.C,R14*%
X60462742Y-79477500D02*
X60937258Y-79477500D01*
X60462742Y-80522500D02*
X60937258Y-80522500D01*
%TO.C,R6*%
X60462742Y-74977500D02*
X60937258Y-74977500D01*
X60462742Y-76022500D02*
X60937258Y-76022500D01*
%TD*%
%LPC*%
D12*
%TO.C,R7*%
X77875000Y-75500000D03*
X79525000Y-75500000D03*
%TD*%
D13*
%TO.C,D2*%
X67000000Y-71650000D03*
X67000000Y-68350000D03*
%TD*%
D14*
%TO.C,C3*%
X35300000Y-52000000D03*
X40700000Y-52000000D03*
%TD*%
D15*
%TO.C,TP10*%
X87000000Y-89800000D03*
%TD*%
D16*
%TO.C,C2*%
X53000000Y-69225000D03*
X53000000Y-70775000D03*
%TD*%
D17*
%TO.C,F3*%
X94000000Y-66510000D03*
X94000000Y-71490000D03*
%TD*%
D18*
%TO.C,C12*%
X85225000Y-46000000D03*
X86775000Y-46000000D03*
%TD*%
D19*
%TO.C,C7*%
X81000000Y-52775000D03*
X81000000Y-51225000D03*
%TD*%
D12*
%TO.C,R23*%
X75175000Y-87000000D03*
X76825000Y-87000000D03*
%TD*%
%TO.C,R9*%
X113875000Y-75500000D03*
X115525000Y-75500000D03*
%TD*%
%TO.C,R31*%
X81175000Y-87000000D03*
X82825000Y-87000000D03*
%TD*%
D20*
%TO.C,D1*%
X44000000Y-76000000D03*
X48000000Y-76000000D03*
%TD*%
D21*
%TO.C,Q12*%
X99562500Y-79050000D03*
X99562500Y-80950000D03*
X101437500Y-80000000D03*
%TD*%
D12*
%TO.C,R8*%
X95875000Y-75500000D03*
X97525000Y-75500000D03*
%TD*%
D15*
%TO.C,TP1*%
X35000000Y-66000000D03*
%TD*%
%TO.C,TP3*%
X58000000Y-57000000D03*
%TD*%
D22*
%TO.C,J6*%
X110000000Y-40000000D03*
D23*
X110000000Y-42540000D03*
X110000000Y-45080000D03*
%TD*%
D24*
%TO.C,R36*%
X103825000Y-87000000D03*
X102175000Y-87000000D03*
%TD*%
D12*
%TO.C,R26*%
X60175000Y-87000000D03*
X61825000Y-87000000D03*
%TD*%
D25*
%TO.C,D8*%
X76850000Y-42500000D03*
X80150000Y-42500000D03*
%TD*%
D12*
%TO.C,R28*%
X96175000Y-87000000D03*
X97825000Y-87000000D03*
%TD*%
D18*
%TO.C,C10*%
X77225000Y-46000000D03*
X78775000Y-46000000D03*
%TD*%
D21*
%TO.C,Q13*%
X117562500Y-79050000D03*
X117562500Y-80950000D03*
X119437500Y-80000000D03*
%TD*%
D15*
%TO.C,TP2*%
X54000000Y-57000000D03*
%TD*%
D26*
%TO.C,H2*%
X131000000Y-96000000D03*
%TD*%
D12*
%TO.C,R25*%
X111175000Y-87000000D03*
X112825000Y-87000000D03*
%TD*%
%TO.C,R12*%
X103175000Y-75500000D03*
X104825000Y-75500000D03*
%TD*%
D21*
%TO.C,Q4*%
X98062500Y-69050000D03*
X98062500Y-70950000D03*
X99937500Y-70000000D03*
%TD*%
%TO.C,Q11*%
X81562500Y-79050000D03*
X81562500Y-80950000D03*
X83437500Y-80000000D03*
%TD*%
D12*
%TO.C,R24*%
X93175000Y-87000000D03*
X94825000Y-87000000D03*
%TD*%
%TO.C,R43*%
X71175000Y-60500000D03*
X72825000Y-60500000D03*
%TD*%
%TO.C,R39*%
X85175000Y-80000000D03*
X86825000Y-80000000D03*
%TD*%
D21*
%TO.C,Q8*%
X99562500Y-74550000D03*
X99562500Y-76450000D03*
X101437500Y-75500000D03*
%TD*%
D27*
%TO.C,D13*%
X95400000Y-83500000D03*
X98600000Y-83500000D03*
%TD*%
D25*
%TO.C,D7*%
X71350000Y-42500000D03*
X74650000Y-42500000D03*
%TD*%
D12*
%TO.C,R27*%
X78175000Y-87000000D03*
X79825000Y-87000000D03*
%TD*%
%TO.C,R19*%
X74575000Y-80000000D03*
X76225000Y-80000000D03*
%TD*%
D15*
%TO.C,TP7*%
X95000000Y-89800000D03*
%TD*%
D12*
%TO.C,R11*%
X85175000Y-75500000D03*
X86825000Y-75500000D03*
%TD*%
D18*
%TO.C,C11*%
X81225000Y-46000000D03*
X82775000Y-46000000D03*
%TD*%
D12*
%TO.C,R48*%
X97175000Y-45080000D03*
X98825000Y-45080000D03*
%TD*%
D17*
%TO.C,F2*%
X76000000Y-66510000D03*
X76000000Y-71490000D03*
%TD*%
D21*
%TO.C,Q5*%
X116062500Y-69050000D03*
X116062500Y-70950000D03*
X117937500Y-70000000D03*
%TD*%
D15*
%TO.C,TP9*%
X69000000Y-89800000D03*
%TD*%
D12*
%TO.C,R30*%
X63175000Y-87000000D03*
X64825000Y-87000000D03*
%TD*%
D27*
%TO.C,D18*%
X119400000Y-83500000D03*
X122600000Y-83500000D03*
%TD*%
D24*
%TO.C,R37*%
X121825000Y-87000000D03*
X120175000Y-87000000D03*
%TD*%
D15*
%TO.C,TP6*%
X77000000Y-89800000D03*
%TD*%
%TO.C,TP5*%
X59000000Y-89800000D03*
%TD*%
D12*
%TO.C,R49*%
X97175000Y-47620000D03*
X98825000Y-47620000D03*
%TD*%
%TO.C,R4*%
X92575000Y-75500000D03*
X94225000Y-75500000D03*
%TD*%
D21*
%TO.C,Q3*%
X80062500Y-69050000D03*
X80062500Y-70950000D03*
X81937500Y-70000000D03*
%TD*%
D12*
%TO.C,R33*%
X117175000Y-87000000D03*
X118825000Y-87000000D03*
%TD*%
%TO.C,R40*%
X103175000Y-80000000D03*
X104825000Y-80000000D03*
%TD*%
D28*
%TO.C,D19*%
X117150000Y-42540000D03*
X117850000Y-42540000D03*
%TD*%
D12*
%TO.C,R22*%
X57175000Y-87000000D03*
X58825000Y-87000000D03*
%TD*%
%TO.C,R18*%
X56575000Y-80000000D03*
X58225000Y-80000000D03*
%TD*%
D21*
%TO.C,Q2*%
X62062500Y-69050000D03*
X62062500Y-70950000D03*
X63937500Y-70000000D03*
%TD*%
D25*
%TO.C,D10*%
X87850000Y-42500000D03*
X91150000Y-42500000D03*
%TD*%
D15*
%TO.C,TP4*%
X73000000Y-92000000D03*
%TD*%
D29*
%TO.C,J1*%
X41460000Y-90000000D03*
D30*
X46540000Y-90000000D03*
%TD*%
D27*
%TO.C,D17*%
X101400000Y-83500000D03*
X104600000Y-83500000D03*
%TD*%
D28*
%TO.C,D21*%
X94650000Y-45080000D03*
X95350000Y-45080000D03*
%TD*%
D27*
%TO.C,D16*%
X83400000Y-83500000D03*
X86600000Y-83500000D03*
%TD*%
D12*
%TO.C,R1*%
X37175000Y-71000000D03*
X38825000Y-71000000D03*
%TD*%
D28*
%TO.C,D20*%
X117150000Y-45080000D03*
X117850000Y-45080000D03*
%TD*%
D14*
%TO.C,C1*%
X43300000Y-70000000D03*
X48700000Y-70000000D03*
%TD*%
D21*
%TO.C,Q10*%
X63562500Y-79050000D03*
X63562500Y-80950000D03*
X65437500Y-80000000D03*
%TD*%
D12*
%TO.C,R5*%
X110575000Y-75500000D03*
X112225000Y-75500000D03*
%TD*%
D13*
%TO.C,D5*%
X121000000Y-71650000D03*
X121000000Y-68350000D03*
%TD*%
D12*
%TO.C,R10*%
X67175000Y-75500000D03*
X68825000Y-75500000D03*
%TD*%
D31*
%TO.C,D24*%
X65212500Y-52000000D03*
X66787500Y-52000000D03*
%TD*%
D12*
%TO.C,R2*%
X56575000Y-75500000D03*
X58225000Y-75500000D03*
%TD*%
D32*
%TO.C,Q1*%
X35525000Y-74095000D03*
X35525000Y-75365000D03*
X35525000Y-76635000D03*
X35525000Y-77905000D03*
X40475000Y-77905000D03*
X40475000Y-76635000D03*
X40475000Y-75365000D03*
X40475000Y-74095000D03*
%TD*%
D17*
%TO.C,F4*%
X112000000Y-66510000D03*
X112000000Y-71490000D03*
%TD*%
D12*
%TO.C,R16*%
X95875000Y-80000000D03*
X97525000Y-80000000D03*
%TD*%
D33*
%TO.C,J5*%
X114190000Y-95000000D03*
D34*
X116730000Y-95000000D03*
X119270000Y-95000000D03*
X121810000Y-95000000D03*
%TD*%
D19*
%TO.C,C8*%
X81000000Y-56775000D03*
X81000000Y-55225000D03*
%TD*%
D12*
%TO.C,R44*%
X61675000Y-52000000D03*
X63325000Y-52000000D03*
%TD*%
D15*
%TO.C,TP8*%
X113000000Y-89800000D03*
%TD*%
D12*
%TO.C,R47*%
X113175000Y-45080000D03*
X114825000Y-45080000D03*
%TD*%
D35*
%TO.C,C5*%
X54050000Y-52000000D03*
X55950000Y-52000000D03*
%TD*%
D18*
%TO.C,C4*%
X44225000Y-52000000D03*
X45775000Y-52000000D03*
%TD*%
D13*
%TO.C,D4*%
X103000000Y-71650000D03*
X103000000Y-68350000D03*
%TD*%
D12*
%TO.C,R15*%
X77875000Y-80000000D03*
X79525000Y-80000000D03*
%TD*%
D15*
%TO.C,TP11*%
X105000000Y-89800000D03*
%TD*%
D13*
%TO.C,D3*%
X85000000Y-71650000D03*
X85000000Y-68350000D03*
%TD*%
D26*
%TO.C,H1*%
X34000000Y-96000000D03*
%TD*%
D12*
%TO.C,R13*%
X121175000Y-75500000D03*
X122825000Y-75500000D03*
%TD*%
D15*
%TO.C,TP12*%
X123000000Y-89800000D03*
%TD*%
D12*
%TO.C,R41*%
X121175000Y-80000000D03*
X122825000Y-80000000D03*
%TD*%
D36*
%TO.C,R45*%
X79000000Y-62875000D03*
X79000000Y-64525000D03*
%TD*%
D37*
%TO.C,U1*%
X83825000Y-51200000D03*
X83825000Y-52000000D03*
X83825000Y-52800000D03*
X83825000Y-53600000D03*
X83825000Y-54400000D03*
X83825000Y-55200000D03*
X83825000Y-56000000D03*
X83825000Y-56800000D03*
D38*
X85200000Y-58175000D03*
X86000000Y-58175000D03*
X86800000Y-58175000D03*
X87600000Y-58175000D03*
X88400000Y-58175000D03*
X89200000Y-58175000D03*
X90000000Y-58175000D03*
X90800000Y-58175000D03*
D37*
X92175000Y-56800000D03*
X92175000Y-56000000D03*
X92175000Y-55200000D03*
X92175000Y-54400000D03*
X92175000Y-53600000D03*
X92175000Y-52800000D03*
X92175000Y-52000000D03*
X92175000Y-51200000D03*
D38*
X90800000Y-49825000D03*
X90000000Y-49825000D03*
X89200000Y-49825000D03*
X88400000Y-49825000D03*
X87600000Y-49825000D03*
X86800000Y-49825000D03*
X86000000Y-49825000D03*
X85200000Y-49825000D03*
%TD*%
D25*
%TO.C,D9*%
X82350000Y-42500000D03*
X85650000Y-42500000D03*
%TD*%
D12*
%TO.C,R38*%
X67175000Y-80000000D03*
X68825000Y-80000000D03*
%TD*%
D27*
%TO.C,D12*%
X77400000Y-83500000D03*
X80600000Y-83500000D03*
%TD*%
D28*
%TO.C,D22*%
X94650000Y-47620000D03*
X95350000Y-47620000D03*
%TD*%
D12*
%TO.C,R21*%
X110575000Y-80000000D03*
X112225000Y-80000000D03*
%TD*%
%TO.C,R20*%
X92575000Y-80000000D03*
X94225000Y-80000000D03*
%TD*%
D27*
%TO.C,D11*%
X59400000Y-83500000D03*
X62600000Y-83500000D03*
%TD*%
D17*
%TO.C,F1*%
X58000000Y-66510000D03*
X58000000Y-71490000D03*
%TD*%
D28*
%TO.C,D23*%
X94650000Y-50160000D03*
X95350000Y-50160000D03*
%TD*%
D39*
%TO.C,D6*%
X38000000Y-58850000D03*
X38000000Y-62150000D03*
%TD*%
D12*
%TO.C,R46*%
X113175000Y-42540000D03*
X114825000Y-42540000D03*
%TD*%
D40*
%TO.C,R42*%
X72000000Y-65225000D03*
X72000000Y-63575000D03*
%TD*%
D21*
%TO.C,Q6*%
X63562500Y-74550000D03*
X63562500Y-76450000D03*
X65437500Y-75500000D03*
%TD*%
%TO.C,Q7*%
X81562500Y-74550000D03*
X81562500Y-76450000D03*
X83437500Y-75500000D03*
%TD*%
D24*
%TO.C,R35*%
X85825000Y-87000000D03*
X84175000Y-87000000D03*
%TD*%
D12*
%TO.C,R32*%
X99175000Y-87000000D03*
X100825000Y-87000000D03*
%TD*%
D27*
%TO.C,D15*%
X65400000Y-83500000D03*
X68600000Y-83500000D03*
%TD*%
D22*
%TO.C,J7*%
X102000000Y-40000000D03*
D23*
X102000000Y-42540000D03*
X102000000Y-45080000D03*
X102000000Y-47620000D03*
X102000000Y-50160000D03*
%TD*%
D26*
%TO.C,H3*%
X34000000Y-38000000D03*
%TD*%
D12*
%TO.C,R29*%
X114175000Y-87000000D03*
X115825000Y-87000000D03*
%TD*%
D33*
%TO.C,J4*%
X96190000Y-95000000D03*
D34*
X98730000Y-95000000D03*
X101270000Y-95000000D03*
X103810000Y-95000000D03*
%TD*%
D26*
%TO.C,H4*%
X131000000Y-38000000D03*
%TD*%
D27*
%TO.C,D14*%
X113400000Y-83500000D03*
X116600000Y-83500000D03*
%TD*%
D18*
%TO.C,C9*%
X73225000Y-46000000D03*
X74775000Y-46000000D03*
%TD*%
D21*
%TO.C,Q9*%
X117562500Y-74550000D03*
X117562500Y-76450000D03*
X119437500Y-75500000D03*
%TD*%
D18*
%TO.C,C6*%
X58225000Y-52000000D03*
X59775000Y-52000000D03*
%TD*%
D24*
%TO.C,R34*%
X67825000Y-87000000D03*
X66175000Y-87000000D03*
%TD*%
D33*
%TO.C,J2*%
X60190000Y-95000000D03*
D34*
X62730000Y-95000000D03*
X65270000Y-95000000D03*
X67810000Y-95000000D03*
%TD*%
D33*
%TO.C,J3*%
X78190000Y-95000000D03*
D34*
X80730000Y-95000000D03*
X83270000Y-95000000D03*
X85810000Y-95000000D03*
%TD*%
D12*
%TO.C,R17*%
X113875000Y-80000000D03*
X115525000Y-80000000D03*
%TD*%
D41*
%TO.C,U2*%
X48050000Y-50500000D03*
D42*
X48137500Y-52000000D03*
D41*
X48050000Y-53500000D03*
%TD*%
D12*
%TO.C,R3*%
X74575000Y-75500000D03*
X76225000Y-75500000D03*
%TD*%
%TO.C,R14*%
X59875000Y-80000000D03*
X61525000Y-80000000D03*
%TD*%
%TO.C,R6*%
X59875000Y-75500000D03*
X61525000Y-75500000D03*
%TD*%
%LPD*%
M02*
