M48
; DRILL file KiCad 10.0.5-10.0.5~ubuntu24.04.1 date 2026-09-03T15:09:50
; FORMAT={-:-/ absolute / metric / decimal}
; #@! TF.CreationDate,2026-09-03T15:09:50-06:00
; #@! TF.GenerationSoftware,Kicad,Pcbnew,10.0.5-10.0.5~ubuntu24.04.1
; #@! TF.FileFunction,Plated,1,2,PTH
FMAT,2
METRIC
; #@! TA.AperFunction,Plated,PTH,ViaDrill
T1C0.300
; #@! TA.AperFunction,Plated,PTH,ComponentDrill
T2C1.000
; #@! TA.AperFunction,Plated,PTH,ComponentDrill
T3C1.400
%
G90
G05
T1
X38.825Y-72.125
X40.7Y-53.45
X45.775Y-53.125
X48.0Y-77.55
X48.05Y-49.4
X48.7Y-71.45
X54.125Y-70.775
X54.6Y-63.4
X54.6Y-68.5
X55.95Y-53.375
X58.0Y-58.15
X58.0Y-86.0
X58.0Y-88.8
X58.225Y-81.125
X58.3Y-84.5
X59.1Y-78.9
X59.2Y-69.9
X59.775Y-53.125
X60.9Y-78.9
X61.1Y-71.9
X62.1Y-76.6
X62.5Y-70.0
X62.6Y-84.75
X63.0Y-80.0
X63.5Y-71.0
X63.562Y-77.4
X63.562Y-81.9
X64.0Y-86.0
X64.0Y-88.8
X64.9Y-64.6
X65.1Y-70.9
X65.212Y-53.125
X65.3Y-85.8
X65.75Y-68.35
X65.8Y-84.8
X66.9Y-74.1
X66.9Y-85.9
X67.7Y-64.6
X68.6Y-84.75
X68.825Y-76.625
X68.825Y-81.125
X69.9Y-75.0
X70.6Y-72.9
X72.825Y-61.625
X73.0Y-93.15
X73.4Y-59.3
X73.5Y-42.6
X74.0Y-44.6
X74.4Y-48.3
X74.775Y-47.125
X75.2Y-64.6
X75.3Y-61.2
X75.3Y-63.4
X75.8Y-73.1
X75.9Y-84.8
X76.0Y-86.0
X76.0Y-88.8
X76.2Y-58.7
X76.225Y-81.125
X76.4Y-49.2
X76.6Y-56.1
X78.4Y-73.9
X78.4Y-84.6
X78.6Y-68.8
X78.7Y-76.5
X78.775Y-47.125
X79.1Y-55.8
X79.3Y-61.4
X79.875Y-51.225
X79.875Y-55.225
X80.125Y-62.875
X80.125Y-64.525
X80.6Y-38.9
X80.6Y-80.0
X80.6Y-84.75
X80.9Y-72.3
X81.1Y-39.7
X81.45Y-59.2
X81.5Y-47.2
X81.562Y-77.4
X81.562Y-81.9
X82.0Y-86.0
X82.1Y-88.8
X82.3Y-55.6
X82.5Y-59.5
X82.775Y-47.125
X83.4Y-85.7
X83.5Y-42.2
X83.6Y-58.4
X83.75Y-68.35
X84.0Y-40.6
X84.025Y-74.575
X84.3Y-42.7
X84.3Y-59.1
X84.5Y-64.65
X84.8Y-76.7
X85.2Y-51.3
X85.225Y-54.4
X85.3Y-53.4
X85.3Y-83.3
X85.3Y-89.4
X85.6Y-61.4
X85.7Y-64.6
X86.6Y-84.75
X86.7Y-41.6
X86.775Y-47.125
X86.825Y-76.625
X86.825Y-81.125
X87.0Y-54.1
X87.2Y-56.7
X87.2Y-60.2
X87.5Y-63.7
X87.8Y-53.6
X87.9Y-46.8
X87.9Y-51.3
X88.1Y-39.0
X88.6Y-73.5
X88.7Y-48.3
X88.7Y-55.5
X89.2Y-56.7
X89.8Y-60.2
X89.9Y-45.9
X90.1Y-54.2
X90.7Y-56.6
X90.7Y-59.6
X90.8Y-64.6
X90.8Y-68.5
X92.0Y-60.9
X92.8Y-42.0
X92.8Y-74.3
X93.3Y-59.2
X93.4Y-64.6
X93.4Y-79.0
X93.5Y-40.3
X93.9Y-73.2
X94.0Y-56.5
X94.225Y-81.125
X94.4Y-61.4
X94.5Y-52.1
X94.65Y-45.98
X94.65Y-48.52
X94.65Y-51.06
X95.4Y-85.9
X95.8Y-53.1
X95.9Y-59.5
X96.3Y-51.1
X96.7Y-64.6
X96.7Y-68.5
X96.7Y-81.0
X97.4Y-50.0
X97.7Y-46.2
X97.9Y-72.0
X98.1Y-70.0
X98.2Y-64.6
X98.6Y-84.75
X98.8Y-63.5
X99.1Y-35.6
X99.1Y-39.4
X99.1Y-71.9
X99.562Y-77.4
X99.562Y-81.9
X99.7Y-54.3
X99.9Y-45.8
X100.4Y-59.2
X100.8Y-55.4
X101.75Y-68.35
X102.7Y-83.1
X102.717Y-85.735
X103.8Y-58.6
X104.3Y-68.5
X104.6Y-84.75
X104.825Y-76.625
X104.825Y-81.125
X106.6Y-86.1
X108.4Y-86.8
X109.7Y-64.6
X109.7Y-68.5
X111.4Y-79.0
X111.5Y-40.7
X111.5Y-47.0
X112.2Y-88.1
X112.225Y-81.125
X113.1Y-41.0
X113.1Y-47.0
X114.1Y-89.3
X114.2Y-70.0
X114.7Y-81.0
X114.95Y-86.25
X115.8Y-73.5
X116.1Y-70.0
X116.6Y-84.75
X117.15Y-43.44
X117.15Y-45.98
X117.562Y-77.4
X117.562Y-81.9
X118.0Y-69.0
X119.1Y-85.8
X119.75Y-68.35
X120.6Y-82.7
X120.6Y-85.1
X122.6Y-84.75
X122.825Y-76.625
X122.825Y-81.125
X124.6Y-73.2
X126.4Y-87.7
X132.6Y-67.9
T2
X60.19Y-95.0
X62.73Y-95.0
X65.27Y-95.0
X67.81Y-95.0
X78.19Y-95.0
X80.73Y-95.0
X83.27Y-95.0
X85.81Y-95.0
X96.19Y-95.0
X98.73Y-95.0
X101.27Y-95.0
X102.0Y-40.0
X102.0Y-42.54
X102.0Y-45.08
X102.0Y-47.62
X102.0Y-50.16
X103.81Y-95.0
X110.0Y-40.0
X110.0Y-42.54
X110.0Y-45.08
X114.19Y-95.0
X116.73Y-95.0
X119.27Y-95.0
X121.81Y-95.0
T3
X41.46Y-90.0
X46.54Y-90.0
M30
