%TF.GenerationSoftware,KiCad,Pcbnew,10.0.5-10.0.5~ubuntu24.04.1*%
%TF.CreationDate,2026-09-03T15:09:49-06:00*%
%TF.ProjectId,quad_fan_controller,71756164-5f66-4616-9e5f-636f6e74726f,rev?*%
%TF.SameCoordinates,Original*%
%TF.FileFunction,Copper,L1,Top*%
%TF.FilePolarity,Positive*%
%FSLAX46Y46*%
G04 Gerber Fmt 4.6, Leading zero omitted, Abs format (unit mm)*
G04 Created by KiCad (PCBNEW 10.0.5-10.0.5~ubuntu24.04.1) date 2026-09-03 15:09:49*
%MOMM*%
%LPD*%
G01*
G04 APERTURE LIST*
G04 Aperture macros list*
%AMRoundRect*
0 Rectangle with rounded corners*
0 $1 Rounding radius*
0 $2 $3 $4 $5 $6 $7 $8 $9 X,Y pos of 4 corners*
0 Add a 4 corners polygon primitive as box body*
4,1,4,$2,$3,$4,$5,$6,$7,$8,$9,$2,$3,0*
0 Add four circle primitives for the rounded corners*
1,1,$1+$1,$2,$3*
1,1,$1+$1,$4,$5*
1,1,$1+$1,$6,$7*
1,1,$1+$1,$8,$9*
0 Add four rect primitives between the rounded corners*
20,1,$1+$1,$2,$3,$4,$5,0*
20,1,$1+$1,$4,$5,$6,$7,0*
20,1,$1+$1,$6,$7,$8,$9,0*
20,1,$1+$1,$8,$9,$2,$3,0*%
%AMFreePoly0*
4,1,9,3.862500,-0.866500,0.737500,-0.866500,0.737500,-0.450000,-0.737500,-0.450000,-0.737500,0.450000,0.737500,0.450000,0.737500,0.866500,3.862500,0.866500,3.862500,-0.866500,3.862500,-0.866500,$1*%
G04 Aperture macros list end*
%TA.AperFunction,SMDPad,CuDef*%
%ADD10RoundRect,0.200000X-0.200000X-0.275000X0.200000X-0.275000X0.200000X0.275000X-0.200000X0.275000X0*%
%TD*%
%TA.AperFunction,SMDPad,CuDef*%
%ADD11RoundRect,0.225000X0.375000X-0.225000X0.375000X0.225000X-0.375000X0.225000X-0.375000X-0.225000X0*%
%TD*%
%TA.AperFunction,SMDPad,CuDef*%
%ADD12RoundRect,0.250000X-1.500000X-0.550000X1.500000X-0.550000X1.500000X0.550000X-1.500000X0.550000X0*%
%TD*%
%TA.AperFunction,SMDPad,CuDef*%
%ADD13C,1.000000*%
%TD*%
%TA.AperFunction,SMDPad,CuDef*%
%ADD14RoundRect,0.225000X-0.250000X0.225000X-0.250000X-0.225000X0.250000X-0.225000X0.250000X0.225000X0*%
%TD*%
%TA.AperFunction,SMDPad,CuDef*%
%ADD15RoundRect,0.445000X-1.155000X0.445000X-1.155000X-0.445000X1.155000X-0.445000X1.155000X0.445000X0*%
%TD*%
%TA.AperFunction,SMDPad,CuDef*%
%ADD16RoundRect,0.225000X-0.225000X-0.250000X0.225000X-0.250000X0.225000X0.250000X-0.225000X0.250000X0*%
%TD*%
%TA.AperFunction,SMDPad,CuDef*%
%ADD17RoundRect,0.225000X0.250000X-0.225000X0.250000X0.225000X-0.250000X0.225000X-0.250000X-0.225000X0*%
%TD*%
%TA.AperFunction,SMDPad,CuDef*%
%ADD18RoundRect,0.250000X-1.000000X-0.650000X1.000000X-0.650000X1.000000X0.650000X-1.000000X0.650000X0*%
%TD*%
%TA.AperFunction,SMDPad,CuDef*%
%ADD19RoundRect,0.150000X-0.587500X-0.150000X0.587500X-0.150000X0.587500X0.150000X-0.587500X0.150000X0*%
%TD*%
%TA.AperFunction,ComponentPad*%
%ADD20R,1.700000X1.700000*%
%TD*%
%TA.AperFunction,ComponentPad*%
%ADD21C,1.700000*%
%TD*%
%TA.AperFunction,SMDPad,CuDef*%
%ADD22RoundRect,0.200000X0.200000X0.275000X-0.200000X0.275000X-0.200000X-0.275000X0.200000X-0.275000X0*%
%TD*%
%TA.AperFunction,SMDPad,CuDef*%
%ADD23RoundRect,0.225000X-0.225000X-0.375000X0.225000X-0.375000X0.225000X0.375000X-0.225000X0.375000X0*%
%TD*%
%TA.AperFunction,SMDPad,CuDef*%
%ADD24RoundRect,0.300000X-0.300000X-0.300000X0.300000X-0.300000X0.300000X0.300000X-0.300000X0.300000X0*%
%TD*%
%TA.AperFunction,SMDPad,CuDef*%
%ADD25RoundRect,0.050010X-0.099990X-0.199990X0.099990X-0.199990X0.099990X0.199990X-0.099990X0.199990X0*%
%TD*%
%TA.AperFunction,ComponentPad*%
%ADD26R,2.600000X2.600000*%
%TD*%
%TA.AperFunction,ComponentPad*%
%ADD27C,2.600000*%
%TD*%
%TA.AperFunction,SMDPad,CuDef*%
%ADD28RoundRect,0.218750X-0.218750X-0.256250X0.218750X-0.256250X0.218750X0.256250X-0.218750X0.256250X0*%
%TD*%
%TA.AperFunction,SMDPad,CuDef*%
%ADD29RoundRect,0.150000X-0.825000X-0.150000X0.825000X-0.150000X0.825000X0.150000X-0.825000X0.150000X0*%
%TD*%
%TA.AperFunction,ComponentPad*%
%ADD30R,1.800000X1.800000*%
%TD*%
%TA.AperFunction,ComponentPad*%
%ADD31C,1.800000*%
%TD*%
%TA.AperFunction,SMDPad,CuDef*%
%ADD32RoundRect,0.250000X-0.250000X-0.475000X0.250000X-0.475000X0.250000X0.475000X-0.250000X0.475000X0*%
%TD*%
%TA.AperFunction,SMDPad,CuDef*%
%ADD33RoundRect,0.200000X-0.275000X0.200000X-0.275000X-0.200000X0.275000X-0.200000X0.275000X0.200000X0*%
%TD*%
%TA.AperFunction,SMDPad,CuDef*%
%ADD34RoundRect,0.125000X-0.625000X-0.125000X0.625000X-0.125000X0.625000X0.125000X-0.625000X0.125000X0*%
%TD*%
%TA.AperFunction,SMDPad,CuDef*%
%ADD35RoundRect,0.125000X-0.125000X-0.625000X0.125000X-0.625000X0.125000X0.625000X-0.125000X0.625000X0*%
%TD*%
%TA.AperFunction,SMDPad,CuDef*%
%ADD36RoundRect,0.225000X-0.375000X0.225000X-0.375000X-0.225000X0.375000X-0.225000X0.375000X0.225000X0*%
%TD*%
%TA.AperFunction,SMDPad,CuDef*%
%ADD37RoundRect,0.200000X0.275000X-0.200000X0.275000X0.200000X-0.275000X0.200000X-0.275000X-0.200000X0*%
%TD*%
%TA.AperFunction,SMDPad,CuDef*%
%ADD38RoundRect,0.225000X-0.425000X-0.225000X0.425000X-0.225000X0.425000X0.225000X-0.425000X0.225000X0*%
%TD*%
%TA.AperFunction,SMDPad,CuDef*%
%ADD39FreePoly0,0.000000*%
%TD*%
%TA.AperFunction,ViaPad*%
%ADD40C,0.600000*%
%TD*%
%TA.AperFunction,Conductor*%
%ADD41C,0.250000*%
%TD*%
%TA.AperFunction,Conductor*%
%ADD42C,0.600000*%
%TD*%
%TA.AperFunction,Conductor*%
%ADD43C,0.400000*%
%TD*%
%TA.AperFunction,Conductor*%
%ADD44C,1.500000*%
%TD*%
%TA.AperFunction,Conductor*%
%ADD45C,0.150000*%
%TD*%
G04 APERTURE END LIST*
D10*
%TO.P,R7,1*%
%TO.N,CH2_PG*%
X77875000Y-75500000D03*
%TO.P,R7,2*%
%TO.N,CH2_GD*%
X79525000Y-75500000D03*
%TD*%
D11*
%TO.P,D2,1*%
%TO.N,FAN1_12V*%
X67000000Y-71650000D03*
%TO.P,D2,2*%
%TO.N,PGND*%
X67000000Y-68350000D03*
%TD*%
D12*
%TO.P,C3,1*%
%TO.N,VHOLD*%
X35300000Y-52000000D03*
%TO.P,C3,2*%
%TO.N,GND*%
X40700000Y-52000000D03*
%TD*%
D13*
%TO.P,TP10,1*%
%TO.N,FAN2_TACH*%
X87000000Y-89800000D03*
%TD*%
D14*
%TO.P,C2,1*%
%TO.N,V12P*%
X53000000Y-69225000D03*
%TO.P,C2,2*%
%TO.N,PGND*%
X53000000Y-70775000D03*
%TD*%
D15*
%TO.P,F3,1*%
%TO.N,V12P*%
X94000000Y-66510000D03*
%TO.P,F3,2*%
%TO.N,CH3_FUSED*%
X94000000Y-71490000D03*
%TD*%
D16*
%TO.P,C12,1*%
%TO.N,TACH4*%
X85225000Y-46000000D03*
%TO.P,C12,2*%
%TO.N,GND*%
X86775000Y-46000000D03*
%TD*%
D17*
%TO.P,C7,1*%
%TO.N,+3V3*%
X81000000Y-52775000D03*
%TO.P,C7,2*%
%TO.N,GND*%
X81000000Y-51225000D03*
%TD*%
D10*
%TO.P,R23,1*%
%TO.N,PWM2_D*%
X75175000Y-87000000D03*
%TO.P,R23,2*%
%TO.N,FAN2_PWM*%
X76825000Y-87000000D03*
%TD*%
%TO.P,R9,1*%
%TO.N,CH4_PG*%
X113875000Y-75500000D03*
%TO.P,R9,2*%
%TO.N,CH4_GD*%
X115525000Y-75500000D03*
%TD*%
%TO.P,R31,1*%
%TO.N,FAN2_TACH*%
X81175000Y-87000000D03*
%TO.P,R31,2*%
%TO.N,TACH2*%
X82825000Y-87000000D03*
%TD*%
D18*
%TO.P,D1,1*%
%TO.N,V12P*%
X44000000Y-76000000D03*
%TO.P,D1,2*%
%TO.N,PGND*%
X48000000Y-76000000D03*
%TD*%
D19*
%TO.P,Q12,1*%
%TO.N,PWM3_G*%
X99562500Y-79050000D03*
%TO.P,Q12,2*%
%TO.N,PGND*%
X99562500Y-80950000D03*
%TO.P,Q12,3*%
%TO.N,PWM3_D*%
X101437500Y-80000000D03*
%TD*%
D10*
%TO.P,R8,1*%
%TO.N,CH3_PG*%
X95875000Y-75500000D03*
%TO.P,R8,2*%
%TO.N,CH3_GD*%
X97525000Y-75500000D03*
%TD*%
D13*
%TO.P,TP1,1*%
%TO.N,V12P*%
X35000000Y-66000000D03*
%TD*%
%TO.P,TP3,1*%
%TO.N,GND*%
X58000000Y-57000000D03*
%TD*%
D20*
%TO.P,J6,1*%
%TO.N,GND*%
X110000000Y-40000000D03*
D21*
%TO.P,J6,2*%
%TO.N,HOST_TX*%
X110000000Y-42540000D03*
%TO.P,J6,3*%
%TO.N,HOST_RX*%
X110000000Y-45080000D03*
%TD*%
D22*
%TO.P,R36,1*%
%TO.N,FAN3_12V*%
X103825000Y-87000000D03*
%TO.P,R36,2*%
%TO.N,CH3_SENSE*%
X102175000Y-87000000D03*
%TD*%
D10*
%TO.P,R26,1*%
%TO.N,FAN1_TACH*%
X60175000Y-87000000D03*
%TO.P,R26,2*%
%TO.N,+3V3*%
X61825000Y-87000000D03*
%TD*%
D23*
%TO.P,D8,1*%
%TO.N,+3V3*%
X76850000Y-42500000D03*
%TO.P,D8,2*%
%TO.N,TACH2*%
X80150000Y-42500000D03*
%TD*%
D10*
%TO.P,R28,1*%
%TO.N,FAN3_TACH*%
X96175000Y-87000000D03*
%TO.P,R28,2*%
%TO.N,+3V3*%
X97825000Y-87000000D03*
%TD*%
D16*
%TO.P,C10,1*%
%TO.N,TACH2*%
X77225000Y-46000000D03*
%TO.P,C10,2*%
%TO.N,GND*%
X78775000Y-46000000D03*
%TD*%
D19*
%TO.P,Q13,1*%
%TO.N,PWM4_G*%
X117562500Y-79050000D03*
%TO.P,Q13,2*%
%TO.N,PGND*%
X117562500Y-80950000D03*
%TO.P,Q13,3*%
%TO.N,PWM4_D*%
X119437500Y-80000000D03*
%TD*%
D13*
%TO.P,TP2,1*%
%TO.N,+3V3*%
X54000000Y-57000000D03*
%TD*%
D10*
%TO.P,R25,1*%
%TO.N,PWM4_D*%
X111175000Y-87000000D03*
%TO.P,R25,2*%
%TO.N,FAN4_PWM*%
X112825000Y-87000000D03*
%TD*%
%TO.P,R12,1*%
%TO.N,CH3_EN*%
X103175000Y-75500000D03*
%TO.P,R12,2*%
%TO.N,PGND*%
X104825000Y-75500000D03*
%TD*%
D19*
%TO.P,Q4,1*%
%TO.N,CH3_PG*%
X98062500Y-69050000D03*
%TO.P,Q4,2*%
%TO.N,CH3_FUSED*%
X98062500Y-70950000D03*
%TO.P,Q4,3*%
%TO.N,FAN3_12V*%
X99937500Y-70000000D03*
%TD*%
%TO.P,Q11,1*%
%TO.N,PWM2_G*%
X81562500Y-79050000D03*
%TO.P,Q11,2*%
%TO.N,PGND*%
X81562500Y-80950000D03*
%TO.P,Q11,3*%
%TO.N,PWM2_D*%
X83437500Y-80000000D03*
%TD*%
D10*
%TO.P,R24,1*%
%TO.N,PWM3_D*%
X93175000Y-87000000D03*
%TO.P,R24,2*%
%TO.N,FAN3_PWM*%
X94825000Y-87000000D03*
%TD*%
%TO.P,R43,1*%
%TO.N,V12P_SENSE*%
X71175000Y-60500000D03*
%TO.P,R43,2*%
%TO.N,GND*%
X72825000Y-60500000D03*
%TD*%
%TO.P,R39,1*%
%TO.N,CH2_SENSE*%
X85175000Y-80000000D03*
%TO.P,R39,2*%
%TO.N,PGND*%
X86825000Y-80000000D03*
%TD*%
D19*
%TO.P,Q8,1*%
%TO.N,CH3_EN*%
X99562500Y-74550000D03*
%TO.P,Q8,2*%
%TO.N,PGND*%
X99562500Y-76450000D03*
%TO.P,Q8,3*%
%TO.N,CH3_GD*%
X101437500Y-75500000D03*
%TD*%
D24*
%TO.P,D13,1*%
%TO.N,FAN3_PWM*%
X95400000Y-83500000D03*
%TO.P,D13,2*%
%TO.N,PGND*%
X98600000Y-83500000D03*
%TD*%
D23*
%TO.P,D7,1*%
%TO.N,+3V3*%
X71350000Y-42500000D03*
%TO.P,D7,2*%
%TO.N,TACH1*%
X74650000Y-42500000D03*
%TD*%
D10*
%TO.P,R27,1*%
%TO.N,FAN2_TACH*%
X78175000Y-87000000D03*
%TO.P,R27,2*%
%TO.N,+3V3*%
X79825000Y-87000000D03*
%TD*%
%TO.P,R19,1*%
%TO.N,PWM2_G*%
X74575000Y-80000000D03*
%TO.P,R19,2*%
%TO.N,PGND*%
X76225000Y-80000000D03*
%TD*%
D13*
%TO.P,TP7,1*%
%TO.N,FAN3_PWM*%
X95000000Y-89800000D03*
%TD*%
D10*
%TO.P,R11,1*%
%TO.N,CH2_EN*%
X85175000Y-75500000D03*
%TO.P,R11,2*%
%TO.N,PGND*%
X86825000Y-75500000D03*
%TD*%
D16*
%TO.P,C11,1*%
%TO.N,TACH3*%
X81225000Y-46000000D03*
%TO.P,C11,2*%
%TO.N,GND*%
X82775000Y-46000000D03*
%TD*%
D10*
%TO.P,R48,1*%
%TO.N,SWD_DIO*%
X97175000Y-45080000D03*
%TO.P,R48,2*%
%TO.N,SWDIO*%
X98825000Y-45080000D03*
%TD*%
D15*
%TO.P,F2,1*%
%TO.N,V12P*%
X76000000Y-66510000D03*
%TO.P,F2,2*%
%TO.N,CH2_FUSED*%
X76000000Y-71490000D03*
%TD*%
D19*
%TO.P,Q5,1*%
%TO.N,CH4_PG*%
X116062500Y-69050000D03*
%TO.P,Q5,2*%
%TO.N,CH4_FUSED*%
X116062500Y-70950000D03*
%TO.P,Q5,3*%
%TO.N,FAN4_12V*%
X117937500Y-70000000D03*
%TD*%
D13*
%TO.P,TP9,1*%
%TO.N,FAN1_TACH*%
X69000000Y-89800000D03*
%TD*%
D10*
%TO.P,R30,1*%
%TO.N,FAN1_TACH*%
X63175000Y-87000000D03*
%TO.P,R30,2*%
%TO.N,TACH1*%
X64825000Y-87000000D03*
%TD*%
D24*
%TO.P,D18,1*%
%TO.N,FAN4_TACH*%
X119400000Y-83500000D03*
%TO.P,D18,2*%
%TO.N,PGND*%
X122600000Y-83500000D03*
%TD*%
D22*
%TO.P,R37,1*%
%TO.N,FAN4_12V*%
X121825000Y-87000000D03*
%TO.P,R37,2*%
%TO.N,CH4_SENSE*%
X120175000Y-87000000D03*
%TD*%
D13*
%TO.P,TP6,1*%
%TO.N,FAN2_PWM*%
X77000000Y-89800000D03*
%TD*%
%TO.P,TP5,1*%
%TO.N,FAN1_PWM*%
X59000000Y-89800000D03*
%TD*%
D10*
%TO.P,R49,1*%
%TO.N,SWD_CLK*%
X97175000Y-47620000D03*
%TO.P,R49,2*%
%TO.N,SWCLK*%
X98825000Y-47620000D03*
%TD*%
%TO.P,R4,1*%
%TO.N,CH3_PG*%
X92575000Y-75500000D03*
%TO.P,R4,2*%
%TO.N,CH3_FUSED*%
X94225000Y-75500000D03*
%TD*%
D19*
%TO.P,Q3,1*%
%TO.N,CH2_PG*%
X80062500Y-69050000D03*
%TO.P,Q3,2*%
%TO.N,CH2_FUSED*%
X80062500Y-70950000D03*
%TO.P,Q3,3*%
%TO.N,FAN2_12V*%
X81937500Y-70000000D03*
%TD*%
D10*
%TO.P,R33,1*%
%TO.N,FAN4_TACH*%
X117175000Y-87000000D03*
%TO.P,R33,2*%
%TO.N,TACH4*%
X118825000Y-87000000D03*
%TD*%
%TO.P,R40,1*%
%TO.N,CH3_SENSE*%
X103175000Y-80000000D03*
%TO.P,R40,2*%
%TO.N,PGND*%
X104825000Y-80000000D03*
%TD*%
D25*
%TO.P,D19,1*%
%TO.N,GND*%
X117150000Y-42540000D03*
%TO.P,D19,2*%
%TO.N,HOST_TX*%
X117850000Y-42540000D03*
%TD*%
D10*
%TO.P,R22,1*%
%TO.N,PWM1_D*%
X57175000Y-87000000D03*
%TO.P,R22,2*%
%TO.N,FAN1_PWM*%
X58825000Y-87000000D03*
%TD*%
%TO.P,R18,1*%
%TO.N,PWM1_G*%
X56575000Y-80000000D03*
%TO.P,R18,2*%
%TO.N,PGND*%
X58225000Y-80000000D03*
%TD*%
D19*
%TO.P,Q2,1*%
%TO.N,CH1_PG*%
X62062500Y-69050000D03*
%TO.P,Q2,2*%
%TO.N,CH1_FUSED*%
X62062500Y-70950000D03*
%TO.P,Q2,3*%
%TO.N,FAN1_12V*%
X63937500Y-70000000D03*
%TD*%
D23*
%TO.P,D10,1*%
%TO.N,+3V3*%
X87850000Y-42500000D03*
%TO.P,D10,2*%
%TO.N,TACH4*%
X91150000Y-42500000D03*
%TD*%
D13*
%TO.P,TP4,1*%
%TO.N,PGND*%
X73000000Y-92000000D03*
%TD*%
D26*
%TO.P,J1,1*%
%TO.N,V12IN*%
X41460000Y-90000000D03*
D27*
%TO.P,J1,2*%
%TO.N,PGND*%
X46540000Y-90000000D03*
%TD*%
D24*
%TO.P,D17,1*%
%TO.N,FAN3_TACH*%
X101400000Y-83500000D03*
%TO.P,D17,2*%
%TO.N,PGND*%
X104600000Y-83500000D03*
%TD*%
D25*
%TO.P,D21,1*%
%TO.N,GND*%
X94650000Y-45080000D03*
%TO.P,D21,2*%
%TO.N,SWD_DIO*%
X95350000Y-45080000D03*
%TD*%
D24*
%TO.P,D16,1*%
%TO.N,FAN2_TACH*%
X83400000Y-83500000D03*
%TO.P,D16,2*%
%TO.N,PGND*%
X86600000Y-83500000D03*
%TD*%
D10*
%TO.P,R1,1*%
%TO.N,PFET_G*%
X37175000Y-71000000D03*
%TO.P,R1,2*%
%TO.N,PGND*%
X38825000Y-71000000D03*
%TD*%
D25*
%TO.P,D20,1*%
%TO.N,GND*%
X117150000Y-45080000D03*
%TO.P,D20,2*%
%TO.N,HOST_RX*%
X117850000Y-45080000D03*
%TD*%
D12*
%TO.P,C1,1*%
%TO.N,V12P*%
X43300000Y-70000000D03*
%TO.P,C1,2*%
%TO.N,PGND*%
X48700000Y-70000000D03*
%TD*%
D19*
%TO.P,Q10,1*%
%TO.N,PWM1_G*%
X63562500Y-79050000D03*
%TO.P,Q10,2*%
%TO.N,PGND*%
X63562500Y-80950000D03*
%TO.P,Q10,3*%
%TO.N,PWM1_D*%
X65437500Y-80000000D03*
%TD*%
D10*
%TO.P,R5,1*%
%TO.N,CH4_PG*%
X110575000Y-75500000D03*
%TO.P,R5,2*%
%TO.N,CH4_FUSED*%
X112225000Y-75500000D03*
%TD*%
D11*
%TO.P,D5,1*%
%TO.N,FAN4_12V*%
X121000000Y-71650000D03*
%TO.P,D5,2*%
%TO.N,PGND*%
X121000000Y-68350000D03*
%TD*%
D10*
%TO.P,R10,1*%
%TO.N,CH1_EN*%
X67175000Y-75500000D03*
%TO.P,R10,2*%
%TO.N,PGND*%
X68825000Y-75500000D03*
%TD*%
D28*
%TO.P,D24,1*%
%TO.N,GND*%
X65212500Y-52000000D03*
%TO.P,D24,2*%
%TO.N,PWR_LED_A*%
X66787500Y-52000000D03*
%TD*%
D10*
%TO.P,R2,1*%
%TO.N,CH1_PG*%
X56575000Y-75500000D03*
%TO.P,R2,2*%
%TO.N,CH1_FUSED*%
X58225000Y-75500000D03*
%TD*%
D29*
%TO.P,Q1,1*%
%TO.N,V12P*%
X35525000Y-74095000D03*
%TO.P,Q1,2*%
X35525000Y-75365000D03*
%TO.P,Q1,3*%
X35525000Y-76635000D03*
%TO.P,Q1,4*%
%TO.N,PFET_G*%
X35525000Y-77905000D03*
%TO.P,Q1,5*%
%TO.N,V12IN*%
X40475000Y-77905000D03*
%TO.P,Q1,6*%
X40475000Y-76635000D03*
%TO.P,Q1,7*%
X40475000Y-75365000D03*
%TO.P,Q1,8*%
X40475000Y-74095000D03*
%TD*%
D15*
%TO.P,F4,1*%
%TO.N,V12P*%
X112000000Y-66510000D03*
%TO.P,F4,2*%
%TO.N,CH4_FUSED*%
X112000000Y-71490000D03*
%TD*%
D10*
%TO.P,R16,1*%
%TO.N,PWM3*%
X95875000Y-80000000D03*
%TO.P,R16,2*%
%TO.N,PWM3_G*%
X97525000Y-80000000D03*
%TD*%
D30*
%TO.P,J5,1*%
%TO.N,PGND*%
X114190000Y-95000000D03*
D31*
%TO.P,J5,2*%
%TO.N,FAN4_12V*%
X116730000Y-95000000D03*
%TO.P,J5,3*%
%TO.N,FAN4_TACH*%
X119270000Y-95000000D03*
%TO.P,J5,4*%
%TO.N,FAN4_PWM*%
X121810000Y-95000000D03*
%TD*%
D17*
%TO.P,C8,1*%
%TO.N,NRST*%
X81000000Y-56775000D03*
%TO.P,C8,2*%
%TO.N,GND*%
X81000000Y-55225000D03*
%TD*%
D10*
%TO.P,R44,1*%
%TO.N,+3V3*%
X61675000Y-52000000D03*
%TO.P,R44,2*%
%TO.N,PWR_LED_A*%
X63325000Y-52000000D03*
%TD*%
D13*
%TO.P,TP8,1*%
%TO.N,FAN4_PWM*%
X113000000Y-89800000D03*
%TD*%
D10*
%TO.P,R47,1*%
%TO.N,HOST_RX*%
X113175000Y-45080000D03*
%TO.P,R47,2*%
%TO.N,UART_RX*%
X114825000Y-45080000D03*
%TD*%
D32*
%TO.P,C5,1*%
%TO.N,+3V3*%
X54050000Y-52000000D03*
%TO.P,C5,2*%
%TO.N,GND*%
X55950000Y-52000000D03*
%TD*%
D16*
%TO.P,C4,1*%
%TO.N,VHOLD*%
X44225000Y-52000000D03*
%TO.P,C4,2*%
%TO.N,GND*%
X45775000Y-52000000D03*
%TD*%
D11*
%TO.P,D4,1*%
%TO.N,FAN3_12V*%
X103000000Y-71650000D03*
%TO.P,D4,2*%
%TO.N,PGND*%
X103000000Y-68350000D03*
%TD*%
D10*
%TO.P,R15,1*%
%TO.N,PWM2*%
X77875000Y-80000000D03*
%TO.P,R15,2*%
%TO.N,PWM2_G*%
X79525000Y-80000000D03*
%TD*%
D13*
%TO.P,TP11,1*%
%TO.N,FAN3_TACH*%
X105000000Y-89800000D03*
%TD*%
D11*
%TO.P,D3,1*%
%TO.N,FAN2_12V*%
X85000000Y-71650000D03*
%TO.P,D3,2*%
%TO.N,PGND*%
X85000000Y-68350000D03*
%TD*%
D10*
%TO.P,R13,1*%
%TO.N,CH4_EN*%
X121175000Y-75500000D03*
%TO.P,R13,2*%
%TO.N,PGND*%
X122825000Y-75500000D03*
%TD*%
D13*
%TO.P,TP12,1*%
%TO.N,FAN4_TACH*%
X123000000Y-89800000D03*
%TD*%
D10*
%TO.P,R41,1*%
%TO.N,CH4_SENSE*%
X121175000Y-80000000D03*
%TO.P,R41,2*%
%TO.N,PGND*%
X122825000Y-80000000D03*
%TD*%
D33*
%TO.P,R45,1*%
%TO.N,GND*%
X79000000Y-62875000D03*
%TO.P,R45,2*%
%TO.N,PGND*%
X79000000Y-64525000D03*
%TD*%
D34*
%TO.P,U1,1*%
%TO.N,unconnected-(U1-PB9-Pad1)*%
X83825000Y-51200000D03*
%TO.P,U1,2*%
%TO.N,unconnected-(U1-PC14-Pad2)*%
X83825000Y-52000000D03*
%TO.P,U1,3*%
%TO.N,unconnected-(U1-PC15-Pad3)*%
X83825000Y-52800000D03*
%TO.P,U1,4*%
%TO.N,+3V3*%
X83825000Y-53600000D03*
%TO.P,U1,5*%
%TO.N,GND*%
X83825000Y-54400000D03*
%TO.P,U1,6*%
%TO.N,NRST*%
X83825000Y-55200000D03*
%TO.P,U1,7*%
%TO.N,CH1_SENSE*%
X83825000Y-56000000D03*
%TO.P,U1,8*%
%TO.N,V12P_SENSE*%
X83825000Y-56800000D03*
D35*
%TO.P,U1,9*%
%TO.N,UART_TX*%
X85200000Y-58175000D03*
%TO.P,U1,10*%
%TO.N,UART_RX*%
X86000000Y-58175000D03*
%TO.P,U1,11*%
%TO.N,CH2_SENSE*%
X86800000Y-58175000D03*
%TO.P,U1,12*%
%TO.N,unconnected-(U1-PA5-Pad12)*%
X87600000Y-58175000D03*
%TO.P,U1,13*%
%TO.N,PWM1*%
X88400000Y-58175000D03*
%TO.P,U1,14*%
%TO.N,PWM2*%
X89200000Y-58175000D03*
%TO.P,U1,15*%
%TO.N,PWM3*%
X90000000Y-58175000D03*
%TO.P,U1,16*%
%TO.N,PWM4*%
X90800000Y-58175000D03*
D34*
%TO.P,U1,17*%
%TO.N,CH1_EN*%
X92175000Y-56800000D03*
%TO.P,U1,18*%
%TO.N,TACH1*%
X92175000Y-56000000D03*
%TO.P,U1,19*%
%TO.N,unconnected-(U1-NC{slash}PA9-Pad19)*%
X92175000Y-55200000D03*
%TO.P,U1,20*%
%TO.N,unconnected-(U1-PC6-Pad20)*%
X92175000Y-54400000D03*
%TO.P,U1,21*%
%TO.N,unconnected-(U1-NC{slash}PA10-Pad21)*%
X92175000Y-53600000D03*
%TO.P,U1,22*%
%TO.N,TACH4*%
X92175000Y-52800000D03*
%TO.P,U1,23*%
%TO.N,CH3_SENSE*%
X92175000Y-52000000D03*
%TO.P,U1,24*%
%TO.N,SWDIO*%
X92175000Y-51200000D03*
D35*
%TO.P,U1,25*%
%TO.N,SWCLK*%
X90800000Y-49825000D03*
%TO.P,U1,26*%
%TO.N,unconnected-(U1-PA15-Pad26)*%
X90000000Y-49825000D03*
%TO.P,U1,27*%
%TO.N,TACH2*%
X89200000Y-49825000D03*
%TO.P,U1,28*%
%TO.N,CH2_EN*%
X88400000Y-49825000D03*
%TO.P,U1,29*%
%TO.N,CH3_EN*%
X87600000Y-49825000D03*
%TO.P,U1,30*%
%TO.N,TACH3*%
X86800000Y-49825000D03*
%TO.P,U1,31*%
%TO.N,CH4_SENSE*%
X86000000Y-49825000D03*
%TO.P,U1,32*%
%TO.N,CH4_EN*%
X85200000Y-49825000D03*
%TD*%
D23*
%TO.P,D9,1*%
%TO.N,+3V3*%
X82350000Y-42500000D03*
%TO.P,D9,2*%
%TO.N,TACH3*%
X85650000Y-42500000D03*
%TD*%
D10*
%TO.P,R38,1*%
%TO.N,CH1_SENSE*%
X67175000Y-80000000D03*
%TO.P,R38,2*%
%TO.N,PGND*%
X68825000Y-80000000D03*
%TD*%
D24*
%TO.P,D12,1*%
%TO.N,FAN2_PWM*%
X77400000Y-83500000D03*
%TO.P,D12,2*%
%TO.N,PGND*%
X80600000Y-83500000D03*
%TD*%
D25*
%TO.P,D22,1*%
%TO.N,GND*%
X94650000Y-47620000D03*
%TO.P,D22,2*%
%TO.N,SWD_CLK*%
X95350000Y-47620000D03*
%TD*%
D10*
%TO.P,R21,1*%
%TO.N,PWM4_G*%
X110575000Y-80000000D03*
%TO.P,R21,2*%
%TO.N,PGND*%
X112225000Y-80000000D03*
%TD*%
%TO.P,R20,1*%
%TO.N,PWM3_G*%
X92575000Y-80000000D03*
%TO.P,R20,2*%
%TO.N,PGND*%
X94225000Y-80000000D03*
%TD*%
D24*
%TO.P,D11,1*%
%TO.N,FAN1_PWM*%
X59400000Y-83500000D03*
%TO.P,D11,2*%
%TO.N,PGND*%
X62600000Y-83500000D03*
%TD*%
D15*
%TO.P,F1,1*%
%TO.N,V12P*%
X58000000Y-66510000D03*
%TO.P,F1,2*%
%TO.N,CH1_FUSED*%
X58000000Y-71490000D03*
%TD*%
D25*
%TO.P,D23,1*%
%TO.N,GND*%
X94650000Y-50160000D03*
%TO.P,D23,2*%
%TO.N,NRST*%
X95350000Y-50160000D03*
%TD*%
D36*
%TO.P,D6,1*%
%TO.N,VHOLD*%
X38000000Y-58850000D03*
%TO.P,D6,2*%
%TO.N,V12P*%
X38000000Y-62150000D03*
%TD*%
D10*
%TO.P,R46,1*%
%TO.N,HOST_TX*%
X113175000Y-42540000D03*
%TO.P,R46,2*%
%TO.N,UART_TX*%
X114825000Y-42540000D03*
%TD*%
D37*
%TO.P,R42,1*%
%TO.N,V12P*%
X72000000Y-65225000D03*
%TO.P,R42,2*%
%TO.N,V12P_SENSE*%
X72000000Y-63575000D03*
%TD*%
D19*
%TO.P,Q6,1*%
%TO.N,CH1_EN*%
X63562500Y-74550000D03*
%TO.P,Q6,2*%
%TO.N,PGND*%
X63562500Y-76450000D03*
%TO.P,Q6,3*%
%TO.N,CH1_GD*%
X65437500Y-75500000D03*
%TD*%
%TO.P,Q7,1*%
%TO.N,CH2_EN*%
X81562500Y-74550000D03*
%TO.P,Q7,2*%
%TO.N,PGND*%
X81562500Y-76450000D03*
%TO.P,Q7,3*%
%TO.N,CH2_GD*%
X83437500Y-75500000D03*
%TD*%
D22*
%TO.P,R35,1*%
%TO.N,FAN2_12V*%
X85825000Y-87000000D03*
%TO.P,R35,2*%
%TO.N,CH2_SENSE*%
X84175000Y-87000000D03*
%TD*%
D10*
%TO.P,R32,1*%
%TO.N,FAN3_TACH*%
X99175000Y-87000000D03*
%TO.P,R32,2*%
%TO.N,TACH3*%
X100825000Y-87000000D03*
%TD*%
D24*
%TO.P,D15,1*%
%TO.N,FAN1_TACH*%
X65400000Y-83500000D03*
%TO.P,D15,2*%
%TO.N,PGND*%
X68600000Y-83500000D03*
%TD*%
D20*
%TO.P,J7,1*%
%TO.N,GND*%
X102000000Y-40000000D03*
D21*
%TO.P,J7,2*%
%TO.N,+3V3*%
X102000000Y-42540000D03*
%TO.P,J7,3*%
%TO.N,SWD_DIO*%
X102000000Y-45080000D03*
%TO.P,J7,4*%
%TO.N,SWD_CLK*%
X102000000Y-47620000D03*
%TO.P,J7,5*%
%TO.N,NRST*%
X102000000Y-50160000D03*
%TD*%
D10*
%TO.P,R29,1*%
%TO.N,FAN4_TACH*%
X114175000Y-87000000D03*
%TO.P,R29,2*%
%TO.N,+3V3*%
X115825000Y-87000000D03*
%TD*%
D30*
%TO.P,J4,1*%
%TO.N,PGND*%
X96190000Y-95000000D03*
D31*
%TO.P,J4,2*%
%TO.N,FAN3_12V*%
X98730000Y-95000000D03*
%TO.P,J4,3*%
%TO.N,FAN3_TACH*%
X101270000Y-95000000D03*
%TO.P,J4,4*%
%TO.N,FAN3_PWM*%
X103810000Y-95000000D03*
%TD*%
D24*
%TO.P,D14,1*%
%TO.N,FAN4_PWM*%
X113400000Y-83500000D03*
%TO.P,D14,2*%
%TO.N,PGND*%
X116600000Y-83500000D03*
%TD*%
D16*
%TO.P,C9,1*%
%TO.N,TACH1*%
X73225000Y-46000000D03*
%TO.P,C9,2*%
%TO.N,GND*%
X74775000Y-46000000D03*
%TD*%
D19*
%TO.P,Q9,1*%
%TO.N,CH4_EN*%
X117562500Y-74550000D03*
%TO.P,Q9,2*%
%TO.N,PGND*%
X117562500Y-76450000D03*
%TO.P,Q9,3*%
%TO.N,CH4_GD*%
X119437500Y-75500000D03*
%TD*%
D16*
%TO.P,C6,1*%
%TO.N,+3V3*%
X58225000Y-52000000D03*
%TO.P,C6,2*%
%TO.N,GND*%
X59775000Y-52000000D03*
%TD*%
D22*
%TO.P,R34,1*%
%TO.N,FAN1_12V*%
X67825000Y-87000000D03*
%TO.P,R34,2*%
%TO.N,CH1_SENSE*%
X66175000Y-87000000D03*
%TD*%
D30*
%TO.P,J2,1*%
%TO.N,PGND*%
X60190000Y-95000000D03*
D31*
%TO.P,J2,2*%
%TO.N,FAN1_12V*%
X62730000Y-95000000D03*
%TO.P,J2,3*%
%TO.N,FAN1_TACH*%
X65270000Y-95000000D03*
%TO.P,J2,4*%
%TO.N,FAN1_PWM*%
X67810000Y-95000000D03*
%TD*%
D30*
%TO.P,J3,1*%
%TO.N,PGND*%
X78190000Y-95000000D03*
D31*
%TO.P,J3,2*%
%TO.N,FAN2_12V*%
X80730000Y-95000000D03*
%TO.P,J3,3*%
%TO.N,FAN2_TACH*%
X83270000Y-95000000D03*
%TO.P,J3,4*%
%TO.N,FAN2_PWM*%
X85810000Y-95000000D03*
%TD*%
D10*
%TO.P,R17,1*%
%TO.N,PWM4*%
X113875000Y-80000000D03*
%TO.P,R17,2*%
%TO.N,PWM4_G*%
X115525000Y-80000000D03*
%TD*%
D38*
%TO.P,U2,1*%
%TO.N,GND*%
X48050000Y-50500000D03*
D39*
%TO.P,U2,2*%
%TO.N,VHOLD*%
X48137500Y-52000000D03*
D38*
%TO.P,U2,3*%
%TO.N,+3V3*%
X48050000Y-53500000D03*
%TD*%
D10*
%TO.P,R3,1*%
%TO.N,CH2_PG*%
X74575000Y-75500000D03*
%TO.P,R3,2*%
%TO.N,CH2_FUSED*%
X76225000Y-75500000D03*
%TD*%
%TO.P,R14,1*%
%TO.N,PWM1*%
X59875000Y-80000000D03*
%TO.P,R14,2*%
%TO.N,PWM1_G*%
X61525000Y-80000000D03*
%TD*%
%TO.P,R6,1*%
%TO.N,CH1_PG*%
X59875000Y-75500000D03*
%TO.P,R6,2*%
%TO.N,CH1_GD*%
X61525000Y-75500000D03*
%TD*%
D40*
%TO.N,PGND*%
X81562500Y-81900000D03*
X94225000Y-81125000D03*
X65750000Y-68350000D03*
X80600000Y-84750000D03*
X38825000Y-72125000D03*
X122600000Y-84750000D03*
X76225000Y-81125000D03*
X68600000Y-84750000D03*
X119750000Y-68350000D03*
X63562500Y-81900000D03*
X68825000Y-81125000D03*
X99562500Y-77400000D03*
X104825000Y-81125000D03*
X99562500Y-81900000D03*
X83750000Y-68350000D03*
X68825000Y-76625000D03*
X122825000Y-81125000D03*
X63562500Y-77400000D03*
X104600000Y-84750000D03*
X86825000Y-76625000D03*
X58225000Y-81125000D03*
X80125000Y-64525000D03*
X54125000Y-70775000D03*
X112225000Y-81125000D03*
X101750000Y-68350000D03*
X62600000Y-84750000D03*
X48000000Y-77549999D03*
X116600000Y-84750000D03*
X98600000Y-84750000D03*
X117562500Y-77400000D03*
X73000000Y-93150000D03*
X48700000Y-71450000D03*
X122825000Y-76625000D03*
X81562500Y-77400000D03*
X117562500Y-81900000D03*
X86600000Y-84750000D03*
X86825000Y-81125000D03*
X104825000Y-76625000D03*
%TO.N,GND*%
X65212500Y-53125000D03*
X45775000Y-53125000D03*
X94650000Y-51060000D03*
X82775000Y-47125000D03*
X72825000Y-61625000D03*
X55950000Y-53375000D03*
X40700000Y-53450000D03*
X117150000Y-43440000D03*
X79875000Y-51225000D03*
X85225000Y-54400000D03*
X48050000Y-49400000D03*
X94650000Y-48520000D03*
X58000000Y-58150000D03*
X86775000Y-47125000D03*
X94650000Y-45980000D03*
X117150000Y-45980000D03*
X79875000Y-55225000D03*
X59775000Y-53125000D03*
X78775000Y-47125000D03*
X74775000Y-47125000D03*
X80125000Y-62875000D03*
%TO.N,FAN2_TACH*%
X82100000Y-88800000D03*
X82000000Y-86000000D03*
%TO.N,CH3_FUSED*%
X92800000Y-74300000D03*
X93900000Y-73200000D03*
%TO.N,TACH4*%
X119100000Y-85800000D03*
X99700000Y-54300000D03*
X92800000Y-42000000D03*
X93500000Y-40300000D03*
X100800000Y-55400000D03*
X126400000Y-87700000D03*
%TO.N,+3V3*%
X54600000Y-68500000D03*
X85300000Y-89400000D03*
X83500000Y-42200000D03*
X114950000Y-86250000D03*
X81100000Y-39700000D03*
X95400000Y-85900000D03*
X54600000Y-63400000D03*
X99100000Y-39400000D03*
X99100000Y-35600000D03*
X86700000Y-41600000D03*
%TO.N,PWM2_D*%
X75900000Y-84800000D03*
X80600000Y-80000000D03*
%TO.N,FAN2_PWM*%
X76000000Y-86000000D03*
X76000000Y-88800000D03*
X78400000Y-84600000D03*
%TO.N,CH4_PG*%
X118000000Y-69000000D03*
X115800000Y-73500000D03*
%TO.N,TACH2*%
X78400000Y-73900000D03*
X83400000Y-85700000D03*
X74400000Y-48300000D03*
X89900000Y-45900000D03*
X76200000Y-58700000D03*
X85300000Y-83300000D03*
X88100000Y-39000000D03*
X75300000Y-63400000D03*
%TO.N,PWM3_G*%
X93400000Y-79000000D03*
X96700000Y-81000000D03*
%TO.N,CH3_PG*%
X98100000Y-70000000D03*
X97900000Y-72000000D03*
%TO.N,HOST_TX*%
X113100000Y-41000000D03*
X111500000Y-40700000D03*
%TO.N,HOST_RX*%
X113100000Y-47000000D03*
X111500000Y-47000000D03*
%TO.N,CH3_SENSE*%
X96700000Y-68500000D03*
X90700000Y-56600000D03*
X93300000Y-59200000D03*
X102700000Y-83100000D03*
X102717400Y-85735000D03*
X96700000Y-64600000D03*
%TO.N,FAN1_TACH*%
X64000000Y-88800000D03*
X64000000Y-86000000D03*
%TO.N,PWM4_G*%
X111400000Y-79000000D03*
X114700000Y-81000000D03*
%TO.N,FAN4_PWM*%
X114100000Y-89300000D03*
X112200000Y-88100000D03*
%TO.N,CH3_EN*%
X98200000Y-64600000D03*
X99100000Y-71900000D03*
%TO.N,V12P_SENSE*%
X79300000Y-61400000D03*
X83600000Y-58400000D03*
X75300000Y-61200000D03*
X73400000Y-59300000D03*
X82500000Y-59500000D03*
%TO.N,CH2_SENSE*%
X85700000Y-64600000D03*
X84800000Y-76700000D03*
X87200000Y-60200000D03*
X87200000Y-56700000D03*
%TO.N,TACH1*%
X64900000Y-64600000D03*
X66900000Y-74100000D03*
X94000000Y-56500000D03*
X65300000Y-85800000D03*
X73500000Y-42600000D03*
X65100000Y-70900000D03*
X76400000Y-49200000D03*
X74000000Y-44600000D03*
X85200000Y-51300000D03*
X87000000Y-54100000D03*
%TO.N,CH2_EN*%
X84500000Y-64650000D03*
X84025000Y-74575000D03*
X81450000Y-59200000D03*
X88700000Y-48300000D03*
%TO.N,TACH3*%
X108400000Y-86800000D03*
X106600000Y-86100000D03*
X84300000Y-42700000D03*
X84000000Y-40600000D03*
%TO.N,SWD_DIO*%
X99900000Y-45800000D03*
X97700000Y-46200000D03*
%TO.N,SWDIO*%
X87900000Y-51300000D03*
X87900000Y-46800000D03*
%TO.N,CH2_FUSED*%
X78700000Y-76500000D03*
X80900000Y-72300000D03*
%TO.N,CH4_FUSED*%
X114200000Y-70000000D03*
X116100000Y-70000000D03*
%TO.N,CH4_SENSE*%
X109700000Y-64600000D03*
X109700000Y-68500000D03*
X120600000Y-85100000D03*
X120600000Y-82700000D03*
X100400000Y-59200000D03*
X90100000Y-54200000D03*
%TO.N,FAN1_PWM*%
X58000000Y-86000000D03*
X58000000Y-88800000D03*
%TO.N,SWCLK*%
X96300000Y-51100000D03*
X97400000Y-50000000D03*
%TO.N,PWM1_D*%
X63000000Y-80000000D03*
X58300000Y-84500000D03*
%TO.N,PWM1_G*%
X60900000Y-78900000D03*
X59100000Y-78900000D03*
%TO.N,CH1_PG*%
X63500000Y-71000000D03*
X62500000Y-70000000D03*
%TO.N,CH1_FUSED*%
X61100000Y-71900000D03*
X59200000Y-69900000D03*
%TO.N,CH1_EN*%
X88600000Y-73500000D03*
X94400000Y-61400000D03*
X75800000Y-73100000D03*
X93400000Y-64600000D03*
X95900000Y-59500000D03*
X70600000Y-72900000D03*
%TO.N,PWM3*%
X90800000Y-64600000D03*
X90700000Y-59600000D03*
X92000000Y-60900000D03*
X90800000Y-68500000D03*
%TO.N,NRST*%
X79100000Y-55800000D03*
X95800000Y-53100000D03*
X85300000Y-53400000D03*
X87800000Y-53600000D03*
X94500000Y-52100000D03*
%TO.N,UART_RX*%
X103800000Y-58600000D03*
X85600000Y-61400000D03*
%TO.N,PWM2*%
X78600000Y-68800000D03*
X89800000Y-60200000D03*
X89200000Y-56700000D03*
X87500000Y-63700000D03*
%TO.N,CH4_EN*%
X132600000Y-67900000D03*
X80600000Y-38900000D03*
X124600000Y-73200000D03*
X81500000Y-47200000D03*
%TO.N,CH1_SENSE*%
X66900000Y-85900000D03*
X69900000Y-75000000D03*
X65800000Y-84800000D03*
X75200000Y-64600000D03*
%TO.N,UART_TX*%
X76600000Y-56100000D03*
X84300000Y-59100000D03*
%TO.N,PWM1*%
X67700000Y-64600000D03*
X82300000Y-55600000D03*
X88700000Y-55500000D03*
X62100000Y-76600000D03*
%TO.N,PWM4*%
X104300000Y-68500000D03*
X98800000Y-63500000D03*
%TD*%
%TO.N,CH2_PG*%
D41*
X80062500Y-69050000D02*
X80100000Y-69000000D01*
X74000000Y-72300000D02*
X74000000Y-72400000D01*
X74600000Y-75400000D02*
X74600000Y-75500000D01*
X77000000Y-74600000D02*
X77900000Y-75500000D01*
X76200000Y-74600000D02*
X77000000Y-74600000D01*
X74600000Y-75500000D02*
X74575000Y-75500000D01*
X77900000Y-75500000D02*
X77875000Y-75500000D01*
X75800000Y-74200000D02*
X74600000Y-75400000D01*
X73900000Y-70700000D02*
X73900000Y-72200000D01*
X73900000Y-72200000D02*
X74000000Y-72300000D01*
X79000000Y-70100000D02*
X74500000Y-70100000D01*
X80100000Y-69000000D02*
X79000000Y-70100000D01*
X74000000Y-72400000D02*
X76200000Y-74600000D01*
X74500000Y-70100000D02*
X73900000Y-70700000D01*
%TO.N,CH2_GD*%
X79500000Y-75500000D02*
X83437500Y-75500000D01*
X79525000Y-75500000D02*
X79500000Y-75500000D01*
%TO.N,FAN1_12V*%
D42*
X71500000Y-70000000D02*
X71500000Y-97500000D01*
X67825000Y-87000000D02*
X71500000Y-87000000D01*
X71500000Y-97500000D02*
X62730000Y-97500000D01*
X62730000Y-97500000D02*
X62730000Y-95000000D01*
X63937500Y-70000000D02*
X71500000Y-70000000D01*
X67000000Y-71650000D02*
X71500000Y-71650000D01*
%TO.N,PGND*%
D43*
X86825000Y-75500000D02*
X86825000Y-76625000D01*
X81562500Y-80950000D02*
X81562500Y-81900000D01*
X68825000Y-75500000D02*
X68825000Y-76625000D01*
X68825000Y-80000000D02*
X68825000Y-81125000D01*
X122825000Y-80000000D02*
X122825000Y-81125000D01*
X38825000Y-71000000D02*
X38825000Y-72125000D01*
X79000000Y-64525000D02*
X80125000Y-64525000D01*
X62600000Y-83500000D02*
X62600000Y-84750000D01*
X85000000Y-68350000D02*
X83750000Y-68350000D01*
X48000000Y-76000000D02*
X48000000Y-77549999D01*
X58225000Y-80000000D02*
X58225000Y-81125000D01*
X63562500Y-80950000D02*
X63562500Y-81900000D01*
X67000000Y-68350000D02*
X65750000Y-68350000D01*
X103000000Y-68350000D02*
X101750000Y-68350000D01*
X99562500Y-76450000D02*
X99562500Y-77400000D01*
X80600000Y-83500000D02*
X80600000Y-84750000D01*
X48700000Y-70000000D02*
X48700000Y-71450000D01*
X86825000Y-80000000D02*
X86825000Y-81125000D01*
X117562500Y-76450000D02*
X117562500Y-77400000D01*
X76225000Y-80000000D02*
X76225000Y-81125000D01*
X104600000Y-83500000D02*
X104600000Y-84750000D01*
X121000000Y-68350000D02*
X119750000Y-68350000D01*
X86600000Y-83500000D02*
X86600000Y-84750000D01*
X98600000Y-83500000D02*
X98600000Y-84750000D01*
X68600000Y-83500000D02*
X68600000Y-84750000D01*
X53000000Y-70775000D02*
X54125000Y-70775000D01*
X122600000Y-83500000D02*
X122600000Y-84750000D01*
X104825000Y-80000000D02*
X104825000Y-81125000D01*
X104825000Y-75500000D02*
X104825000Y-76625000D01*
X81562500Y-76450000D02*
X81562500Y-77400000D01*
X122825000Y-75500000D02*
X122825000Y-76625000D01*
X73000000Y-92000000D02*
X73000000Y-93150000D01*
X117562500Y-80950000D02*
X117562500Y-81900000D01*
X94225000Y-80000000D02*
X94225000Y-81125000D01*
X112225000Y-80000000D02*
X112225000Y-81125000D01*
X99562500Y-80950000D02*
X99562500Y-81900000D01*
X63562500Y-76450000D02*
X63562500Y-77400000D01*
X116600000Y-83500000D02*
X116600000Y-84750000D01*
%TO.N,VHOLD*%
D41*
X38000000Y-54700000D02*
X38400000Y-54300000D01*
X44200000Y-52000000D02*
X44225000Y-52000000D01*
X44200000Y-52000000D02*
X44300000Y-52000000D01*
X41900000Y-54300000D02*
X44200000Y-52000000D01*
X47900000Y-52000000D02*
X48137500Y-52000000D01*
X45300000Y-51000000D02*
X46900000Y-51000000D01*
X38000000Y-54700000D02*
X38000000Y-58850000D01*
X35300000Y-52000000D02*
X38000000Y-54700000D01*
X44300000Y-52000000D02*
X45300000Y-51000000D01*
X46900000Y-51000000D02*
X47900000Y-52000000D01*
X38400000Y-54300000D02*
X41900000Y-54300000D01*
%TO.N,GND*%
D43*
X83825000Y-54400000D02*
X85225000Y-54400000D01*
X55950000Y-52000000D02*
X55950000Y-53375000D01*
X117150000Y-42540000D02*
X117150000Y-43440000D01*
X94650000Y-45080000D02*
X94650000Y-45980000D01*
X74775000Y-46000000D02*
X74775000Y-47125000D01*
X58000000Y-57000000D02*
X58000000Y-58150000D01*
X45775000Y-52000000D02*
X45775000Y-53125000D01*
X79000000Y-62875000D02*
X80125000Y-62875000D01*
X86775000Y-46000000D02*
X86775000Y-47125000D01*
X117150000Y-45080000D02*
X117150000Y-45980000D01*
X81000000Y-51225000D02*
X79875000Y-51225000D01*
X40700000Y-52000000D02*
X40700000Y-53450000D01*
X82775000Y-46000000D02*
X82775000Y-47125000D01*
X78775000Y-46000000D02*
X78775000Y-47125000D01*
X72825000Y-60500000D02*
X72825000Y-61625000D01*
X48050000Y-50500000D02*
X48050000Y-49400000D01*
X94650000Y-47620000D02*
X94650000Y-48520000D01*
X65212500Y-52000000D02*
X65212500Y-53125000D01*
X94650000Y-50160000D02*
X94650000Y-51060000D01*
X81000000Y-55225000D02*
X79875000Y-55225000D01*
X59775000Y-52000000D02*
X59775000Y-53125000D01*
%TO.N,FAN2_TACH*%
D41*
X87200000Y-94600000D02*
X87100000Y-94500000D01*
X81200000Y-86800000D02*
X81200000Y-87000000D01*
X83400000Y-84600000D02*
X83400000Y-83500000D01*
X85800000Y-88600000D02*
X82100000Y-88800000D01*
X85200000Y-96400000D02*
X86300000Y-96400000D01*
X78200000Y-87000000D02*
X78175000Y-87000000D01*
X81100000Y-86800000D02*
X80300000Y-86000000D01*
X83300000Y-95000000D02*
X83800000Y-95000000D01*
X87100000Y-95500000D02*
X87200000Y-95400000D01*
X87100000Y-94400000D02*
X87000000Y-94300000D01*
X87000000Y-94300000D02*
X87000000Y-89800000D01*
X79200000Y-86000000D02*
X78200000Y-87000000D01*
X81200000Y-86800000D02*
X81100000Y-86800000D01*
X86300000Y-96400000D02*
X87100000Y-95600000D01*
X82000000Y-86000000D02*
X83400000Y-84600000D01*
X83800000Y-95000000D02*
X85200000Y-96400000D01*
X87200000Y-95400000D02*
X87200000Y-94600000D01*
X87100000Y-95600000D02*
X87100000Y-95500000D01*
X81200000Y-87000000D02*
X81175000Y-87000000D01*
X87000000Y-89800000D02*
X85800000Y-88600000D01*
X80300000Y-86000000D02*
X79200000Y-86000000D01*
X82000000Y-86000000D02*
X81200000Y-86800000D01*
X87100000Y-94500000D02*
X87100000Y-94400000D01*
%TO.N,V12P*%
D42*
X38000000Y-62150000D02*
X38000000Y-66000000D01*
X44000000Y-76000000D02*
X44000000Y-66000000D01*
D44*
X35000000Y-66000000D02*
X112000000Y-66000000D01*
D42*
X53000000Y-69225000D02*
X53000000Y-66000000D01*
%TO.N,CH3_FUSED*%
D41*
X94200000Y-75500000D02*
X94225000Y-75500000D01*
X94800000Y-72300000D02*
X93900000Y-73200000D01*
X94000000Y-71500000D02*
X94100000Y-71500000D01*
X94500000Y-71800000D02*
X94800000Y-72100000D01*
X94500000Y-71000000D02*
X98100000Y-71000000D01*
X92800000Y-74300000D02*
X94200000Y-75500000D01*
X94800000Y-72100000D02*
X94800000Y-72300000D01*
X98100000Y-71000000D02*
X98062500Y-70950000D01*
X94100000Y-71500000D02*
X94400000Y-71800000D01*
X94000000Y-71500000D02*
X94500000Y-71000000D01*
X94400000Y-71800000D02*
X94500000Y-71800000D01*
%TO.N,TACH4*%
X118800000Y-87000000D02*
X118825000Y-87000000D01*
X119100000Y-85800000D02*
X118800000Y-86100000D01*
X106100000Y-52000000D02*
X106100000Y-40900000D01*
X120800000Y-59400000D02*
X126400000Y-65000000D01*
X88700000Y-45000000D02*
X86200000Y-45000000D01*
X100800000Y-55400000D02*
X101200000Y-55800000D01*
X93000000Y-52800000D02*
X94500000Y-54300000D01*
X101200000Y-55800000D02*
X101200000Y-56700000D01*
X106100000Y-40900000D02*
X103200000Y-38000000D01*
X94500000Y-54300000D02*
X99700000Y-54300000D01*
X103200000Y-38000000D02*
X98600000Y-38000000D01*
X92175000Y-52800000D02*
X93000000Y-52800000D01*
X101200000Y-56700000D02*
X102900000Y-58400000D01*
X103400000Y-59400000D02*
X120800000Y-59400000D01*
X92300000Y-42500000D02*
X91200000Y-42500000D01*
X91200000Y-42500000D02*
X88700000Y-45000000D01*
X92800000Y-42000000D02*
X92300000Y-42500000D01*
X95400000Y-38400000D02*
X93500000Y-40300000D01*
X118800000Y-86100000D02*
X118800000Y-87000000D01*
X101300000Y-56800000D02*
X106100000Y-52000000D01*
X102900000Y-58400000D02*
X102900000Y-58900000D01*
X98200000Y-38400000D02*
X95400000Y-38400000D01*
X98600000Y-38000000D02*
X98200000Y-38400000D01*
X91200000Y-42500000D02*
X91150000Y-42500000D01*
X102900000Y-58900000D02*
X103400000Y-59400000D01*
X85200000Y-46000000D02*
X85225000Y-46000000D01*
X126400000Y-65000000D02*
X126400000Y-87700000D01*
X86200000Y-45000000D02*
X85200000Y-46000000D01*
%TO.N,+3V3*%
X82000000Y-42900000D02*
X82000000Y-43700000D01*
X47800000Y-53700000D02*
X48000000Y-53500000D01*
X79800000Y-88600000D02*
X80100000Y-88600000D01*
X78900000Y-87700000D02*
X79800000Y-88600000D01*
X54200000Y-52900000D02*
X52800000Y-54300000D01*
X81000000Y-52700000D02*
X81000000Y-52800000D01*
X82500000Y-53600000D02*
X81300000Y-52400000D01*
X61700000Y-51900000D02*
X61400000Y-51600000D01*
X92500000Y-35800000D02*
X99100000Y-35600000D01*
X79800000Y-87000000D02*
X79825000Y-87000000D01*
X58900000Y-58800000D02*
X58900000Y-59000000D01*
X71300000Y-42400000D02*
X71400000Y-42500000D01*
X59300000Y-58400000D02*
X58900000Y-58800000D01*
X55800000Y-88600000D02*
X56300000Y-88600000D01*
X61400000Y-51500000D02*
X70500000Y-42400000D01*
X57800000Y-53000000D02*
X56500000Y-54300000D01*
X48000000Y-53500000D02*
X48050000Y-53500000D01*
X82000000Y-43700000D02*
X80300000Y-45400000D01*
X71100000Y-42300000D02*
X72400000Y-41000000D01*
X61700000Y-52000000D02*
X61700000Y-51900000D01*
X95400000Y-85900000D02*
X97000000Y-85900000D01*
X71700000Y-98400000D02*
X74700000Y-95400000D01*
X82000000Y-51700000D02*
X81000000Y-52700000D01*
X56500000Y-54300000D02*
X55600000Y-54300000D01*
X79100000Y-87200000D02*
X79500000Y-86800000D01*
X79100000Y-87500000D02*
X79100000Y-87200000D01*
X83500000Y-42200000D02*
X82350000Y-42500000D01*
X80100000Y-88600000D02*
X80600000Y-89100000D01*
X59300000Y-58200000D02*
X59300000Y-58400000D01*
X58225000Y-52000000D02*
X58100000Y-52000000D01*
X100100000Y-40400000D02*
X100100000Y-41100000D01*
X81000000Y-49600000D02*
X81900000Y-50500000D01*
X61400000Y-87200000D02*
X61600000Y-87200000D01*
X81800000Y-39200000D02*
X81900000Y-39200000D01*
X56400000Y-88700000D02*
X56600000Y-88700000D01*
X57500000Y-88000000D02*
X60600000Y-88000000D01*
X57500000Y-52600000D02*
X57500000Y-52700000D01*
X77800000Y-41500000D02*
X79600000Y-39700000D01*
X79500000Y-86800000D02*
X79600000Y-86800000D01*
X75600000Y-88000000D02*
X78600000Y-88000000D01*
X57500000Y-52700000D02*
X59600000Y-54800000D01*
X61800000Y-87000000D02*
X61825000Y-87000000D01*
X52800000Y-54300000D02*
X52500000Y-54300000D01*
D45*
X114950000Y-86250000D02*
X115700000Y-87000000D01*
D41*
X47800000Y-53800000D02*
X47800000Y-53700000D01*
X60600000Y-98400000D02*
X71700000Y-98400000D01*
X82400000Y-42500000D02*
X82000000Y-42900000D01*
X97800000Y-87000000D02*
X97825000Y-87000000D01*
X56700000Y-88800000D02*
X57500000Y-88000000D01*
X59600000Y-54800000D02*
X61000000Y-54800000D01*
X61000000Y-56500000D02*
X59300000Y-58200000D01*
X97000000Y-85900000D02*
X97700000Y-86600000D01*
X56600000Y-88700000D02*
X56700000Y-88800000D01*
X80700000Y-89100000D02*
X81300000Y-89700000D01*
X77700000Y-41500000D02*
X77800000Y-41500000D01*
X72400000Y-41000000D02*
X75800000Y-41000000D01*
X76900000Y-42400000D02*
X76800000Y-42500000D01*
X71071429Y-42400000D02*
X71100000Y-42400000D01*
X61675000Y-52000000D02*
X61700000Y-52000000D01*
X71100000Y-42400000D02*
X71100000Y-42300000D01*
X61700000Y-52000000D02*
X61000000Y-52700000D01*
X54000000Y-52000000D02*
X54050000Y-52000000D01*
X85000000Y-89700000D02*
X85300000Y-89400000D01*
X56700000Y-94500000D02*
X60600000Y-98400000D01*
X52200000Y-54600000D02*
X49300000Y-54600000D01*
X61400000Y-51600000D02*
X61400000Y-51500000D01*
X79600000Y-86800000D02*
X79800000Y-87000000D01*
X55600000Y-69500000D02*
X55600000Y-88400000D01*
X81900000Y-39200000D02*
X83000000Y-38100000D01*
X58100000Y-52000000D02*
X57500000Y-52600000D01*
X78600000Y-88000000D02*
X79100000Y-87500000D01*
X81300000Y-89700000D02*
X85000000Y-89700000D01*
X53800000Y-57200000D02*
X54000000Y-57000000D01*
X80600000Y-89100000D02*
X80700000Y-89100000D01*
X77300000Y-41700000D02*
X77500000Y-41700000D01*
X76900000Y-42100000D02*
X77300000Y-41700000D01*
X81000000Y-52800000D02*
X81000000Y-52775000D01*
X48500000Y-53800000D02*
X47800000Y-53800000D01*
X54200000Y-52900000D02*
X54200000Y-52200000D01*
X55600000Y-88400000D02*
X55800000Y-88600000D01*
X81900000Y-50700000D02*
X82000000Y-50800000D01*
X86700000Y-41600000D02*
X87800000Y-42500000D01*
X90200000Y-38100000D02*
X92500000Y-35800000D01*
X52000000Y-54600000D02*
X53700000Y-56300000D01*
X79600000Y-39700000D02*
X81100000Y-39700000D01*
X74700000Y-88900000D02*
X75600000Y-88000000D01*
X80300000Y-45400000D02*
X80300000Y-47100000D01*
X53700000Y-56300000D02*
X53700000Y-57200000D01*
X77500000Y-41700000D02*
X77700000Y-41500000D01*
D45*
X115700000Y-87000000D02*
X115825000Y-87000000D01*
D41*
X49300000Y-54600000D02*
X48500000Y-53800000D01*
X56300000Y-88600000D02*
X56400000Y-88700000D01*
X97700000Y-86600000D02*
X97700000Y-86900000D01*
X100100000Y-41100000D02*
X101700000Y-42700000D01*
X87800000Y-42500000D02*
X87850000Y-42500000D01*
X83825000Y-53600000D02*
X82500000Y-53600000D01*
X81100000Y-39700000D02*
X81800000Y-39200000D01*
X99100000Y-39400000D02*
X100100000Y-40400000D01*
X81900000Y-50500000D02*
X81900000Y-50700000D01*
X58300000Y-59600000D02*
X58300000Y-59700000D01*
X83000000Y-38100000D02*
X90200000Y-38100000D01*
X61000000Y-52700000D02*
X61000000Y-56500000D01*
X58900000Y-59000000D02*
X58300000Y-59600000D01*
X82400000Y-42500000D02*
X82350000Y-42500000D01*
X82000000Y-50800000D02*
X82000000Y-51700000D01*
X81000000Y-47800000D02*
X81000000Y-49600000D01*
X75800000Y-41000000D02*
X76900000Y-42100000D01*
X58300000Y-59700000D02*
X54600000Y-63400000D01*
X80300000Y-47100000D02*
X81000000Y-47800000D01*
X71400000Y-42500000D02*
X71350000Y-42500000D01*
X60600000Y-88000000D02*
X61400000Y-87200000D01*
X54600000Y-68500000D02*
X55600000Y-69500000D01*
X76900000Y-42100000D02*
X76900000Y-42400000D01*
X76800000Y-42500000D02*
X76850000Y-42500000D01*
X55600000Y-54300000D02*
X54200000Y-52900000D01*
X61600000Y-87200000D02*
X61800000Y-87000000D01*
X70500000Y-42400000D02*
X71300000Y-42400000D01*
X54200000Y-52200000D02*
X54000000Y-52000000D01*
X56700000Y-88800000D02*
X56700000Y-94500000D01*
X74700000Y-95400000D02*
X74700000Y-88900000D01*
X52500000Y-54300000D02*
X52200000Y-54600000D01*
X97700000Y-86900000D02*
X97800000Y-87000000D01*
X53700000Y-57200000D02*
X53800000Y-57200000D01*
%TO.N,PWM2_D*%
X75100000Y-86600000D02*
X75100000Y-85800000D01*
X75200000Y-86700000D02*
X75100000Y-86600000D01*
X75100000Y-85800000D02*
X75200000Y-85700000D01*
X75200000Y-85700000D02*
X75200000Y-85600000D01*
X80600000Y-80000000D02*
X83437500Y-80000000D01*
X75200000Y-87000000D02*
X75200000Y-86700000D01*
X75175000Y-87000000D02*
X75200000Y-87000000D01*
X75200000Y-85600000D02*
X75900000Y-84800000D01*
%TO.N,FAN2_PWM*%
X84400000Y-93600000D02*
X85800000Y-95000000D01*
X77000000Y-89800000D02*
X80800000Y-93600000D01*
X76800000Y-87000000D02*
X76825000Y-87000000D01*
X76000000Y-86000000D02*
X76800000Y-86800000D01*
X78400000Y-84600000D02*
X77400000Y-83600000D01*
X77400000Y-83600000D02*
X77400000Y-83500000D01*
X80800000Y-93600000D02*
X84400000Y-93600000D01*
X77000000Y-89800000D02*
X76000000Y-88800000D01*
X76800000Y-86800000D02*
X76800000Y-87000000D01*
%TO.N,CH4_PG*%
X111500000Y-76400000D02*
X110600000Y-75500000D01*
X110600000Y-75500000D02*
X110575000Y-75500000D01*
X113875000Y-75500000D02*
X113900000Y-75500000D01*
X118000000Y-69000000D02*
X116100000Y-69000000D01*
X116100000Y-69000000D02*
X116062500Y-69050000D01*
X113700000Y-75500000D02*
X112800000Y-76400000D01*
X113900000Y-75500000D02*
X115800000Y-73500000D01*
X112800000Y-76400000D02*
X111500000Y-76400000D01*
X113900000Y-75500000D02*
X113700000Y-75500000D01*
%TO.N,CH4_GD*%
X115500000Y-75500000D02*
X119437500Y-75500000D01*
X115525000Y-75500000D02*
X115500000Y-75500000D01*
%TO.N,TACH2*%
X84200000Y-73700000D02*
X84800000Y-74300000D01*
X85900000Y-74300000D02*
X86100000Y-74500000D01*
X77100000Y-46600000D02*
X75400000Y-48300000D01*
X86000000Y-82400000D02*
X85300000Y-83300000D01*
X79800000Y-43000000D02*
X79800000Y-42100000D01*
X77225000Y-46000000D02*
X77200000Y-46000000D01*
X77100000Y-46100000D02*
X77100000Y-46600000D01*
X82900000Y-39000000D02*
X88100000Y-39000000D01*
X88500000Y-74500000D02*
X88500000Y-80700000D01*
X78400000Y-73900000D02*
X84200000Y-73700000D01*
X89600000Y-48600000D02*
X89200000Y-49000000D01*
X77200000Y-45600000D02*
X79800000Y-43000000D01*
X88500000Y-80700000D02*
X86800000Y-82400000D01*
X89900000Y-46400000D02*
X89600000Y-46700000D01*
X76200000Y-58700000D02*
X76200000Y-62500000D01*
X89200000Y-49000000D02*
X89200000Y-49825000D01*
X84800000Y-74300000D02*
X85900000Y-74300000D01*
X79800000Y-42100000D02*
X82900000Y-39000000D01*
X83400000Y-85700000D02*
X82800000Y-86500000D01*
X75400000Y-48300000D02*
X74400000Y-48300000D01*
X82800000Y-87000000D02*
X82825000Y-87000000D01*
X86100000Y-74500000D02*
X88500000Y-74500000D01*
X82800000Y-86500000D02*
X82800000Y-87000000D01*
X77200000Y-46000000D02*
X77100000Y-46100000D01*
X77200000Y-46000000D02*
X77200000Y-45600000D01*
X89600000Y-46700000D02*
X89600000Y-48600000D01*
X76200000Y-62500000D02*
X75300000Y-63400000D01*
X89900000Y-45900000D02*
X89900000Y-46400000D01*
X86800000Y-82400000D02*
X86000000Y-82400000D01*
%TO.N,PWM3_G*%
X97500000Y-80200000D02*
X97500000Y-80000000D01*
X96700000Y-81000000D02*
X97500000Y-80200000D01*
X97525000Y-80000000D02*
X99000000Y-79600000D01*
X92600000Y-80000000D02*
X92600000Y-79800000D01*
X99000000Y-79600000D02*
X99600000Y-79000000D01*
X92575000Y-80000000D02*
X92600000Y-80000000D01*
X99600000Y-79000000D02*
X99562500Y-79050000D01*
X97500000Y-80000000D02*
X97525000Y-80000000D01*
X92600000Y-79800000D02*
X93400000Y-79000000D01*
%TO.N,PWM3_D*%
X101500000Y-80400000D02*
X101500000Y-81700000D01*
X101400000Y-80300000D02*
X101500000Y-80400000D01*
X99700000Y-84100000D02*
X99500000Y-84300000D01*
X95000000Y-85100000D02*
X93200000Y-86900000D01*
X93200000Y-86900000D02*
X93200000Y-87000000D01*
X97300000Y-85100000D02*
X95000000Y-85100000D01*
X101437500Y-80000000D02*
X101400000Y-80000000D01*
X99500000Y-84300000D02*
X99500000Y-85200000D01*
X101500000Y-81700000D02*
X99700000Y-83500000D01*
X99500000Y-85200000D02*
X99100000Y-85600000D01*
X93200000Y-87000000D02*
X93175000Y-87000000D01*
X99700000Y-83500000D02*
X99700000Y-84100000D01*
X97800000Y-85600000D02*
X97300000Y-85100000D01*
X99100000Y-85600000D02*
X97800000Y-85600000D01*
%TO.N,CH3_PG*%
X95900000Y-75500000D02*
X95700000Y-75500000D01*
X93500000Y-76400000D02*
X92600000Y-75500000D01*
X97700000Y-69600000D02*
X98100000Y-70000000D01*
X97900000Y-72000000D02*
X95900000Y-74000000D01*
X95700000Y-75500000D02*
X94800000Y-76400000D01*
X95900000Y-74000000D02*
X95900000Y-75500000D01*
X98062500Y-69050000D02*
X98100000Y-69000000D01*
X97700000Y-69400000D02*
X97700000Y-69600000D01*
X95900000Y-75500000D02*
X95875000Y-75500000D01*
X92600000Y-75500000D02*
X92575000Y-75500000D01*
X94800000Y-76400000D02*
X93500000Y-76400000D01*
X98100000Y-69000000D02*
X97700000Y-69400000D01*
%TO.N,CH3_GD*%
X97525000Y-75500000D02*
X97500000Y-75500000D01*
X97500000Y-75500000D02*
X101437500Y-75500000D01*
%TO.N,HOST_TX*%
X111400000Y-41000000D02*
X110000000Y-42400000D01*
X117800000Y-42100000D02*
X117800000Y-42500000D01*
X117300000Y-41600000D02*
X117800000Y-42100000D01*
X113175000Y-42540000D02*
X113200000Y-42500000D01*
X113400000Y-42500000D02*
X114300000Y-41600000D01*
X114000000Y-41900000D02*
X113100000Y-41000000D01*
X114300000Y-41600000D02*
X117300000Y-41600000D01*
X111500000Y-40700000D02*
X111400000Y-41000000D01*
X117800000Y-42500000D02*
X117850000Y-42540000D01*
X113200000Y-42500000D02*
X113400000Y-42500000D01*
%TO.N,HOST_RX*%
X114200000Y-45900000D02*
X113100000Y-47000000D01*
X113175000Y-45080000D02*
X113200000Y-45100000D01*
X117800000Y-45100000D02*
X117850000Y-45080000D01*
X115400000Y-46000000D02*
X116000000Y-45400000D01*
X117500000Y-44300000D02*
X117800000Y-44600000D01*
X113200000Y-45100000D02*
X113400000Y-45100000D01*
X116000000Y-45100000D02*
X116800000Y-44300000D01*
X111500000Y-47000000D02*
X110000000Y-45500000D01*
X113400000Y-45100000D02*
X114300000Y-46000000D01*
X114300000Y-46000000D02*
X115400000Y-46000000D01*
X116000000Y-45400000D02*
X116000000Y-45100000D01*
X116800000Y-44300000D02*
X117500000Y-44300000D01*
X117800000Y-44600000D02*
X117800000Y-45100000D01*
%TO.N,FAN3_12V*%
D42*
X98730000Y-97500000D02*
X98730000Y-95000000D01*
X99937500Y-70000000D02*
X107500000Y-70000000D01*
X107500000Y-97500000D02*
X98730000Y-97500000D01*
X103825000Y-87000000D02*
X107500000Y-87000000D01*
X103000000Y-71650000D02*
X107500000Y-71650000D01*
X107500000Y-70000000D02*
X107500000Y-97500000D01*
%TO.N,CH3_SENSE*%
D41*
X93800000Y-78200000D02*
X101400000Y-78200000D01*
X90900000Y-52400000D02*
X90700000Y-56600000D01*
X102200000Y-86300000D02*
X102200000Y-87000000D01*
X103200000Y-80000000D02*
X103175000Y-80000000D01*
X101400000Y-78200000D02*
X103200000Y-80000000D01*
X96700000Y-62600000D02*
X96700000Y-64600000D01*
X96700000Y-68500000D02*
X95700000Y-69500000D01*
X91700000Y-70000000D02*
X91700000Y-76100000D01*
X92200000Y-52000000D02*
X91300000Y-52000000D01*
X102717400Y-85735000D02*
X102200000Y-86300000D01*
X95700000Y-69500000D02*
X92200000Y-69500000D01*
X91300000Y-52000000D02*
X90900000Y-52400000D01*
X102700000Y-80500000D02*
X102700000Y-83100000D01*
X92200000Y-69500000D02*
X91700000Y-70000000D01*
X102200000Y-87000000D02*
X102175000Y-87000000D01*
X103200000Y-80000000D02*
X102700000Y-80500000D01*
X91700000Y-76100000D02*
X93800000Y-78200000D01*
X92175000Y-52000000D02*
X92200000Y-52000000D01*
X93300000Y-59200000D02*
X96700000Y-62600000D01*
%TO.N,FAN1_TACH*%
X69100000Y-94400000D02*
X69000000Y-94300000D01*
X60200000Y-87000000D02*
X60175000Y-87000000D01*
X69000000Y-89800000D02*
X68000000Y-88800000D01*
X68300000Y-96400000D02*
X69100000Y-95600000D01*
X65800000Y-95000000D02*
X67200000Y-96400000D01*
X63200000Y-87000000D02*
X63175000Y-87000000D01*
X61100000Y-86100000D02*
X60200000Y-87000000D01*
X67200000Y-96400000D02*
X68300000Y-96400000D01*
X69200000Y-94600000D02*
X69100000Y-94500000D01*
X69100000Y-95600000D02*
X69100000Y-95500000D01*
X69200000Y-95400000D02*
X69200000Y-94600000D01*
X64900000Y-84600000D02*
X65000000Y-84500000D01*
X68000000Y-88800000D02*
X64000000Y-88800000D01*
X63200000Y-86800000D02*
X63200000Y-87000000D01*
X65300000Y-95000000D02*
X65800000Y-95000000D01*
X69000000Y-94300000D02*
X69000000Y-89800000D01*
X69100000Y-95500000D02*
X69200000Y-95400000D01*
X64000000Y-86000000D02*
X63200000Y-86800000D01*
X62400000Y-86100000D02*
X61100000Y-86100000D01*
X63100000Y-86800000D02*
X62400000Y-86100000D01*
X64900000Y-85100000D02*
X64900000Y-84600000D01*
X65000000Y-84500000D02*
X65000000Y-84400000D01*
X69100000Y-94500000D02*
X69100000Y-94400000D01*
X65000000Y-84400000D02*
X65400000Y-84000000D01*
X63200000Y-86800000D02*
X63100000Y-86800000D01*
X64000000Y-86000000D02*
X64900000Y-85100000D01*
X65400000Y-84000000D02*
X65400000Y-83500000D01*
%TO.N,FAN3_TACH*%
X103600000Y-88400000D02*
X100600000Y-88400000D01*
X105100000Y-94500000D02*
X105100000Y-94400000D01*
X99300000Y-87100000D02*
X98800000Y-87600000D01*
X105100000Y-95600000D02*
X105100000Y-95500000D01*
X99347368Y-87147368D02*
X99300000Y-87100000D01*
X101300000Y-95000000D02*
X101800000Y-95000000D01*
X105200000Y-94600000D02*
X105100000Y-94500000D01*
X98800000Y-87600000D02*
X98700000Y-87600000D01*
X99200000Y-87000000D02*
X100200000Y-86000000D01*
X105100000Y-95500000D02*
X105200000Y-95400000D01*
X100600000Y-88400000D02*
X99200000Y-87000000D01*
X101400000Y-84400000D02*
X101400000Y-83500000D01*
X99200000Y-87000000D02*
X99175000Y-87000000D01*
X105100000Y-94400000D02*
X105000000Y-94300000D01*
X97300000Y-88000000D02*
X96300000Y-87000000D01*
X100200000Y-85600000D02*
X101400000Y-84400000D01*
X100200000Y-86000000D02*
X100200000Y-85600000D01*
X101800000Y-95000000D02*
X103200000Y-96400000D01*
X105000000Y-89800000D02*
X103600000Y-88400000D01*
X105000000Y-94300000D02*
X105000000Y-89800000D01*
X98300000Y-88000000D02*
X97300000Y-88000000D01*
X96300000Y-87000000D02*
X96175000Y-87000000D01*
X105200000Y-95400000D02*
X105200000Y-94600000D01*
X104300000Y-96400000D02*
X105100000Y-95600000D01*
X98700000Y-87600000D02*
X98300000Y-88000000D01*
X103200000Y-96400000D02*
X104300000Y-96400000D01*
%TO.N,PWM4_G*%
X110600000Y-80000000D02*
X110600000Y-79800000D01*
X115525000Y-80000000D02*
X116500000Y-79600000D01*
X117100000Y-79000000D02*
X117600000Y-79000000D01*
X115500000Y-80000000D02*
X115525000Y-80000000D01*
X117600000Y-79000000D02*
X117562500Y-79050000D01*
X116500000Y-79600000D02*
X117100000Y-79000000D01*
X115500000Y-80200000D02*
X115500000Y-80000000D01*
X110600000Y-79800000D02*
X111400000Y-79000000D01*
X114700000Y-81000000D02*
X115500000Y-80200000D01*
X110575000Y-80000000D02*
X110600000Y-80000000D01*
%TO.N,PWM4_D*%
X117500000Y-84300000D02*
X117500000Y-85200000D01*
X119500000Y-81700000D02*
X117700000Y-83500000D01*
X111200000Y-87000000D02*
X111175000Y-87000000D01*
X117700000Y-83500000D02*
X117700000Y-84100000D01*
X117700000Y-84100000D02*
X117500000Y-84300000D01*
X119437500Y-80000000D02*
X119400000Y-80000000D01*
X119500000Y-80400000D02*
X119500000Y-81700000D01*
X117500000Y-85200000D02*
X117100000Y-85600000D01*
X112600000Y-85600000D02*
X111200000Y-87000000D01*
X117100000Y-85600000D02*
X112600000Y-85600000D01*
X119400000Y-80300000D02*
X119500000Y-80400000D01*
%TO.N,FAN4_PWM*%
X112200000Y-88100000D02*
X112800000Y-87500000D01*
X112200000Y-88100000D02*
X110700000Y-88000000D01*
X110700000Y-88000000D02*
X110300000Y-87600000D01*
X112800000Y-87000000D02*
X112825000Y-87000000D01*
X116800000Y-93600000D02*
X120400000Y-93600000D01*
X112800000Y-87500000D02*
X112800000Y-87000000D01*
X120400000Y-93600000D02*
X121800000Y-95000000D01*
X110300000Y-87600000D02*
X110300000Y-86400000D01*
X113300000Y-90100000D02*
X114100000Y-89300000D01*
X110300000Y-86400000D02*
X113200000Y-83500000D01*
X113200000Y-83500000D02*
X113400000Y-83500000D01*
X113000000Y-89800000D02*
X116800000Y-93600000D01*
%TO.N,CH3_EN*%
X86200000Y-44000000D02*
X85200000Y-45000000D01*
X99600000Y-74600000D02*
X99900000Y-74900000D01*
X99100000Y-64400000D02*
X99700000Y-63800000D01*
X84700000Y-45000000D02*
X84300000Y-45400000D01*
X98200000Y-39000000D02*
X96000000Y-41200000D01*
X98400000Y-39000000D02*
X98200000Y-39000000D01*
X90600000Y-41400000D02*
X88000000Y-44000000D01*
X99100000Y-74100000D02*
X99100000Y-71900000D01*
X92000000Y-41200000D02*
X91800000Y-41400000D01*
X84300000Y-45400000D02*
X84300000Y-46600000D01*
X99700000Y-61900000D02*
X99200000Y-61400000D01*
X86600000Y-48000000D02*
X87600000Y-49000000D01*
X87600000Y-49000000D02*
X87600000Y-49825000D01*
X88000000Y-44000000D02*
X86200000Y-44000000D01*
X102400000Y-74700000D02*
X103200000Y-75500000D01*
X100400000Y-74900000D02*
X100600000Y-74700000D01*
X99700000Y-63800000D02*
X99700000Y-61900000D01*
X85200000Y-45000000D02*
X84700000Y-45000000D01*
X99200000Y-55900000D02*
X102200000Y-52900000D01*
X103200000Y-75500000D02*
X103175000Y-75500000D01*
X91800000Y-41400000D02*
X90600000Y-41400000D01*
X103000000Y-38600000D02*
X98800000Y-38600000D01*
X104000000Y-51000000D02*
X104000000Y-39600000D01*
X99900000Y-74900000D02*
X100400000Y-74900000D01*
X98200000Y-64600000D02*
X99100000Y-64400000D01*
X98800000Y-38600000D02*
X98400000Y-39000000D01*
X100600000Y-74700000D02*
X102400000Y-74700000D01*
X102200000Y-52800000D02*
X104000000Y-51000000D01*
X99200000Y-61400000D02*
X99200000Y-55900000D01*
X99600000Y-74600000D02*
X99100000Y-74100000D01*
X85700000Y-48000000D02*
X86600000Y-48000000D01*
X99562500Y-74550000D02*
X99600000Y-74600000D01*
X96000000Y-41200000D02*
X92000000Y-41200000D01*
X102200000Y-52900000D02*
X102200000Y-52800000D01*
X104000000Y-39600000D02*
X103000000Y-38600000D01*
X84300000Y-46600000D02*
X85700000Y-48000000D01*
%TO.N,PWM2_G*%
X74600000Y-80000000D02*
X74600000Y-80800000D01*
X80400000Y-79000000D02*
X81600000Y-79000000D01*
X74575000Y-80000000D02*
X74600000Y-80000000D01*
X75800000Y-82000000D02*
X77500000Y-82000000D01*
X79800000Y-79600000D02*
X80400000Y-79000000D01*
X77500000Y-82000000D02*
X79500000Y-80000000D01*
X79500000Y-80000000D02*
X79800000Y-79700000D01*
X81600000Y-79000000D02*
X81562500Y-79050000D01*
X79800000Y-79700000D02*
X79800000Y-79600000D01*
X74600000Y-80800000D02*
X75800000Y-82000000D01*
X79500000Y-80000000D02*
X79525000Y-80000000D01*
%TO.N,FAN3_PWM*%
X94800000Y-87000000D02*
X94825000Y-87000000D01*
X98800000Y-93600000D02*
X94800000Y-89600000D01*
X102400000Y-93600000D02*
X98800000Y-93600000D01*
X92300000Y-87600000D02*
X92300000Y-86400000D01*
X92700000Y-88000000D02*
X92300000Y-87600000D01*
X93600000Y-88000000D02*
X92700000Y-88000000D01*
X95200000Y-83500000D02*
X95400000Y-83500000D01*
X92300000Y-86400000D02*
X95200000Y-83500000D01*
X103800000Y-95000000D02*
X102400000Y-93600000D01*
X94000000Y-87600000D02*
X93600000Y-88000000D01*
X94800000Y-87600000D02*
X94000000Y-87600000D01*
X94800000Y-89600000D02*
X94800000Y-87000000D01*
%TO.N,V12P_SENSE*%
X82500000Y-59500000D02*
X81500000Y-60500000D01*
X73200000Y-63300000D02*
X73000000Y-63300000D01*
X83825000Y-56800000D02*
X83800000Y-56800000D01*
X81500000Y-60500000D02*
X80400000Y-60500000D01*
X73000000Y-63300000D02*
X72700000Y-63600000D01*
X83800000Y-56800000D02*
X83600000Y-57000000D01*
X75300000Y-61200000D02*
X73200000Y-63300000D01*
X83600000Y-57000000D02*
X83600000Y-58400000D01*
X72000000Y-63600000D02*
X72000000Y-63575000D01*
X71200000Y-60500000D02*
X71175000Y-60500000D01*
X80400000Y-60500000D02*
X79300000Y-61400000D01*
X72700000Y-63600000D02*
X72000000Y-63600000D01*
X72200000Y-59500000D02*
X71200000Y-60500000D01*
X73400000Y-59300000D02*
X72200000Y-59500000D01*
%TO.N,CH2_SENSE*%
X85700000Y-64600000D02*
X86800000Y-63500000D01*
X87200000Y-56700000D02*
X86800000Y-57100000D01*
X85200000Y-80000000D02*
X84800000Y-79600000D01*
X86800000Y-58200000D02*
X86800000Y-58175000D01*
X86800000Y-63500000D02*
X86800000Y-60600000D01*
X84200000Y-84400000D02*
X84200000Y-87000000D01*
X85175000Y-80000000D02*
X85200000Y-80000000D01*
X84500000Y-80700000D02*
X84500000Y-84100000D01*
X85200000Y-80000000D02*
X84500000Y-80700000D01*
X86800000Y-60600000D02*
X87200000Y-60200000D01*
X84800000Y-79600000D02*
X84800000Y-76700000D01*
X84200000Y-87000000D02*
X84175000Y-87000000D01*
X86800000Y-57100000D02*
X86800000Y-58200000D01*
X84500000Y-84100000D02*
X84200000Y-84400000D01*
%TO.N,TACH1*%
X73200000Y-46000000D02*
X74000000Y-45200000D01*
X73600000Y-49400000D02*
X73600000Y-46400000D01*
X94000000Y-56500000D02*
X93500000Y-56000000D01*
X73600000Y-49400000D02*
X74600000Y-49400000D01*
X65100000Y-72300000D02*
X65100000Y-70900000D01*
X86900000Y-53800000D02*
X87000000Y-54100000D01*
X73600000Y-55900000D02*
X73600000Y-49400000D01*
X86100000Y-52600000D02*
X86900000Y-53400000D01*
X86900000Y-53400000D02*
X86900000Y-53800000D01*
X64900000Y-64600000D02*
X73600000Y-55900000D01*
X85800000Y-52200000D02*
X86100000Y-52500000D01*
X64825000Y-87000000D02*
X64800000Y-87000000D01*
X74000000Y-42900000D02*
X74650000Y-42500000D01*
X65300000Y-86500000D02*
X65300000Y-85800000D01*
X74600000Y-49400000D02*
X74800000Y-49200000D01*
X73600000Y-46400000D02*
X73200000Y-46000000D01*
X74000000Y-45200000D02*
X74000000Y-44600000D01*
X74600000Y-42500000D02*
X74650000Y-42500000D01*
X73200000Y-46000000D02*
X73225000Y-46000000D01*
X73500000Y-42600000D02*
X74000000Y-42900000D01*
X85800000Y-52100000D02*
X85800000Y-52200000D01*
X66900000Y-74100000D02*
X65100000Y-72300000D01*
X85200000Y-51300000D02*
X85800000Y-52100000D01*
X86100000Y-52500000D02*
X86100000Y-52600000D01*
X74800000Y-49200000D02*
X76400000Y-49200000D01*
X64800000Y-87000000D02*
X65300000Y-86500000D01*
X93500000Y-56000000D02*
X92175000Y-56000000D01*
%TO.N,CH2_EN*%
X82400000Y-74900000D02*
X82600000Y-74700000D01*
X85200000Y-75500000D02*
X85175000Y-75500000D01*
X81900000Y-58750000D02*
X81450000Y-59200000D01*
X84500000Y-64650000D02*
X84500000Y-60450000D01*
X82800000Y-58750000D02*
X81900000Y-58750000D01*
X84400000Y-74700000D02*
X85200000Y-75500000D01*
X81900000Y-74900000D02*
X82400000Y-74900000D01*
X82600000Y-74700000D02*
X84400000Y-74700000D01*
X84500000Y-60450000D02*
X82800000Y-58750000D01*
X81562500Y-74550000D02*
X81600000Y-74600000D01*
X88700000Y-48300000D02*
X88400000Y-48600000D01*
X88400000Y-48600000D02*
X88400000Y-49825000D01*
X81600000Y-74600000D02*
X81900000Y-74900000D01*
%TO.N,TACH3*%
X109000000Y-87900000D02*
X108600000Y-87500000D01*
X111400000Y-37700000D02*
X114200000Y-40500000D01*
X82700000Y-44700000D02*
X82800000Y-44700000D01*
X117000000Y-40500000D02*
X119800000Y-43300000D01*
X131800000Y-92200000D02*
X126200000Y-97800000D01*
X101900000Y-85400000D02*
X101900000Y-85500000D01*
X84300000Y-42700000D02*
X85400000Y-42700000D01*
X84700000Y-39900000D02*
X88400000Y-39900000D01*
X106600000Y-86100000D02*
X104500000Y-86200000D01*
X131800000Y-56000000D02*
X131800000Y-92200000D01*
X126200000Y-97800000D02*
X126200000Y-97900000D01*
X119800000Y-44000000D02*
X131800000Y-56000000D01*
X88700000Y-39600000D02*
X89500000Y-39600000D01*
X86400000Y-48600000D02*
X86800000Y-49000000D01*
X126200000Y-97900000D02*
X125900000Y-98200000D01*
X81200000Y-46000000D02*
X84300000Y-42700000D01*
X102300000Y-85000000D02*
X101900000Y-85400000D01*
X125600000Y-98300000D02*
X112100000Y-98300000D01*
X84000000Y-40600000D02*
X84700000Y-39900000D01*
X82600000Y-44600000D02*
X82700000Y-44700000D01*
X86800000Y-49000000D02*
X86800000Y-49825000D01*
X125700000Y-98200000D02*
X125600000Y-98300000D01*
X88400000Y-39900000D02*
X88700000Y-39600000D01*
X85600000Y-42500000D02*
X85650000Y-42500000D01*
X101200000Y-86400000D02*
X100825000Y-87000000D01*
X103300000Y-85000000D02*
X102300000Y-85000000D01*
X101400000Y-86000000D02*
X101400000Y-86200000D01*
X110000000Y-36400000D02*
X111300000Y-37700000D01*
X119800000Y-43300000D02*
X119800000Y-44000000D01*
X85500000Y-48600000D02*
X86400000Y-48600000D01*
X114200000Y-40500000D02*
X117000000Y-40500000D01*
X112100000Y-98300000D02*
X109000000Y-95200000D01*
X92700000Y-36400000D02*
X110000000Y-36400000D01*
X82800000Y-44700000D02*
X83000000Y-44900000D01*
X108600000Y-87500000D02*
X108400000Y-86800000D01*
X111300000Y-37700000D02*
X111400000Y-37700000D01*
X104500000Y-86200000D02*
X103300000Y-85000000D01*
X83100000Y-44900000D02*
X83700000Y-45500000D01*
X125900000Y-98200000D02*
X125700000Y-98200000D01*
X89500000Y-39600000D02*
X92700000Y-36400000D01*
X83000000Y-44900000D02*
X83100000Y-44900000D01*
X109000000Y-95200000D02*
X109000000Y-87900000D01*
X81225000Y-46000000D02*
X81200000Y-46000000D01*
X101400000Y-86200000D02*
X101200000Y-86400000D01*
X100800000Y-87000000D02*
X100825000Y-87000000D01*
X101900000Y-85500000D02*
X101400000Y-86000000D01*
X83700000Y-46800000D02*
X85500000Y-48600000D01*
X85400000Y-42700000D02*
X85600000Y-42500000D01*
X83700000Y-45500000D02*
X83700000Y-46800000D01*
%TO.N,SWD_DIO*%
X100600000Y-45100000D02*
X102000000Y-45100000D01*
X97175000Y-45080000D02*
X97200000Y-45100000D01*
X97200000Y-45100000D02*
X97700000Y-45600000D01*
X97700000Y-45600000D02*
X97700000Y-46200000D01*
X99900000Y-45800000D02*
X100600000Y-45100000D01*
X95400000Y-45100000D02*
X95350000Y-45080000D01*
X97200000Y-45100000D02*
X95400000Y-45100000D01*
%TO.N,SWDIO*%
X98700000Y-45100000D02*
X97300000Y-43700000D01*
X98825000Y-45080000D02*
X98800000Y-45100000D01*
X92200000Y-51200000D02*
X92175000Y-51200000D01*
X91000000Y-43700000D02*
X87900000Y-46800000D01*
X98800000Y-45100000D02*
X98700000Y-45100000D01*
X97300000Y-43700000D02*
X91000000Y-43700000D01*
X87900000Y-51300000D02*
X92200000Y-51200000D01*
%TO.N,CH2_FUSED*%
X76000000Y-71500000D02*
X76500000Y-71000000D01*
X76200000Y-75500000D02*
X76225000Y-75500000D01*
X76500000Y-71000000D02*
X80100000Y-71000000D01*
X79900000Y-71000000D02*
X80900000Y-72300000D01*
X77100000Y-76400000D02*
X76200000Y-75500000D01*
X78700000Y-76500000D02*
X77100000Y-76400000D01*
X80100000Y-71000000D02*
X80062500Y-70950000D01*
%TO.N,CH4_FUSED*%
X116062500Y-70950000D02*
X116100000Y-71000000D01*
X112200000Y-75500000D02*
X112225000Y-75500000D01*
X112700000Y-71500000D02*
X112000000Y-71500000D01*
X116100000Y-71000000D02*
X116100000Y-70000000D01*
X112200000Y-71500000D02*
X112200000Y-75500000D01*
X114200000Y-70000000D02*
X112700000Y-71500000D01*
%TO.N,FAN4_12V*%
D42*
X121000000Y-71650000D02*
X125500000Y-71650000D01*
X117937500Y-70000000D02*
X125500000Y-70000000D01*
X125500000Y-97500000D02*
X116730000Y-97500000D01*
X125500000Y-70000000D02*
X125500000Y-97500000D01*
X121825000Y-87000000D02*
X125500000Y-87000000D01*
X116730000Y-97500000D02*
X116730000Y-95000000D01*
%TO.N,FAN4_TACH*%
D41*
X118200000Y-85600000D02*
X119400000Y-84400000D01*
X118200000Y-86000000D02*
X118200000Y-85600000D01*
X117342857Y-87142857D02*
X117300000Y-87100000D01*
X122300000Y-96400000D02*
X123100000Y-95600000D01*
X119300000Y-95000000D02*
X119800000Y-95000000D01*
X114300000Y-87000000D02*
X114175000Y-87000000D01*
X123000000Y-94300000D02*
X123000000Y-89800000D01*
X117200000Y-87000000D02*
X118200000Y-86000000D01*
X120000000Y-89800000D02*
X117200000Y-87000000D01*
X116600000Y-87700000D02*
X116400000Y-87900000D01*
X123100000Y-95600000D02*
X123100000Y-95500000D01*
X117300000Y-87100000D02*
X116700000Y-87700000D01*
X123200000Y-95400000D02*
X123200000Y-94600000D01*
X123100000Y-94500000D02*
X123100000Y-94400000D01*
X116400000Y-87900000D02*
X115200000Y-87900000D01*
X119400000Y-84400000D02*
X119400000Y-83500000D01*
X117200000Y-87000000D02*
X117175000Y-87000000D01*
X115200000Y-87900000D02*
X114300000Y-87000000D01*
X121200000Y-96400000D02*
X122300000Y-96400000D01*
X116700000Y-87700000D02*
X116600000Y-87700000D01*
X123100000Y-94400000D02*
X123000000Y-94300000D01*
X119800000Y-95000000D02*
X121200000Y-96400000D01*
X123100000Y-95500000D02*
X123200000Y-95400000D01*
X123200000Y-94600000D02*
X123100000Y-94500000D01*
X123000000Y-89800000D02*
X120000000Y-89800000D01*
%TO.N,CH4_SENSE*%
X111800000Y-78200000D02*
X119400000Y-78200000D01*
X109700000Y-68500000D02*
X109700000Y-76100000D01*
X121200000Y-80000000D02*
X121175000Y-80000000D01*
X100400000Y-59200000D02*
X105800000Y-64600000D01*
X120200000Y-87000000D02*
X120175000Y-87000000D01*
X86000000Y-49825000D02*
X86000000Y-49800000D01*
X109700000Y-76100000D02*
X111800000Y-78200000D01*
X120200000Y-85500000D02*
X120200000Y-87000000D01*
X119400000Y-78200000D02*
X121200000Y-80000000D01*
X120600000Y-85100000D02*
X120200000Y-85500000D01*
X89500000Y-54200000D02*
X90100000Y-54200000D01*
X86000000Y-50700000D02*
X89500000Y-54200000D01*
X105800000Y-64600000D02*
X109700000Y-64600000D01*
X121200000Y-80000000D02*
X120600000Y-80600000D01*
X86000000Y-49800000D02*
X86000000Y-50700000D01*
X120600000Y-80600000D02*
X120600000Y-82700000D01*
%TO.N,FAN1_PWM*%
X59200000Y-84800000D02*
X59200000Y-84600000D01*
X59200000Y-84600000D02*
X59400000Y-84400000D01*
X59000000Y-89800000D02*
X62800000Y-93600000D01*
X58800000Y-86800000D02*
X58800000Y-87000000D01*
X66400000Y-93600000D02*
X67800000Y-95000000D01*
X58000000Y-86000000D02*
X59200000Y-84800000D01*
X62800000Y-93600000D02*
X66400000Y-93600000D01*
X58800000Y-87000000D02*
X58825000Y-87000000D01*
X58000000Y-86000000D02*
X58800000Y-86800000D01*
X59400000Y-84400000D02*
X59400000Y-83500000D01*
X59000000Y-89800000D02*
X58000000Y-88800000D01*
%TO.N,SWD_CLK*%
X97200000Y-47600000D02*
X95400000Y-47600000D01*
X97200000Y-47600000D02*
X97400000Y-47600000D01*
X97175000Y-47620000D02*
X97200000Y-47600000D01*
X101100000Y-46700000D02*
X102000000Y-47600000D01*
X98300000Y-46700000D02*
X101100000Y-46700000D01*
X95400000Y-47600000D02*
X95350000Y-47620000D01*
X97400000Y-47600000D02*
X98300000Y-46700000D01*
%TO.N,SWCLK*%
X96300000Y-51100000D02*
X96300000Y-51500000D01*
X93400000Y-50800000D02*
X92400000Y-49800000D01*
X98800000Y-47600000D02*
X97400000Y-49000000D01*
X93400000Y-52200000D02*
X93400000Y-50800000D01*
X94200000Y-53000000D02*
X93400000Y-52200000D01*
X96300000Y-51500000D02*
X94800000Y-53000000D01*
X90800000Y-49800000D02*
X90800000Y-49825000D01*
X92400000Y-49800000D02*
X90800000Y-49800000D01*
X98825000Y-47620000D02*
X98800000Y-47600000D01*
X94800000Y-53000000D02*
X94200000Y-53000000D01*
X97400000Y-49000000D02*
X97400000Y-50000000D01*
%TO.N,FAN2_12V*%
D42*
X89500000Y-97500000D02*
X80730000Y-97500000D01*
X85825000Y-87000000D02*
X89500000Y-87000000D01*
X89500000Y-70000000D02*
X89500000Y-97500000D01*
X85000000Y-71650000D02*
X89500000Y-71650000D01*
X80730000Y-97500000D02*
X80730000Y-95000000D01*
X81937500Y-70000000D02*
X89500000Y-70000000D01*
%TO.N,PWM1_D*%
D41*
X57100000Y-86600000D02*
X57100000Y-85700000D01*
X63000000Y-80000000D02*
X65437500Y-80000000D01*
X57200000Y-87000000D02*
X57200000Y-86700000D01*
X57100000Y-85700000D02*
X58300000Y-84500000D01*
X57200000Y-86700000D02*
X57100000Y-86600000D01*
X57175000Y-87000000D02*
X57200000Y-87000000D01*
%TO.N,PWM1_G*%
X63600000Y-79000000D02*
X63562500Y-79050000D01*
X61500000Y-79500000D02*
X62000000Y-79000000D01*
X61500000Y-80000000D02*
X61525000Y-80000000D01*
X56800000Y-80000000D02*
X57800000Y-79000000D01*
X60900000Y-78900000D02*
X61500000Y-79500000D01*
X61500000Y-79500000D02*
X61500000Y-80000000D01*
X56575000Y-80000000D02*
X56800000Y-80000000D01*
X57800000Y-79000000D02*
X59100000Y-78900000D01*
X62000000Y-79000000D02*
X63600000Y-79000000D01*
%TO.N,CH1_PG*%
X61900000Y-69400000D02*
X62500000Y-70000000D01*
X59900000Y-74800000D02*
X59900000Y-75500000D01*
X59900000Y-75500000D02*
X59875000Y-75500000D01*
X56600000Y-75500000D02*
X56575000Y-75500000D01*
X62062500Y-69050000D02*
X62100000Y-69000000D01*
X58800000Y-76400000D02*
X57500000Y-76400000D01*
X63200000Y-71500000D02*
X59900000Y-74800000D01*
X61900000Y-69200000D02*
X61900000Y-69400000D01*
X59900000Y-75500000D02*
X59700000Y-75500000D01*
X63500000Y-71000000D02*
X63300000Y-71300000D01*
X63200000Y-71400000D02*
X63200000Y-71500000D01*
X59700000Y-75500000D02*
X58800000Y-76400000D01*
X62100000Y-69000000D02*
X61900000Y-69200000D01*
X57500000Y-76400000D02*
X56600000Y-75500000D01*
X63300000Y-71300000D02*
X63200000Y-71400000D01*
%TO.N,CH1_FUSED*%
X62000000Y-71000000D02*
X62100000Y-71000000D01*
X61100000Y-71900000D02*
X62000000Y-71000000D01*
X58200000Y-75500000D02*
X58225000Y-75500000D01*
X62100000Y-71000000D02*
X62062500Y-70950000D01*
X59200000Y-70300000D02*
X59200000Y-69900000D01*
X60900000Y-72800000D02*
X58200000Y-75500000D01*
X61100000Y-71900000D02*
X60900000Y-72800000D01*
X58000000Y-71500000D02*
X59200000Y-70300000D01*
%TO.N,PFET_G*%
X37175000Y-71000000D02*
X37200000Y-71000000D01*
X35600000Y-78000000D02*
X35500000Y-77900000D01*
X37175000Y-71000000D02*
X36800000Y-71600000D01*
X37100000Y-77800000D02*
X36900000Y-78000000D01*
X36800000Y-71600000D02*
X37100000Y-71900000D01*
X36900000Y-78000000D02*
X35600000Y-78000000D01*
X35500000Y-77900000D02*
X35525000Y-77905000D01*
X37100000Y-71900000D02*
X37100000Y-77800000D01*
%TO.N,CH1_EN*%
X93400000Y-64600000D02*
X94400000Y-63600000D01*
X67175000Y-75500000D02*
X67200000Y-75500000D01*
X67200000Y-75500000D02*
X66300000Y-74600000D01*
X63600000Y-74600000D02*
X63562500Y-74550000D01*
X95900000Y-59500000D02*
X93200000Y-56800000D01*
X67200000Y-75500000D02*
X69600000Y-73100000D01*
X87700000Y-73500000D02*
X88600000Y-73500000D01*
X75800000Y-73100000D02*
X87300000Y-73100000D01*
X87300000Y-73100000D02*
X87700000Y-73500000D01*
X93200000Y-56800000D02*
X92175000Y-56800000D01*
X69600000Y-73100000D02*
X70600000Y-72900000D01*
X66300000Y-74600000D02*
X63600000Y-74600000D01*
X94400000Y-63600000D02*
X94400000Y-61400000D01*
%TO.N,PWR_LED_A*%
X65800000Y-51100000D02*
X64200000Y-51100000D01*
X66800000Y-52000000D02*
X66700000Y-52000000D01*
X66700000Y-52000000D02*
X65800000Y-51100000D01*
X63300000Y-52000000D02*
X63325000Y-52000000D01*
X64200000Y-51100000D02*
X63300000Y-52000000D01*
%TO.N,PWM3*%
X92800000Y-81000000D02*
X92200000Y-81000000D01*
X90700000Y-59600000D02*
X90000000Y-59000000D01*
X95900000Y-80700000D02*
X94600000Y-82000000D01*
X90800000Y-64600000D02*
X92000000Y-63400000D01*
X93800000Y-82000000D02*
X92800000Y-81000000D01*
X95900000Y-80000000D02*
X95900000Y-80700000D01*
X92200000Y-81000000D02*
X90800000Y-79600000D01*
X95875000Y-80000000D02*
X95900000Y-80000000D01*
X90800000Y-79600000D02*
X90800000Y-68500000D01*
X92000000Y-63400000D02*
X92000000Y-60900000D01*
X94600000Y-82000000D02*
X93800000Y-82000000D01*
X90000000Y-59000000D02*
X90000000Y-58175000D01*
%TO.N,NRST*%
X87700000Y-55300000D02*
X87800000Y-55200000D01*
X79100000Y-55800000D02*
X80100000Y-56800000D01*
X83825000Y-55200000D02*
X83800000Y-55200000D01*
X99600000Y-50200000D02*
X102000000Y-50200000D01*
X95400000Y-50200000D02*
X95350000Y-50160000D01*
X95500000Y-51500000D02*
X95350000Y-50160000D01*
X83900000Y-55100000D02*
X84400000Y-55100000D01*
X83800000Y-55200000D02*
X83900000Y-55100000D01*
X86200000Y-55300000D02*
X86200000Y-54200000D01*
X95000000Y-52000000D02*
X95500000Y-51500000D01*
X81000000Y-56800000D02*
X81000000Y-56775000D01*
X94500000Y-52100000D02*
X95000000Y-52000000D01*
X84400000Y-55100000D02*
X84500000Y-55200000D01*
X84500000Y-55200000D02*
X84900000Y-55200000D01*
X84900000Y-55200000D02*
X85000000Y-55300000D01*
X98200000Y-51600000D02*
X99600000Y-50200000D01*
X85000000Y-55300000D02*
X87700000Y-55300000D01*
X80100000Y-56800000D02*
X81000000Y-56800000D01*
X97300000Y-51600000D02*
X98200000Y-51600000D01*
X86200000Y-54200000D02*
X85300000Y-53400000D01*
X87800000Y-55200000D02*
X87800000Y-53600000D01*
X95800000Y-53100000D02*
X97300000Y-51600000D01*
%TO.N,UART_RX*%
X113800000Y-44100000D02*
X114800000Y-45100000D01*
X112700000Y-44100000D02*
X113800000Y-44100000D01*
X114800000Y-45100000D02*
X114825000Y-45080000D01*
X112300000Y-50100000D02*
X112300000Y-44500000D01*
X86000000Y-61000000D02*
X85600000Y-61400000D01*
X103800000Y-58600000D02*
X112300000Y-50100000D01*
X86000000Y-58175000D02*
X86000000Y-61000000D01*
X112300000Y-44500000D02*
X112700000Y-44100000D01*
%TO.N,PWM2*%
X89200000Y-58175000D02*
X89200000Y-58200000D01*
X77000000Y-79100000D02*
X77900000Y-80000000D01*
X73300000Y-75700000D02*
X76700000Y-79100000D01*
X75000000Y-68800000D02*
X73300000Y-70500000D01*
X73300000Y-70500000D02*
X73300000Y-75700000D01*
X77900000Y-80000000D02*
X77875000Y-80000000D01*
X89200000Y-58200000D02*
X89200000Y-56700000D01*
X78600000Y-68800000D02*
X75000000Y-68800000D01*
X76700000Y-79100000D02*
X77000000Y-79100000D01*
X87400000Y-62600000D02*
X87500000Y-63700000D01*
X89800000Y-60200000D02*
X87400000Y-62600000D01*
%TO.N,CH4_EN*%
X124600000Y-73200000D02*
X123300000Y-74500000D01*
X85200000Y-49800000D02*
X84100000Y-49800000D01*
X84700000Y-34800000D02*
X80600000Y-38900000D01*
X132400000Y-55800000D02*
X120400000Y-43800000D01*
X118200000Y-74500000D02*
X118000000Y-74700000D01*
X117600000Y-74600000D02*
X117562500Y-74550000D01*
X118000000Y-74700000D02*
X117700000Y-74700000D01*
X132600000Y-67900000D02*
X132400000Y-55800000D01*
X120400000Y-43800000D02*
X120400000Y-43100000D01*
X123300000Y-74500000D02*
X118200000Y-74500000D01*
X121200000Y-75500000D02*
X121175000Y-75500000D01*
X112100000Y-34800000D02*
X84700000Y-34800000D01*
X120400000Y-43100000D02*
X112100000Y-34800000D01*
X85200000Y-49825000D02*
X85200000Y-49800000D01*
X121200000Y-74500000D02*
X121200000Y-75500000D01*
X117700000Y-74700000D02*
X117600000Y-74600000D01*
X84100000Y-49800000D02*
X81500000Y-47200000D01*
%TO.N,CH1_SENSE*%
X69900000Y-77300000D02*
X69900000Y-75000000D01*
X67200000Y-83400000D02*
X65800000Y-84800000D01*
X77500000Y-62200000D02*
X77500000Y-62100000D01*
X67175000Y-80000000D02*
X67200000Y-80000000D01*
X77400000Y-62400000D02*
X77400000Y-62300000D01*
X66900000Y-85900000D02*
X66200000Y-86600000D01*
X75200000Y-64600000D02*
X77400000Y-62400000D01*
X82600000Y-56400000D02*
X83000000Y-56000000D01*
X66200000Y-86600000D02*
X66200000Y-87000000D01*
X77500000Y-62100000D02*
X82600000Y-57000000D01*
X77400000Y-62300000D02*
X77500000Y-62200000D01*
X83000000Y-56000000D02*
X83825000Y-56000000D01*
X67200000Y-80000000D02*
X69900000Y-77300000D01*
X67200000Y-80000000D02*
X67200000Y-83400000D01*
X82600000Y-57000000D02*
X82600000Y-56400000D01*
X66200000Y-87000000D02*
X66175000Y-87000000D01*
%TO.N,UART_TX*%
X77100000Y-55600000D02*
X77100000Y-54500000D01*
X109700000Y-37400000D02*
X110900000Y-38600000D01*
X77100000Y-54500000D02*
X77200000Y-54400000D01*
X77200000Y-54300000D02*
X77400000Y-54100000D01*
X76600000Y-56100000D02*
X77100000Y-55600000D01*
X81400000Y-41900000D02*
X81900000Y-41400000D01*
X77400000Y-54100000D02*
X77400000Y-50100000D01*
X79700000Y-47800000D02*
X79700000Y-45200000D01*
X79700000Y-45200000D02*
X81400000Y-43500000D01*
X110900000Y-38600000D02*
X111000000Y-38600000D01*
X81900000Y-41400000D02*
X84300000Y-41400000D01*
X85200000Y-58200000D02*
X84300000Y-59100000D01*
X85200000Y-58175000D02*
X85200000Y-58200000D01*
X84300000Y-41400000D02*
X84900000Y-40800000D01*
X84900000Y-40800000D02*
X89600000Y-40800000D01*
X113800000Y-43500000D02*
X114800000Y-42500000D01*
X93000000Y-37400000D02*
X109700000Y-37400000D01*
X114800000Y-42500000D02*
X114825000Y-42540000D01*
X112300000Y-39900000D02*
X112300000Y-43100000D01*
X112300000Y-43100000D02*
X112700000Y-43500000D01*
X89600000Y-40800000D02*
X93000000Y-37400000D01*
X77200000Y-54400000D02*
X77200000Y-54300000D01*
X112700000Y-43500000D02*
X113800000Y-43500000D01*
X77400000Y-50100000D02*
X79700000Y-47800000D01*
X81400000Y-43500000D02*
X81400000Y-41900000D01*
X111000000Y-38600000D02*
X112300000Y-39900000D01*
%TO.N,PWM1*%
X82300000Y-55600000D02*
X82000000Y-55300000D01*
X88400000Y-58200000D02*
X88400000Y-55800000D01*
X88400000Y-58175000D02*
X88400000Y-58200000D01*
X62100000Y-76600000D02*
X59900000Y-78800000D01*
X59900000Y-80000000D02*
X59875000Y-80000000D01*
X81600000Y-54300000D02*
X79500000Y-54300000D01*
X82000000Y-54700000D02*
X81600000Y-54300000D01*
X73000000Y-62700000D02*
X71400000Y-62700000D01*
X88400000Y-55800000D02*
X88700000Y-55500000D01*
X59900000Y-78800000D02*
X59900000Y-80000000D01*
X71400000Y-62700000D02*
X69500000Y-64600000D01*
X73700000Y-62000000D02*
X73000000Y-62700000D01*
X82000000Y-55300000D02*
X82000000Y-54700000D01*
X73700000Y-60100000D02*
X73700000Y-62000000D01*
X79500000Y-54300000D02*
X73700000Y-60100000D01*
X69500000Y-64600000D02*
X67700000Y-64600000D01*
%TO.N,PWM4*%
X109100000Y-80000000D02*
X111000000Y-81900000D01*
X91100000Y-58500000D02*
X91200000Y-58400000D01*
X107900000Y-69300000D02*
X109100000Y-70500000D01*
X107700000Y-69300000D02*
X107900000Y-69300000D01*
X107600000Y-69200000D02*
X107700000Y-69300000D01*
X111000000Y-81900000D02*
X111800000Y-81900000D01*
X112600000Y-82000000D02*
X113900000Y-80700000D01*
X90800000Y-58175000D02*
X90800000Y-58200000D01*
X113900000Y-80000000D02*
X113875000Y-80000000D01*
X111800000Y-81900000D02*
X111900000Y-82000000D01*
X109100000Y-70500000D02*
X109100000Y-80000000D01*
X113900000Y-80700000D02*
X113900000Y-80000000D01*
X104300000Y-68500000D02*
X105000000Y-69200000D01*
X105000000Y-69200000D02*
X107600000Y-69200000D01*
X111900000Y-82000000D02*
X112600000Y-82000000D01*
X91200000Y-58400000D02*
X93700000Y-58400000D01*
X90800000Y-58200000D02*
X91100000Y-58500000D01*
X93700000Y-58400000D02*
X98800000Y-63500000D01*
%TO.N,CH1_GD*%
X65437500Y-75500000D02*
X61500000Y-75500000D01*
X61500000Y-75500000D02*
X61525000Y-75500000D01*
%TD*%
%TA.AperFunction,Conductor*%
%TO.N,V12P*%
G36*
X64677878Y-65003372D02*
G01*
X64677882Y-65003373D01*
X64702205Y-65009890D01*
X64726079Y-65019779D01*
X64726114Y-65019799D01*
X64840691Y-65050500D01*
X64840693Y-65050500D01*
X64959307Y-65050500D01*
X64959309Y-65050500D01*
X65073886Y-65019799D01*
X65073915Y-65019781D01*
X65097796Y-65009890D01*
X65122120Y-65003373D01*
X65147741Y-65000000D01*
X67452259Y-65000000D01*
X67477878Y-65003372D01*
X67477882Y-65003373D01*
X67502205Y-65009890D01*
X67526079Y-65019779D01*
X67526114Y-65019799D01*
X67640691Y-65050500D01*
X67640693Y-65050500D01*
X67759307Y-65050500D01*
X67759309Y-65050500D01*
X67873886Y-65019799D01*
X67873915Y-65019781D01*
X67897796Y-65009890D01*
X67922120Y-65003373D01*
X67947741Y-65000000D01*
X74952259Y-65000000D01*
X74977878Y-65003372D01*
X74977882Y-65003373D01*
X75002205Y-65009890D01*
X75026079Y-65019779D01*
X75026114Y-65019799D01*
X75140691Y-65050500D01*
X75140693Y-65050500D01*
X75259307Y-65050500D01*
X75259309Y-65050500D01*
X75373886Y-65019799D01*
X75373915Y-65019781D01*
X75397796Y-65009890D01*
X75422120Y-65003373D01*
X75447741Y-65000000D01*
X78451450Y-65000000D01*
X78481644Y-65004717D01*
X78509637Y-65013682D01*
X78509637Y-65013681D01*
X78525482Y-65018756D01*
X78538762Y-65024095D01*
X78623360Y-65065453D01*
X78624087Y-65065813D01*
X78624159Y-65065849D01*
X78626604Y-65066309D01*
X78630693Y-65066605D01*
X78691740Y-65075500D01*
X78691743Y-65075500D01*
X79308257Y-65075500D01*
X79308260Y-65075500D01*
X79376393Y-65065573D01*
X79461232Y-65024097D01*
X79474520Y-65018754D01*
X79490361Y-65013681D01*
X79490362Y-65013682D01*
X79518359Y-65004715D01*
X79548550Y-65000000D01*
X84165659Y-65000000D01*
X84191279Y-65003373D01*
X84196089Y-65004661D01*
X84215601Y-65009890D01*
X84239476Y-65019779D01*
X84323357Y-65068208D01*
X84325768Y-65069705D01*
X84326108Y-65069796D01*
X84326110Y-65069797D01*
X84326111Y-65069797D01*
X84326114Y-65069799D01*
X84440691Y-65100500D01*
X84440693Y-65100500D01*
X84559307Y-65100500D01*
X84559309Y-65100500D01*
X84673886Y-65069799D01*
X84673888Y-65069797D01*
X84673890Y-65069797D01*
X84760527Y-65019776D01*
X84784391Y-65009892D01*
X84808725Y-65003371D01*
X84834341Y-65000000D01*
X85452259Y-65000000D01*
X85477878Y-65003372D01*
X85477882Y-65003373D01*
X85502205Y-65009890D01*
X85526079Y-65019779D01*
X85526114Y-65019799D01*
X85640691Y-65050500D01*
X85640693Y-65050500D01*
X85759307Y-65050500D01*
X85759309Y-65050500D01*
X85873886Y-65019799D01*
X85873915Y-65019781D01*
X85897796Y-65009890D01*
X85922120Y-65003373D01*
X85947741Y-65000000D01*
X90552259Y-65000000D01*
X90577878Y-65003372D01*
X90577882Y-65003373D01*
X90602205Y-65009890D01*
X90626079Y-65019779D01*
X90626114Y-65019799D01*
X90740691Y-65050500D01*
X90740693Y-65050500D01*
X90859307Y-65050500D01*
X90859309Y-65050500D01*
X90973886Y-65019799D01*
X90973915Y-65019781D01*
X90997796Y-65009890D01*
X91022120Y-65003373D01*
X91047741Y-65000000D01*
X93152259Y-65000000D01*
X93177878Y-65003372D01*
X93177882Y-65003373D01*
X93202205Y-65009890D01*
X93226079Y-65019779D01*
X93226114Y-65019799D01*
X93340691Y-65050500D01*
X93340693Y-65050500D01*
X93459307Y-65050500D01*
X93459309Y-65050500D01*
X93573886Y-65019799D01*
X93573915Y-65019781D01*
X93597796Y-65009890D01*
X93622120Y-65003373D01*
X93647741Y-65000000D01*
X96452259Y-65000000D01*
X96477878Y-65003372D01*
X96477882Y-65003373D01*
X96502205Y-65009890D01*
X96526079Y-65019779D01*
X96526114Y-65019799D01*
X96640691Y-65050500D01*
X96640693Y-65050500D01*
X96759307Y-65050500D01*
X96759309Y-65050500D01*
X96873886Y-65019799D01*
X96873915Y-65019781D01*
X96897796Y-65009890D01*
X96922120Y-65003373D01*
X96947741Y-65000000D01*
X97952259Y-65000000D01*
X97977878Y-65003372D01*
X97977882Y-65003373D01*
X98002205Y-65009890D01*
X98026079Y-65019779D01*
X98026114Y-65019799D01*
X98140691Y-65050500D01*
X98140693Y-65050500D01*
X98259307Y-65050500D01*
X98259309Y-65050500D01*
X98373886Y-65019799D01*
X98373915Y-65019781D01*
X98397796Y-65009890D01*
X98422120Y-65003373D01*
X98447741Y-65000000D01*
X109452259Y-65000000D01*
X109477878Y-65003372D01*
X109477882Y-65003373D01*
X109502205Y-65009890D01*
X109526079Y-65019779D01*
X109526114Y-65019799D01*
X109640691Y-65050500D01*
X109640693Y-65050500D01*
X109759307Y-65050500D01*
X109759309Y-65050500D01*
X109873886Y-65019799D01*
X109873915Y-65019781D01*
X109897796Y-65009890D01*
X109922120Y-65003373D01*
X109947741Y-65000000D01*
X125953697Y-65000000D01*
X125984288Y-65004845D01*
X125996625Y-65008853D01*
X126007514Y-65012391D01*
X126046927Y-65036542D01*
X126084417Y-65074032D01*
X126102622Y-65099090D01*
X126113709Y-65120849D01*
X126124500Y-65165795D01*
X126124500Y-68385319D01*
X126119654Y-68415912D01*
X126115532Y-68428598D01*
X126079580Y-68478089D01*
X126075459Y-68481084D01*
X126017271Y-68500000D01*
X121865180Y-68500000D01*
X121834587Y-68495154D01*
X121821901Y-68491032D01*
X121772401Y-68455068D01*
X121772394Y-68455058D01*
X121769400Y-68450936D01*
X121750500Y-68392756D01*
X121750500Y-68089366D01*
X121750499Y-68089365D01*
X121749165Y-68080201D01*
X121739866Y-68016375D01*
X121684826Y-67903789D01*
X121596211Y-67815174D01*
X121596209Y-67815173D01*
X121596208Y-67815172D01*
X121596206Y-67815171D01*
X121543721Y-67789512D01*
X121518625Y-67765233D01*
X121465378Y-67757474D01*
X121465378Y-67757475D01*
X121438006Y-67753487D01*
X121410636Y-67749500D01*
X121410635Y-67749500D01*
X120589363Y-67749500D01*
X120545568Y-67755880D01*
X120545567Y-67755879D01*
X120516375Y-67760133D01*
X120403792Y-67815171D01*
X120403790Y-67815173D01*
X120315173Y-67903790D01*
X120302411Y-67929895D01*
X120284624Y-67955248D01*
X120272704Y-67967569D01*
X120225461Y-67994802D01*
X120218357Y-67996570D01*
X120194452Y-67999500D01*
X120083475Y-67999500D01*
X120057851Y-67996126D01*
X120033530Y-67989609D01*
X120009654Y-67979718D01*
X119988610Y-67967569D01*
X119981175Y-67963276D01*
X119960142Y-67939916D01*
X119910352Y-67926574D01*
X119910351Y-67926574D01*
X119809309Y-67899500D01*
X119809307Y-67899500D01*
X119690692Y-67899500D01*
X119690691Y-67899500D01*
X119674684Y-67903789D01*
X119620566Y-67918289D01*
X119620565Y-67918288D01*
X119576111Y-67930200D01*
X119576108Y-67930201D01*
X119473393Y-67989505D01*
X119389505Y-68073393D01*
X119330203Y-68176106D01*
X119330202Y-68176108D01*
X119330202Y-68176109D01*
X119317534Y-68223387D01*
X119317534Y-68223388D01*
X119317533Y-68223387D01*
X119304582Y-68271727D01*
X119304581Y-68271732D01*
X119299500Y-68290691D01*
X119299500Y-68385319D01*
X119294654Y-68415912D01*
X119290532Y-68428598D01*
X119254580Y-68478089D01*
X119250459Y-68481084D01*
X119192271Y-68500000D01*
X110258037Y-68500000D01*
X110227444Y-68495154D01*
X110214758Y-68491032D01*
X110165259Y-68455070D01*
X110162275Y-68450963D01*
X110158764Y-68446131D01*
X110143228Y-68413553D01*
X110142091Y-68409309D01*
X110119799Y-68326114D01*
X110119797Y-68326111D01*
X110119797Y-68326109D01*
X110119796Y-68326108D01*
X110119706Y-68325770D01*
X110118224Y-68323384D01*
X110061960Y-68225934D01*
X110060783Y-68223746D01*
X110060597Y-68223496D01*
X110060490Y-68223389D01*
X110060489Y-68223387D01*
X109976613Y-68139511D01*
X109976610Y-68139509D01*
X109976608Y-68139507D01*
X109976606Y-68139505D01*
X109931176Y-68113276D01*
X109910142Y-68089915D01*
X109848456Y-68073387D01*
X109829426Y-68068288D01*
X109759309Y-68049500D01*
X109759307Y-68049500D01*
X109640692Y-68049500D01*
X109640691Y-68049500D01*
X109605629Y-68058894D01*
X109570566Y-68068289D01*
X109570565Y-68068288D01*
X109526111Y-68080200D01*
X109526108Y-68080201D01*
X109423393Y-68139505D01*
X109339505Y-68223393D01*
X109280204Y-68326104D01*
X109280203Y-68326106D01*
X109280202Y-68326109D01*
X109257909Y-68409309D01*
X109257328Y-68411478D01*
X109244727Y-68439777D01*
X109237462Y-68450963D01*
X109189921Y-68489462D01*
X109179607Y-68493422D01*
X109144122Y-68500000D01*
X104858037Y-68500000D01*
X104827444Y-68495154D01*
X104814758Y-68491032D01*
X104765259Y-68455070D01*
X104762275Y-68450963D01*
X104758764Y-68446131D01*
X104743228Y-68413553D01*
X104742091Y-68409309D01*
X104719799Y-68326114D01*
X104719797Y-68326111D01*
X104719797Y-68326109D01*
X104719796Y-68326108D01*
X104719706Y-68325770D01*
X104718224Y-68323384D01*
X104661960Y-68225934D01*
X104660783Y-68223746D01*
X104660597Y-68223496D01*
X104660490Y-68223389D01*
X104660489Y-68223387D01*
X104576613Y-68139511D01*
X104576610Y-68139509D01*
X104576608Y-68139507D01*
X104576606Y-68139505D01*
X104531176Y-68113276D01*
X104510142Y-68089915D01*
X104448456Y-68073387D01*
X104429426Y-68068288D01*
X104359309Y-68049500D01*
X104359307Y-68049500D01*
X104240692Y-68049500D01*
X104240691Y-68049500D01*
X104205629Y-68058894D01*
X104170566Y-68068289D01*
X104170565Y-68068288D01*
X104126111Y-68080200D01*
X104126108Y-68080201D01*
X104023393Y-68139505D01*
X103939502Y-68223396D01*
X103936224Y-68227669D01*
X103923923Y-68240976D01*
X103917453Y-68246801D01*
X103861556Y-68271684D01*
X103801709Y-68258960D01*
X103760770Y-68213488D01*
X103760766Y-68213479D01*
X103759053Y-68209630D01*
X103750500Y-68169377D01*
X103750500Y-68089366D01*
X103750499Y-68089365D01*
X103749165Y-68080201D01*
X103739866Y-68016375D01*
X103684826Y-67903789D01*
X103596211Y-67815174D01*
X103596209Y-67815173D01*
X103596208Y-67815172D01*
X103596206Y-67815171D01*
X103543721Y-67789512D01*
X103518625Y-67765233D01*
X103465378Y-67757474D01*
X103465378Y-67757475D01*
X103438006Y-67753487D01*
X103410636Y-67749500D01*
X103410635Y-67749500D01*
X102589363Y-67749500D01*
X102545568Y-67755880D01*
X102545567Y-67755879D01*
X102516375Y-67760133D01*
X102403792Y-67815171D01*
X102403790Y-67815173D01*
X102315173Y-67903790D01*
X102302411Y-67929895D01*
X102284624Y-67955248D01*
X102272704Y-67967569D01*
X102225461Y-67994802D01*
X102218357Y-67996570D01*
X102194452Y-67999500D01*
X102083475Y-67999500D01*
X102057851Y-67996126D01*
X102033530Y-67989609D01*
X102009654Y-67979718D01*
X101988610Y-67967569D01*
X101981175Y-67963276D01*
X101960142Y-67939916D01*
X101910352Y-67926574D01*
X101910351Y-67926574D01*
X101809309Y-67899500D01*
X101809307Y-67899500D01*
X101690692Y-67899500D01*
X101690691Y-67899500D01*
X101674684Y-67903789D01*
X101620566Y-67918289D01*
X101620565Y-67918288D01*
X101576111Y-67930200D01*
X101576108Y-67930201D01*
X101473393Y-67989505D01*
X101389505Y-68073393D01*
X101330203Y-68176106D01*
X101330202Y-68176108D01*
X101330202Y-68176109D01*
X101317534Y-68223387D01*
X101317534Y-68223388D01*
X101317533Y-68223387D01*
X101304582Y-68271727D01*
X101304581Y-68271732D01*
X101299500Y-68290691D01*
X101299500Y-68385319D01*
X101294654Y-68415912D01*
X101290532Y-68428598D01*
X101254580Y-68478089D01*
X101250459Y-68481084D01*
X101192271Y-68500000D01*
X97258037Y-68500000D01*
X97227444Y-68495154D01*
X97214758Y-68491032D01*
X97165259Y-68455070D01*
X97162275Y-68450963D01*
X97158764Y-68446131D01*
X97143228Y-68413553D01*
X97142091Y-68409309D01*
X97119799Y-68326114D01*
X97119797Y-68326111D01*
X97119797Y-68326109D01*
X97119796Y-68326108D01*
X97119706Y-68325770D01*
X97118224Y-68323384D01*
X97061960Y-68225934D01*
X97060783Y-68223746D01*
X97060597Y-68223496D01*
X97060490Y-68223389D01*
X97060489Y-68223387D01*
X96976613Y-68139511D01*
X96976610Y-68139509D01*
X96976608Y-68139507D01*
X96976606Y-68139505D01*
X96931176Y-68113276D01*
X96910142Y-68089915D01*
X96848456Y-68073387D01*
X96829426Y-68068288D01*
X96759309Y-68049500D01*
X96759307Y-68049500D01*
X96640692Y-68049500D01*
X96640691Y-68049500D01*
X96605629Y-68058894D01*
X96570566Y-68068289D01*
X96570565Y-68068288D01*
X96526111Y-68080200D01*
X96526108Y-68080201D01*
X96423393Y-68139505D01*
X96339505Y-68223393D01*
X96280204Y-68326104D01*
X96280203Y-68326106D01*
X96280202Y-68326109D01*
X96257909Y-68409309D01*
X96257328Y-68411478D01*
X96244727Y-68439777D01*
X96237462Y-68450963D01*
X96189921Y-68489462D01*
X96179607Y-68493422D01*
X96144122Y-68500000D01*
X91358037Y-68500000D01*
X91327444Y-68495154D01*
X91314758Y-68491032D01*
X91265259Y-68455070D01*
X91262275Y-68450963D01*
X91258764Y-68446131D01*
X91243228Y-68413553D01*
X91242091Y-68409309D01*
X91219799Y-68326114D01*
X91219797Y-68326111D01*
X91219797Y-68326109D01*
X91219796Y-68326108D01*
X91219706Y-68325770D01*
X91218224Y-68323384D01*
X91161960Y-68225934D01*
X91160783Y-68223746D01*
X91160597Y-68223496D01*
X91160490Y-68223389D01*
X91160489Y-68223387D01*
X91076613Y-68139511D01*
X91076610Y-68139509D01*
X91076608Y-68139507D01*
X91076606Y-68139505D01*
X91031176Y-68113276D01*
X91010142Y-68089915D01*
X90948456Y-68073387D01*
X90929426Y-68068288D01*
X90859309Y-68049500D01*
X90859307Y-68049500D01*
X90740692Y-68049500D01*
X90740691Y-68049500D01*
X90705629Y-68058894D01*
X90670566Y-68068289D01*
X90670565Y-68068288D01*
X90626111Y-68080200D01*
X90626108Y-68080201D01*
X90523393Y-68139505D01*
X90439505Y-68223393D01*
X90380204Y-68326104D01*
X90380203Y-68326106D01*
X90380202Y-68326109D01*
X90357909Y-68409309D01*
X90357328Y-68411478D01*
X90344727Y-68439777D01*
X90337462Y-68450963D01*
X90289921Y-68489462D01*
X90279607Y-68493422D01*
X90244122Y-68500000D01*
X85865180Y-68500000D01*
X85834587Y-68495154D01*
X85821901Y-68491032D01*
X85772401Y-68455068D01*
X85772394Y-68455058D01*
X85769400Y-68450936D01*
X85750500Y-68392756D01*
X85750500Y-68089366D01*
X85750499Y-68089365D01*
X85749165Y-68080201D01*
X85739866Y-68016375D01*
X85684826Y-67903789D01*
X85596211Y-67815174D01*
X85596209Y-67815173D01*
X85596208Y-67815172D01*
X85596206Y-67815171D01*
X85543721Y-67789512D01*
X85518625Y-67765233D01*
X85465378Y-67757474D01*
X85465378Y-67757475D01*
X85438006Y-67753487D01*
X85410636Y-67749500D01*
X85410635Y-67749500D01*
X84589363Y-67749500D01*
X84545568Y-67755880D01*
X84545567Y-67755879D01*
X84516375Y-67760133D01*
X84403792Y-67815171D01*
X84403790Y-67815173D01*
X84315173Y-67903790D01*
X84302411Y-67929895D01*
X84284624Y-67955248D01*
X84272704Y-67967569D01*
X84225461Y-67994802D01*
X84218357Y-67996570D01*
X84194452Y-67999500D01*
X84083475Y-67999500D01*
X84057851Y-67996126D01*
X84033530Y-67989609D01*
X84009654Y-67979718D01*
X83988610Y-67967569D01*
X83981175Y-67963276D01*
X83960142Y-67939916D01*
X83910352Y-67926574D01*
X83910351Y-67926574D01*
X83809309Y-67899500D01*
X83809307Y-67899500D01*
X83690692Y-67899500D01*
X83690691Y-67899500D01*
X83674684Y-67903789D01*
X83620566Y-67918289D01*
X83620565Y-67918288D01*
X83576111Y-67930200D01*
X83576108Y-67930201D01*
X83473393Y-67989505D01*
X83389505Y-68073393D01*
X83330203Y-68176106D01*
X83330202Y-68176108D01*
X83330202Y-68176109D01*
X83317534Y-68223387D01*
X83317534Y-68223388D01*
X83317533Y-68223387D01*
X83304582Y-68271727D01*
X83304581Y-68271732D01*
X83299500Y-68290691D01*
X83299500Y-68385319D01*
X83294654Y-68415912D01*
X83290532Y-68428598D01*
X83254580Y-68478089D01*
X83250459Y-68481084D01*
X83192271Y-68500000D01*
X78993790Y-68500000D01*
X78963197Y-68495154D01*
X78939970Y-68487607D01*
X78900559Y-68463457D01*
X78896293Y-68459191D01*
X78896293Y-68459190D01*
X78876611Y-68439509D01*
X78876608Y-68439507D01*
X78831175Y-68413276D01*
X78810142Y-68389916D01*
X78760352Y-68376574D01*
X78760351Y-68376574D01*
X78659309Y-68349500D01*
X78659307Y-68349500D01*
X78540692Y-68349500D01*
X78540691Y-68349500D01*
X78505629Y-68358894D01*
X78470566Y-68368289D01*
X78470565Y-68368288D01*
X78426111Y-68380200D01*
X78426108Y-68380201D01*
X78323392Y-68439505D01*
X78323388Y-68439508D01*
X78302978Y-68459918D01*
X78277923Y-68478121D01*
X78256162Y-68489209D01*
X78211216Y-68500000D01*
X67865180Y-68500000D01*
X67834587Y-68495154D01*
X67821901Y-68491032D01*
X67772401Y-68455068D01*
X67772394Y-68455058D01*
X67769400Y-68450936D01*
X67750500Y-68392756D01*
X67750500Y-68089366D01*
X67750499Y-68089365D01*
X67749165Y-68080201D01*
X67739866Y-68016375D01*
X67684826Y-67903789D01*
X67596211Y-67815174D01*
X67596209Y-67815173D01*
X67596208Y-67815172D01*
X67596206Y-67815171D01*
X67543721Y-67789512D01*
X67518625Y-67765233D01*
X67465378Y-67757474D01*
X67465378Y-67757475D01*
X67438006Y-67753487D01*
X67410636Y-67749500D01*
X67410635Y-67749500D01*
X66589363Y-67749500D01*
X66545568Y-67755880D01*
X66545567Y-67755879D01*
X66516375Y-67760133D01*
X66403792Y-67815171D01*
X66403790Y-67815173D01*
X66315173Y-67903790D01*
X66302411Y-67929895D01*
X66284624Y-67955248D01*
X66272704Y-67967569D01*
X66225461Y-67994802D01*
X66218357Y-67996570D01*
X66194452Y-67999500D01*
X66083475Y-67999500D01*
X66057851Y-67996126D01*
X66033530Y-67989609D01*
X66009654Y-67979718D01*
X65988610Y-67967569D01*
X65981175Y-67963276D01*
X65960142Y-67939916D01*
X65910352Y-67926574D01*
X65910351Y-67926574D01*
X65809309Y-67899500D01*
X65809307Y-67899500D01*
X65690692Y-67899500D01*
X65690691Y-67899500D01*
X65674684Y-67903789D01*
X65620566Y-67918289D01*
X65620565Y-67918288D01*
X65576111Y-67930200D01*
X65576108Y-67930201D01*
X65473393Y-67989505D01*
X65389505Y-68073393D01*
X65330203Y-68176106D01*
X65330202Y-68176108D01*
X65330202Y-68176109D01*
X65317534Y-68223387D01*
X65317534Y-68223388D01*
X65317533Y-68223387D01*
X65304582Y-68271727D01*
X65304581Y-68271732D01*
X65299500Y-68290691D01*
X65299500Y-68385319D01*
X65294654Y-68415912D01*
X65290532Y-68428598D01*
X65254580Y-68478089D01*
X65250459Y-68481084D01*
X65192271Y-68500000D01*
X55158037Y-68500000D01*
X55127444Y-68495154D01*
X55114758Y-68491032D01*
X55065259Y-68455070D01*
X55062275Y-68450963D01*
X55058764Y-68446131D01*
X55043228Y-68413553D01*
X55042091Y-68409309D01*
X55019799Y-68326114D01*
X55019797Y-68326111D01*
X55019797Y-68326109D01*
X55019796Y-68326108D01*
X55019706Y-68325770D01*
X55018224Y-68323384D01*
X54961960Y-68225934D01*
X54960783Y-68223746D01*
X54960597Y-68223496D01*
X54960490Y-68223389D01*
X54960489Y-68223387D01*
X54876613Y-68139511D01*
X54876610Y-68139509D01*
X54876608Y-68139507D01*
X54876606Y-68139505D01*
X54831176Y-68113276D01*
X54810142Y-68089915D01*
X54748456Y-68073387D01*
X54729426Y-68068288D01*
X54659309Y-68049500D01*
X54659307Y-68049500D01*
X54540692Y-68049500D01*
X54540691Y-68049500D01*
X54505629Y-68058894D01*
X54470566Y-68068289D01*
X54470565Y-68068288D01*
X54426111Y-68080200D01*
X54426108Y-68080201D01*
X54323393Y-68139505D01*
X54239505Y-68223393D01*
X54180204Y-68326104D01*
X54180203Y-68326106D01*
X54180202Y-68326109D01*
X54157909Y-68409309D01*
X54157328Y-68411478D01*
X54144727Y-68439777D01*
X54137462Y-68450963D01*
X54089921Y-68489462D01*
X54079607Y-68493422D01*
X54044122Y-68500000D01*
X37000000Y-68500000D01*
X37000000Y-68500001D01*
X37000000Y-70264709D01*
X36995154Y-70295302D01*
X36991032Y-70307988D01*
X36955070Y-70357487D01*
X36948882Y-70361983D01*
X36904966Y-70379856D01*
X36873609Y-70384425D01*
X36768519Y-70435800D01*
X36685799Y-70518520D01*
X36634427Y-70623604D01*
X36624500Y-70691746D01*
X36624500Y-71311837D01*
X36623068Y-71311837D01*
X36623112Y-71328992D01*
X36618336Y-71356888D01*
X36604707Y-71392653D01*
X36591954Y-71413057D01*
X36585480Y-71422216D01*
X36578534Y-71430948D01*
X36576951Y-71432721D01*
X36576675Y-71433286D01*
X36575037Y-71435346D01*
X36566443Y-71443941D01*
X36557386Y-71465806D01*
X36549876Y-71480385D01*
X36537333Y-71500454D01*
X36537332Y-71500456D01*
X36535326Y-71512440D01*
X36531391Y-71526161D01*
X36531388Y-71526168D01*
X36530702Y-71528563D01*
X36527004Y-71539154D01*
X36524501Y-71545197D01*
X36524501Y-71564745D01*
X36524160Y-71572951D01*
X36523481Y-71581115D01*
X36522463Y-71589256D01*
X36519233Y-71608549D01*
X36519233Y-71608553D01*
X36520703Y-71614924D01*
X36522602Y-71625978D01*
X36523865Y-71637066D01*
X36524501Y-71648270D01*
X36524501Y-71654799D01*
X36531984Y-71672866D01*
X36534808Y-71680574D01*
X36537300Y-71688361D01*
X36539475Y-71696270D01*
X36541341Y-71704354D01*
X36542105Y-71711068D01*
X36542977Y-71713172D01*
X36544241Y-71716442D01*
X36545219Y-71718583D01*
X36545777Y-71719931D01*
X36554151Y-71731045D01*
X36559067Y-71739915D01*
X36563942Y-71750023D01*
X36566439Y-71756053D01*
X36566444Y-71756061D01*
X36580279Y-71769896D01*
X36585839Y-71775938D01*
X36591119Y-71782176D01*
X36596157Y-71788654D01*
X36607513Y-71804578D01*
X36607514Y-71804578D01*
X36607515Y-71804580D01*
X36613052Y-71808040D01*
X36622204Y-71814509D01*
X36630949Y-71821465D01*
X36639325Y-71828940D01*
X36784417Y-71974032D01*
X36802622Y-71999090D01*
X36813709Y-72020849D01*
X36824500Y-72065795D01*
X36824500Y-77600691D01*
X36819652Y-77631291D01*
X36817104Y-77639131D01*
X36781137Y-77688628D01*
X36722945Y-77707531D01*
X36664758Y-77688622D01*
X36663412Y-77687644D01*
X36631041Y-77647541D01*
X36623866Y-77631291D01*
X36602206Y-77582235D01*
X36522765Y-77502794D01*
X36522763Y-77502793D01*
X36436919Y-77464888D01*
X36435211Y-77463719D01*
X36419061Y-77457029D01*
X36414308Y-77456755D01*
X36408374Y-77456066D01*
X36394868Y-77454500D01*
X36394866Y-77454500D01*
X34654764Y-77454500D01*
X34652885Y-77454761D01*
X34630014Y-77457412D01*
X34630006Y-77457414D01*
X34527237Y-77502792D01*
X34447794Y-77582235D01*
X34402413Y-77685013D01*
X34399500Y-77710123D01*
X34399500Y-77885321D01*
X34394655Y-77915910D01*
X34390534Y-77928597D01*
X34354576Y-77978092D01*
X34350453Y-77981088D01*
X34292263Y-78000000D01*
X33114680Y-78000000D01*
X33084087Y-77995154D01*
X33071401Y-77991032D01*
X33021901Y-77955068D01*
X33021894Y-77955058D01*
X33018900Y-77950936D01*
X33000000Y-77892756D01*
X33000000Y-65114680D01*
X33004843Y-65084094D01*
X33008112Y-65074032D01*
X33008965Y-65071405D01*
X33044923Y-65021906D01*
X33047825Y-65019799D01*
X33049063Y-65018900D01*
X33107243Y-65000000D01*
X64652259Y-65000000D01*
X64677878Y-65003372D01*
G37*
%TD.AperFunction*%
%TD*%
%TA.AperFunction,Conductor*%
%TO.N,V12IN*%
G36*
X42959191Y-73018907D02*
G01*
X42995155Y-73068407D01*
X43000000Y-73099000D01*
X43000000Y-74859953D01*
X42981093Y-74918144D01*
X42931593Y-74954108D01*
X42916487Y-74957734D01*
X42874699Y-74964352D01*
X42874695Y-74964354D01*
X42761659Y-75021949D01*
X42671949Y-75111659D01*
X42614354Y-75224695D01*
X42599500Y-75318478D01*
X42599500Y-76681521D01*
X42599501Y-76681523D01*
X42614352Y-76775299D01*
X42614354Y-76775304D01*
X42671950Y-76888342D01*
X42761658Y-76978050D01*
X42874696Y-77035646D01*
X42916487Y-77042265D01*
X42971004Y-77070042D01*
X42998781Y-77124559D01*
X43000000Y-77140046D01*
X43000000Y-91901000D01*
X42981093Y-91959191D01*
X42931593Y-91995155D01*
X42901000Y-92000000D01*
X40099000Y-92000000D01*
X40040809Y-91981093D01*
X40004845Y-91931593D01*
X40000000Y-91901000D01*
X40000000Y-73099000D01*
X40018907Y-73040809D01*
X40068407Y-73004845D01*
X40099000Y-73000000D01*
X42901000Y-73000000D01*
X42959191Y-73018907D01*
G37*
%TD.AperFunction*%
%TD*%
M02*
