%TF.GenerationSoftware,KiCad,Pcbnew,10.0.5-10.0.5~ubuntu24.04.1*%
%TF.CreationDate,2026-09-03T15:09:49-06:00*%
%TF.ProjectId,quad_fan_controller,71756164-5f66-4616-9e5f-636f6e74726f,rev?*%
%TF.SameCoordinates,Original*%
%TF.FileFunction,Soldermask,Top*%
%TF.FilePolarity,Negative*%
%FSLAX46Y46*%
G04 Gerber Fmt 4.6, Leading zero omitted, Abs format (unit mm)*
G04 Created by KiCad (PCBNEW 10.0.5-10.0.5~ubuntu24.04.1) date 2026-09-03 15:09:49*
%MOMM*%
%LPD*%
G01*
G04 APERTURE LIST*
G04 Aperture macros list*
%AMRoundRect*
0 Rectangle with rounded corners*
0 $1 Rounding radius*
0 $2 $3 $4 $5 $6 $7 $8 $9 X,Y pos of 4 corners*
0 Add a 4 corners polygon primitive as box body*
4,1,4,$2,$3,$4,$5,$6,$7,$8,$9,$2,$3,0*
0 Add four circle primitives for the rounded corners*
1,1,$1+$1,$2,$3*
1,1,$1+$1,$4,$5*
1,1,$1+$1,$6,$7*
1,1,$1+$1,$8,$9*
0 Add four rect primitives between the rounded corners*
20,1,$1+$1,$2,$3,$4,$5,0*
20,1,$1+$1,$4,$5,$6,$7,0*
20,1,$1+$1,$6,$7,$8,$9,0*
20,1,$1+$1,$8,$9,$2,$3,0*%
%AMFreePoly0*
4,1,9,3.862500,-0.866500,0.737500,-0.866500,0.737500,-0.450000,-0.737500,-0.450000,-0.737500,0.450000,0.737500,0.450000,0.737500,0.866500,3.862500,0.866500,3.862500,-0.866500,3.862500,-0.866500,$1*%
G04 Aperture macros list end*
%ADD10RoundRect,0.200000X-0.200000X-0.275000X0.200000X-0.275000X0.200000X0.275000X-0.200000X0.275000X0*%
%ADD11RoundRect,0.225000X0.375000X-0.225000X0.375000X0.225000X-0.375000X0.225000X-0.375000X-0.225000X0*%
%ADD12RoundRect,0.250000X-1.500000X-0.550000X1.500000X-0.550000X1.500000X0.550000X-1.500000X0.550000X0*%
%ADD13C,1.000000*%
%ADD14RoundRect,0.225000X-0.250000X0.225000X-0.250000X-0.225000X0.250000X-0.225000X0.250000X0.225000X0*%
%ADD15RoundRect,0.445000X-1.155000X0.445000X-1.155000X-0.445000X1.155000X-0.445000X1.155000X0.445000X0*%
%ADD16RoundRect,0.225000X-0.225000X-0.250000X0.225000X-0.250000X0.225000X0.250000X-0.225000X0.250000X0*%
%ADD17RoundRect,0.225000X0.250000X-0.225000X0.250000X0.225000X-0.250000X0.225000X-0.250000X-0.225000X0*%
%ADD18RoundRect,0.250000X-1.000000X-0.650000X1.000000X-0.650000X1.000000X0.650000X-1.000000X0.650000X0*%
%ADD19RoundRect,0.150000X-0.587500X-0.150000X0.587500X-0.150000X0.587500X0.150000X-0.587500X0.150000X0*%
%ADD20R,1.700000X1.700000*%
%ADD21C,1.700000*%
%ADD22RoundRect,0.200000X0.200000X0.275000X-0.200000X0.275000X-0.200000X-0.275000X0.200000X-0.275000X0*%
%ADD23RoundRect,0.225000X-0.225000X-0.375000X0.225000X-0.375000X0.225000X0.375000X-0.225000X0.375000X0*%
%ADD24C,3.200000*%
%ADD25RoundRect,0.300000X-0.300000X-0.300000X0.300000X-0.300000X0.300000X0.300000X-0.300000X0.300000X0*%
%ADD26RoundRect,0.050010X-0.099990X-0.199990X0.099990X-0.199990X0.099990X0.199990X-0.099990X0.199990X0*%
%ADD27R,2.600000X2.600000*%
%ADD28C,2.600000*%
%ADD29RoundRect,0.218750X-0.218750X-0.256250X0.218750X-0.256250X0.218750X0.256250X-0.218750X0.256250X0*%
%ADD30RoundRect,0.150000X-0.825000X-0.150000X0.825000X-0.150000X0.825000X0.150000X-0.825000X0.150000X0*%
%ADD31R,1.800000X1.800000*%
%ADD32C,1.800000*%
%ADD33RoundRect,0.250000X-0.250000X-0.475000X0.250000X-0.475000X0.250000X0.475000X-0.250000X0.475000X0*%
%ADD34RoundRect,0.200000X-0.275000X0.200000X-0.275000X-0.200000X0.275000X-0.200000X0.275000X0.200000X0*%
%ADD35RoundRect,0.125000X-0.625000X-0.125000X0.625000X-0.125000X0.625000X0.125000X-0.625000X0.125000X0*%
%ADD36RoundRect,0.125000X-0.125000X-0.625000X0.125000X-0.625000X0.125000X0.625000X-0.125000X0.625000X0*%
%ADD37RoundRect,0.225000X-0.375000X0.225000X-0.375000X-0.225000X0.375000X-0.225000X0.375000X0.225000X0*%
%ADD38RoundRect,0.200000X0.275000X-0.200000X0.275000X0.200000X-0.275000X0.200000X-0.275000X-0.200000X0*%
%ADD39RoundRect,0.225000X-0.425000X-0.225000X0.425000X-0.225000X0.425000X0.225000X-0.425000X0.225000X0*%
%ADD40FreePoly0,0.000000*%
G04 APERTURE END LIST*
D10*
%TO.C,R7*%
X77875000Y-75500000D03*
X79525000Y-75500000D03*
%TD*%
D11*
%TO.C,D2*%
X67000000Y-71650000D03*
X67000000Y-68350000D03*
%TD*%
D12*
%TO.C,C3*%
X35300000Y-52000000D03*
X40700000Y-52000000D03*
%TD*%
D13*
%TO.C,TP10*%
X87000000Y-89800000D03*
%TD*%
D14*
%TO.C,C2*%
X53000000Y-69225000D03*
X53000000Y-70775000D03*
%TD*%
D15*
%TO.C,F3*%
X94000000Y-66510000D03*
X94000000Y-71490000D03*
%TD*%
D16*
%TO.C,C12*%
X85225000Y-46000000D03*
X86775000Y-46000000D03*
%TD*%
D17*
%TO.C,C7*%
X81000000Y-52775000D03*
X81000000Y-51225000D03*
%TD*%
D10*
%TO.C,R23*%
X75175000Y-87000000D03*
X76825000Y-87000000D03*
%TD*%
%TO.C,R9*%
X113875000Y-75500000D03*
X115525000Y-75500000D03*
%TD*%
%TO.C,R31*%
X81175000Y-87000000D03*
X82825000Y-87000000D03*
%TD*%
D18*
%TO.C,D1*%
X44000000Y-76000000D03*
X48000000Y-76000000D03*
%TD*%
D19*
%TO.C,Q12*%
X99562500Y-79050000D03*
X99562500Y-80950000D03*
X101437500Y-80000000D03*
%TD*%
D10*
%TO.C,R8*%
X95875000Y-75500000D03*
X97525000Y-75500000D03*
%TD*%
D13*
%TO.C,TP1*%
X35000000Y-66000000D03*
%TD*%
%TO.C,TP3*%
X58000000Y-57000000D03*
%TD*%
D20*
%TO.C,J6*%
X110000000Y-40000000D03*
D21*
X110000000Y-42540000D03*
X110000000Y-45080000D03*
%TD*%
D22*
%TO.C,R36*%
X103825000Y-87000000D03*
X102175000Y-87000000D03*
%TD*%
D10*
%TO.C,R26*%
X60175000Y-87000000D03*
X61825000Y-87000000D03*
%TD*%
D23*
%TO.C,D8*%
X76850000Y-42500000D03*
X80150000Y-42500000D03*
%TD*%
D10*
%TO.C,R28*%
X96175000Y-87000000D03*
X97825000Y-87000000D03*
%TD*%
D16*
%TO.C,C10*%
X77225000Y-46000000D03*
X78775000Y-46000000D03*
%TD*%
D19*
%TO.C,Q13*%
X117562500Y-79050000D03*
X117562500Y-80950000D03*
X119437500Y-80000000D03*
%TD*%
D13*
%TO.C,TP2*%
X54000000Y-57000000D03*
%TD*%
D24*
%TO.C,H2*%
X131000000Y-96000000D03*
%TD*%
D10*
%TO.C,R25*%
X111175000Y-87000000D03*
X112825000Y-87000000D03*
%TD*%
%TO.C,R12*%
X103175000Y-75500000D03*
X104825000Y-75500000D03*
%TD*%
D19*
%TO.C,Q4*%
X98062500Y-69050000D03*
X98062500Y-70950000D03*
X99937500Y-70000000D03*
%TD*%
%TO.C,Q11*%
X81562500Y-79050000D03*
X81562500Y-80950000D03*
X83437500Y-80000000D03*
%TD*%
D10*
%TO.C,R24*%
X93175000Y-87000000D03*
X94825000Y-87000000D03*
%TD*%
%TO.C,R43*%
X71175000Y-60500000D03*
X72825000Y-60500000D03*
%TD*%
%TO.C,R39*%
X85175000Y-80000000D03*
X86825000Y-80000000D03*
%TD*%
D19*
%TO.C,Q8*%
X99562500Y-74550000D03*
X99562500Y-76450000D03*
X101437500Y-75500000D03*
%TD*%
D25*
%TO.C,D13*%
X95400000Y-83500000D03*
X98600000Y-83500000D03*
%TD*%
D23*
%TO.C,D7*%
X71350000Y-42500000D03*
X74650000Y-42500000D03*
%TD*%
D10*
%TO.C,R27*%
X78175000Y-87000000D03*
X79825000Y-87000000D03*
%TD*%
%TO.C,R19*%
X74575000Y-80000000D03*
X76225000Y-80000000D03*
%TD*%
D13*
%TO.C,TP7*%
X95000000Y-89800000D03*
%TD*%
D10*
%TO.C,R11*%
X85175000Y-75500000D03*
X86825000Y-75500000D03*
%TD*%
D16*
%TO.C,C11*%
X81225000Y-46000000D03*
X82775000Y-46000000D03*
%TD*%
D10*
%TO.C,R48*%
X97175000Y-45080000D03*
X98825000Y-45080000D03*
%TD*%
D15*
%TO.C,F2*%
X76000000Y-66510000D03*
X76000000Y-71490000D03*
%TD*%
D19*
%TO.C,Q5*%
X116062500Y-69050000D03*
X116062500Y-70950000D03*
X117937500Y-70000000D03*
%TD*%
D13*
%TO.C,TP9*%
X69000000Y-89800000D03*
%TD*%
D10*
%TO.C,R30*%
X63175000Y-87000000D03*
X64825000Y-87000000D03*
%TD*%
D25*
%TO.C,D18*%
X119400000Y-83500000D03*
X122600000Y-83500000D03*
%TD*%
D22*
%TO.C,R37*%
X121825000Y-87000000D03*
X120175000Y-87000000D03*
%TD*%
D13*
%TO.C,TP6*%
X77000000Y-89800000D03*
%TD*%
%TO.C,TP5*%
X59000000Y-89800000D03*
%TD*%
D10*
%TO.C,R49*%
X97175000Y-47620000D03*
X98825000Y-47620000D03*
%TD*%
%TO.C,R4*%
X92575000Y-75500000D03*
X94225000Y-75500000D03*
%TD*%
D19*
%TO.C,Q3*%
X80062500Y-69050000D03*
X80062500Y-70950000D03*
X81937500Y-70000000D03*
%TD*%
D10*
%TO.C,R33*%
X117175000Y-87000000D03*
X118825000Y-87000000D03*
%TD*%
%TO.C,R40*%
X103175000Y-80000000D03*
X104825000Y-80000000D03*
%TD*%
D26*
%TO.C,D19*%
X117150000Y-42540000D03*
X117850000Y-42540000D03*
%TD*%
D10*
%TO.C,R22*%
X57175000Y-87000000D03*
X58825000Y-87000000D03*
%TD*%
%TO.C,R18*%
X56575000Y-80000000D03*
X58225000Y-80000000D03*
%TD*%
D19*
%TO.C,Q2*%
X62062500Y-69050000D03*
X62062500Y-70950000D03*
X63937500Y-70000000D03*
%TD*%
D23*
%TO.C,D10*%
X87850000Y-42500000D03*
X91150000Y-42500000D03*
%TD*%
D13*
%TO.C,TP4*%
X73000000Y-92000000D03*
%TD*%
D27*
%TO.C,J1*%
X41460000Y-90000000D03*
D28*
X46540000Y-90000000D03*
%TD*%
D25*
%TO.C,D17*%
X101400000Y-83500000D03*
X104600000Y-83500000D03*
%TD*%
D26*
%TO.C,D21*%
X94650000Y-45080000D03*
X95350000Y-45080000D03*
%TD*%
D25*
%TO.C,D16*%
X83400000Y-83500000D03*
X86600000Y-83500000D03*
%TD*%
D10*
%TO.C,R1*%
X37175000Y-71000000D03*
X38825000Y-71000000D03*
%TD*%
D26*
%TO.C,D20*%
X117150000Y-45080000D03*
X117850000Y-45080000D03*
%TD*%
D12*
%TO.C,C1*%
X43300000Y-70000000D03*
X48700000Y-70000000D03*
%TD*%
D19*
%TO.C,Q10*%
X63562500Y-79050000D03*
X63562500Y-80950000D03*
X65437500Y-80000000D03*
%TD*%
D10*
%TO.C,R5*%
X110575000Y-75500000D03*
X112225000Y-75500000D03*
%TD*%
D11*
%TO.C,D5*%
X121000000Y-71650000D03*
X121000000Y-68350000D03*
%TD*%
D10*
%TO.C,R10*%
X67175000Y-75500000D03*
X68825000Y-75500000D03*
%TD*%
D29*
%TO.C,D24*%
X65212500Y-52000000D03*
X66787500Y-52000000D03*
%TD*%
D10*
%TO.C,R2*%
X56575000Y-75500000D03*
X58225000Y-75500000D03*
%TD*%
D30*
%TO.C,Q1*%
X35525000Y-74095000D03*
X35525000Y-75365000D03*
X35525000Y-76635000D03*
X35525000Y-77905000D03*
X40475000Y-77905000D03*
X40475000Y-76635000D03*
X40475000Y-75365000D03*
X40475000Y-74095000D03*
%TD*%
D15*
%TO.C,F4*%
X112000000Y-66510000D03*
X112000000Y-71490000D03*
%TD*%
D10*
%TO.C,R16*%
X95875000Y-80000000D03*
X97525000Y-80000000D03*
%TD*%
D31*
%TO.C,J5*%
X114190000Y-95000000D03*
D32*
X116730000Y-95000000D03*
X119270000Y-95000000D03*
X121810000Y-95000000D03*
%TD*%
D17*
%TO.C,C8*%
X81000000Y-56775000D03*
X81000000Y-55225000D03*
%TD*%
D10*
%TO.C,R44*%
X61675000Y-52000000D03*
X63325000Y-52000000D03*
%TD*%
D13*
%TO.C,TP8*%
X113000000Y-89800000D03*
%TD*%
D10*
%TO.C,R47*%
X113175000Y-45080000D03*
X114825000Y-45080000D03*
%TD*%
D33*
%TO.C,C5*%
X54050000Y-52000000D03*
X55950000Y-52000000D03*
%TD*%
D16*
%TO.C,C4*%
X44225000Y-52000000D03*
X45775000Y-52000000D03*
%TD*%
D11*
%TO.C,D4*%
X103000000Y-71650000D03*
X103000000Y-68350000D03*
%TD*%
D10*
%TO.C,R15*%
X77875000Y-80000000D03*
X79525000Y-80000000D03*
%TD*%
D13*
%TO.C,TP11*%
X105000000Y-89800000D03*
%TD*%
D11*
%TO.C,D3*%
X85000000Y-71650000D03*
X85000000Y-68350000D03*
%TD*%
D24*
%TO.C,H1*%
X34000000Y-96000000D03*
%TD*%
D10*
%TO.C,R13*%
X121175000Y-75500000D03*
X122825000Y-75500000D03*
%TD*%
D13*
%TO.C,TP12*%
X123000000Y-89800000D03*
%TD*%
D10*
%TO.C,R41*%
X121175000Y-80000000D03*
X122825000Y-80000000D03*
%TD*%
D34*
%TO.C,R45*%
X79000000Y-62875000D03*
X79000000Y-64525000D03*
%TD*%
D35*
%TO.C,U1*%
X83825000Y-51200000D03*
X83825000Y-52000000D03*
X83825000Y-52800000D03*
X83825000Y-53600000D03*
X83825000Y-54400000D03*
X83825000Y-55200000D03*
X83825000Y-56000000D03*
X83825000Y-56800000D03*
D36*
X85200000Y-58175000D03*
X86000000Y-58175000D03*
X86800000Y-58175000D03*
X87600000Y-58175000D03*
X88400000Y-58175000D03*
X89200000Y-58175000D03*
X90000000Y-58175000D03*
X90800000Y-58175000D03*
D35*
X92175000Y-56800000D03*
X92175000Y-56000000D03*
X92175000Y-55200000D03*
X92175000Y-54400000D03*
X92175000Y-53600000D03*
X92175000Y-52800000D03*
X92175000Y-52000000D03*
X92175000Y-51200000D03*
D36*
X90800000Y-49825000D03*
X90000000Y-49825000D03*
X89200000Y-49825000D03*
X88400000Y-49825000D03*
X87600000Y-49825000D03*
X86800000Y-49825000D03*
X86000000Y-49825000D03*
X85200000Y-49825000D03*
%TD*%
D23*
%TO.C,D9*%
X82350000Y-42500000D03*
X85650000Y-42500000D03*
%TD*%
D10*
%TO.C,R38*%
X67175000Y-80000000D03*
X68825000Y-80000000D03*
%TD*%
D25*
%TO.C,D12*%
X77400000Y-83500000D03*
X80600000Y-83500000D03*
%TD*%
D26*
%TO.C,D22*%
X94650000Y-47620000D03*
X95350000Y-47620000D03*
%TD*%
D10*
%TO.C,R21*%
X110575000Y-80000000D03*
X112225000Y-80000000D03*
%TD*%
%TO.C,R20*%
X92575000Y-80000000D03*
X94225000Y-80000000D03*
%TD*%
D25*
%TO.C,D11*%
X59400000Y-83500000D03*
X62600000Y-83500000D03*
%TD*%
D15*
%TO.C,F1*%
X58000000Y-66510000D03*
X58000000Y-71490000D03*
%TD*%
D26*
%TO.C,D23*%
X94650000Y-50160000D03*
X95350000Y-50160000D03*
%TD*%
D37*
%TO.C,D6*%
X38000000Y-58850000D03*
X38000000Y-62150000D03*
%TD*%
D10*
%TO.C,R46*%
X113175000Y-42540000D03*
X114825000Y-42540000D03*
%TD*%
D38*
%TO.C,R42*%
X72000000Y-65225000D03*
X72000000Y-63575000D03*
%TD*%
D19*
%TO.C,Q6*%
X63562500Y-74550000D03*
X63562500Y-76450000D03*
X65437500Y-75500000D03*
%TD*%
%TO.C,Q7*%
X81562500Y-74550000D03*
X81562500Y-76450000D03*
X83437500Y-75500000D03*
%TD*%
D22*
%TO.C,R35*%
X85825000Y-87000000D03*
X84175000Y-87000000D03*
%TD*%
D10*
%TO.C,R32*%
X99175000Y-87000000D03*
X100825000Y-87000000D03*
%TD*%
D25*
%TO.C,D15*%
X65400000Y-83500000D03*
X68600000Y-83500000D03*
%TD*%
D20*
%TO.C,J7*%
X102000000Y-40000000D03*
D21*
X102000000Y-42540000D03*
X102000000Y-45080000D03*
X102000000Y-47620000D03*
X102000000Y-50160000D03*
%TD*%
D24*
%TO.C,H3*%
X34000000Y-38000000D03*
%TD*%
D10*
%TO.C,R29*%
X114175000Y-87000000D03*
X115825000Y-87000000D03*
%TD*%
D31*
%TO.C,J4*%
X96190000Y-95000000D03*
D32*
X98730000Y-95000000D03*
X101270000Y-95000000D03*
X103810000Y-95000000D03*
%TD*%
D24*
%TO.C,H4*%
X131000000Y-38000000D03*
%TD*%
D25*
%TO.C,D14*%
X113400000Y-83500000D03*
X116600000Y-83500000D03*
%TD*%
D16*
%TO.C,C9*%
X73225000Y-46000000D03*
X74775000Y-46000000D03*
%TD*%
D19*
%TO.C,Q9*%
X117562500Y-74550000D03*
X117562500Y-76450000D03*
X119437500Y-75500000D03*
%TD*%
D16*
%TO.C,C6*%
X58225000Y-52000000D03*
X59775000Y-52000000D03*
%TD*%
D22*
%TO.C,R34*%
X67825000Y-87000000D03*
X66175000Y-87000000D03*
%TD*%
D31*
%TO.C,J2*%
X60190000Y-95000000D03*
D32*
X62730000Y-95000000D03*
X65270000Y-95000000D03*
X67810000Y-95000000D03*
%TD*%
D31*
%TO.C,J3*%
X78190000Y-95000000D03*
D32*
X80730000Y-95000000D03*
X83270000Y-95000000D03*
X85810000Y-95000000D03*
%TD*%
D10*
%TO.C,R17*%
X113875000Y-80000000D03*
X115525000Y-80000000D03*
%TD*%
D39*
%TO.C,U2*%
X48050000Y-50500000D03*
D40*
X48137500Y-52000000D03*
D39*
X48050000Y-53500000D03*
%TD*%
D10*
%TO.C,R3*%
X74575000Y-75500000D03*
X76225000Y-75500000D03*
%TD*%
%TO.C,R14*%
X59875000Y-80000000D03*
X61525000Y-80000000D03*
%TD*%
%TO.C,R6*%
X59875000Y-75500000D03*
X61525000Y-75500000D03*
%TD*%
M02*
